<svg id="Layer_1" data-name="Layer 1" xmlns="http://www.w3.org/2000/svg" viewBox="0 0 558.9 440.9"><defs><style>.cls-1,.cls-10,.cls-14,.cls-3,.cls-35,.cls-38,.cls-7,.cls-83{fill:#fff;}.cls-2{fill:#3ca0f0;}.cls-14,.cls-18,.cls-21,.cls-3,.cls-30,.cls-35,.cls-7{isolation:isolate;}.cls-3,.cls-7,.cls-83{font-size:8px;}.cls-14,.cls-3,.cls-35,.cls-7,.cls-83{font-family:Arial-BoldMT, Arial;font-weight:700;}.cls-3{letter-spacing:-0.03em;}.cls-4{letter-spacing:-0.04em;}.cls-5{letter-spacing:-0.04em;}.cls-6{letter-spacing:-0.02em;}.cls-8{letter-spacing:-0.04em;}.cls-9{fill:#0078d7;}.cls-10,.cls-38{stroke:#fff;stroke-miterlimit:3;}.cls-10{stroke-width:1.5px;}.cls-11{letter-spacing:-0.03em;}.cls-12,.cls-17,.cls-48{fill:none;}.cls-12,.cls-48{stroke:#0070c0;stroke-miterlimit:10;stroke-width:2px;}.cls-13{fill:#0070c0;}.cls-14{font-size:8.5px;}.cls-15{letter-spacing:-0.01em;}.cls-16{letter-spacing:-0.01em;}.cls-18,.cls-21,.cls-30,.cls-49,.cls-53,.cls-63,.cls-70,.cls-82{font-size:7.73px;font-family:ArialMT, Arial;}.cls-18,.cls-21,.cls-82{fill:#3f3f3f;}.cls-19{letter-spacing:-0.02em;}.cls-20{letter-spacing:0em;}.cls-21,.cls-65{letter-spacing:-0.03em;}.cls-22{letter-spacing:-0.05em;}.cls-23{letter-spacing:-0.04em;}.cls-24{letter-spacing:-0.03em;}.cls-25{letter-spacing:-0.04em;}.cls-26{letter-spacing:-0.05em;}.cls-27{letter-spacing:-0.02em;}.cls-28{letter-spacing:-0.03em;}.cls-29{fill:#f2f2f2;stroke:#7f7f7f;stroke-linecap:round;stroke-linejoin:round;stroke-width:0.75px;}.cls-31{letter-spacing:-0.01em;}.cls-32{letter-spacing:0.02em;}.cls-33{fill:#005694;}.cls-34{fill:#ab3107;}.cls-35{font-size:11px;}.cls-36{letter-spacing:-0.08em;}.cls-37{letter-spacing:0.01em;}.cls-38{stroke-width:1.55px;}.cls-39{fill:#006fd4;}.cls-40{fill:#0089cf;}.cls-41{fill:#fcfdfe;}.cls-42{fill:#fdfcfd;}.cls-43{fill:#f5f4f8;}.cls-44{fill:#058bd0;}.cls-45{fill:#eaf2f8;}.cls-46{fill:#f5f7fa;}.cls-47{fill:#f3f5f9;}.cls-48{stroke-linecap:square;}.cls-50{letter-spacing:0.01em;}.cls-51{letter-spacing:-0.01em;}.cls-52{letter-spacing:-0.04em;}.cls-53{letter-spacing:-0.06em;}.cls-54{letter-spacing:-0.04em;}.cls-55{letter-spacing:-0.03em;}.cls-56{letter-spacing:-0.05em;}.cls-57{letter-spacing:0em;}.cls-58{letter-spacing:-0.05em;}.cls-59{letter-spacing:-0.04em;}.cls-60{letter-spacing:-0.01em;}.cls-61{letter-spacing:0.01em;}.cls-62{letter-spacing:-0.06em;}.cls-63{letter-spacing:-0.07em;}.cls-64{letter-spacing:-0.05em;}.cls-66{letter-spacing:-0.05em;}.cls-67{letter-spacing:-0.04em;}.cls-68{letter-spacing:-0.01em;}.cls-69{letter-spacing:-0.02em;}.cls-70{letter-spacing:-0.08em;}.cls-71{letter-spacing:-0.02em;}.cls-72{letter-spacing:-0.03em;}.cls-73{letter-spacing:-0.04em;}.cls-74{letter-spacing:-0.05em;}.cls-75{letter-spacing:-0.03em;}.cls-76{letter-spacing:-0.02em;}.cls-77{letter-spacing:-0.04em;}.cls-78{letter-spacing:-0.04em;}.cls-79{letter-spacing:-0.02em;}.cls-80{letter-spacing:-0.04em;}.cls-81{letter-spacing:-0.01em;}.cls-84{letter-spacing:-0.01em;}</style></defs><title>OJ103682916_clari</title><rect class="cls-1" width="558.9" height="440.9"/><g id="shape17-11"><rect class="cls-2" x="456.2" y="106.3" width="70.8" height="36.2"/><text class="cls-3" transform="translate(459.33 125.86)">Пак<tspan class="cls-4" x="13.48" y="0">е</tspan><tspan x="17.59" y="0">тная с</tspan><tspan class="cls-5" x="40.69" y="0">л</tspan><tspan class="cls-6" x="45.42" y="0">у</tspan><tspan x="49.73" y="0">жба</tspan><tspan x="21.52" y="9.6">Azure</tspan></text></g><g id="shape18-15"><rect class="cls-2" x="456.2" y="225.7" width="70.8" height="36.2"/><text class="cls-7" transform="translate(462.69 246.29)">Функции<tspan class="cls-8" x="34.87" y="0"> </tspan><tspan x="36.79" y="0">Azure</tspan></text></g><g id="shape19-19"><rect class="cls-2" x="456.2" y="284.7" width="70.8" height="36.2"/></g><g id="shape21-24"><rect class="cls-2" x="456.2" y="165.8" width="70.8" height="36.2"/></g><g id="group1056-307"><g id="shape22-308"><rect class="cls-2" x="456.2" y="404.7" width="70.8" height="36.2"/></g><g id="shape1044-313"><path class="cls-9" d="M553.3,419.6v6.3l3.9-1.5V421Zm-1.5,5.4-.2-.1v-4.3l.2-.1.2-.1.3-.1v4.8l-.3-.1Zm-.9-.2-.2-.1v-3.8l.6-.2v4.2l-.2-.1Zm-.8-.3-.2-.1V421l.5-.2v3.7Zm-.3-3.9v4.1l2.9,1.2v-6.3Zm-1.2-7.2v6.3l3.9-1.5v-3.4Zm0,12.5v6.3l3.9-1.5v-3.4Zm-1.5-7.1-.2-.1v-4.3l.2-.1.2-.1.3-.1V419l-.3-.1Zm-.9-.3-.2-.1v-3.9l.6-.2v4.2l-.2-.1Zm-.8-.3-.2-.1v-3.4l.5-.2v3.7Zm-.3-3.8v4.1l2.9,1.2v-6.2Zm2,17-.2-.1V427l.2-.1.2-.1.3-.1v4.9l-.3-.1Zm-.9-.3-.2-.1v-3.8l.6-.2v4.2l-.2-.1Zm-.8-.3-.2-.1v-3.4l.5-.2v3.7Zm-.3-3.7v4.1l2.9,1.2v-6.3Zm-.7-7.4V426l3.9-1.5v-3.4Zm-1.6,5.4-.2-.1v-4.4l.2-.1.2-.1.3-.1v4.8l-.3-.1Zm-.9-.3-.2-.1v-3.8l.6-.2v4.2l-.2-.1Zm-.8-.2-.2-.1v-3.4l.5-.2v3.7Zm-.3-3.9v4.1l2.9,1.2v-6.3Zm-1.3-7.3v6.3l3.9-1.5v-3.4Zm0,12.6v6.3l3.9-1.5v-3.4Zm-1.5-7.2-.2-.1v-4.3l.2-.1.2-.1.3-.1V419l-.3-.1Zm-1-.3-.2-.1v-3.9l.6-.2v4.2l-.2-.1Zm-.7-.2-.2-.1v-3.4l.5-.2v3.7Zm-.3-3.8v4.1l2.9,1.2v-6.3Zm2,16.9-.2-.1V427l.2-.1.2-.1.3-.1v4.9l-.3-.1Zm-1-.3-.2-.1v-3.8l.6-.2v4.2l-.2-.1Zm-.7-.3-.2-.1v-3.4l.5-.2v3.7Zm-.3-3.7v4.1l2.9,1.2v-6.3Zm-.7-7.4V426l3.9-1.5v-3.4Zm-1.6,5.4-.2-.1v-4.4l.2-.1.2-.1.3-.1v4.8l-.3-.1h-.2Zm-.9-.3-.2-.1v-3.8l.6-.2v4.2l-.2-.1Zm-.8-.2-.2-.1v-3.4l.5-.2v3.7Zm-.3-3.9v4.1l2.9,1.2v-6.3Z"/></g></g><g id="group1057-315"><g id="shape20-316"><rect class="cls-2" x="456.2" y="347.7" width="70.8" height="36.2"/><text class="cls-7" transform="translate(464.16 368.32)">Service Fabric</text></g><g id="group1045-320"><g id="shape1046-321"><path class="cls-10" d="M538.1,362.3c-.1-.2-.1-.3-.2-.4l2.3-1.9a1.76,1.76,0,0,0,.5.4Zm6.4,12.2a3.61,3.61,0,1,0,6.7-2.7,3,3,0,0,0-1.1-1.4l1-3.4a3.65,3.65,0,0,0-1.2-7.2,3.36,3.36,0,0,0-1.4.5l-2.5-2.1a3.59,3.59,0,0,0,.2-1.1,3.65,3.65,0,1,0-7.3-.3v.3a4.25,4.25,0,0,0,.2,1.1l-2.7,2.2a5.26,5.26,0,0,0-1.8-.4c-2,0-3.6,1.2-3.6,3.2a3.64,3.64,0,0,0,3,3.6l1,3.5a3.61,3.61,0,0,0,4.8,5.4,2.81,2.81,0,0,0,1-1.4l3.7.2Zm.3-14.3.2-.2,2.3,1.9-.1.2Z"/></g><g id="shape1047-323"><path class="cls-9" d="M554.2,363.4a3.61,3.61,0,0,0-5.6-3l-2.5-2.1a3.59,3.59,0,0,0,.2-1.1,3.65,3.65,0,1,0-7.3-.3v.3a4.25,4.25,0,0,0,.2,1.1l-2.7,2.2a5.26,5.26,0,0,0-1.8-.4c-2,0-3.6,1.2-3.6,3.2a3.64,3.64,0,0,0,3,3.6l1,3.5a3.61,3.61,0,1,0,4.8,5.4,3.07,3.07,0,0,0,1-1.5h3.7a3.58,3.58,0,1,0,6.7-2.5,2.83,2.83,0,0,0-1.1-1.5l1-3.4A3.47,3.47,0,0,0,554.2,363.4Zm-6.3,6.2a3.73,3.73,0,0,0-3.6,2.9h-3.4a3.73,3.73,0,0,0-3.6-2.9.75.75,0,0,0-.5.1l-.8-2.9a3.46,3.46,0,0,0,2.2-3.3,2.82,2.82,0,0,0-.4-1.5l2.3-1.9a3.52,3.52,0,0,0,4.7,0l2.3,1.9a3.67,3.67,0,0,0,1.8,4.8h.1l-.8,2.9C548.2,369.6,548,369.6,547.9,369.6Z"/></g></g></g><g id="shape11-2"><rect class="cls-2" x="456.2" y="46.6" width="70.8" height="36.2"/><text class="cls-3" transform="translate(482.82 57.23)">ВМ / <tspan class="cls-5"><tspan x="-24.74" y="9.6">м</tspan><tspan class="cls-11" x="-19.16" y="9.6">асштаби</tspan><tspan x="12.95" y="9.6">руе</tspan><tspan class="cls-11" x="25.7" y="9.6">мый</tspan></tspan><tspan x="-9.42" y="19.2">набор ВМ</tspan></text></g><line class="cls-12" x1="368.9" y1="83.5" x2="368.9" y2="98.8"/><polygon class="cls-13" points="366.2 97 368.9 106.9 371.6 97 366.2 97"/><line class="cls-12" x1="393.4" y1="64.7" x2="449.2" y2="64.7"/><polygon class="cls-13" points="447.4 67.4 457.2 64.7 447.4 62.1 447.4 67.4"/><line class="cls-12" x1="393.4" y1="124.3" x2="449.2" y2="124.3"/><polygon class="cls-13" points="447.4 127 457.2 124.3 447.4 121.7 447.4 127"/><line class="cls-12" x1="393.4" y1="185.8" x2="449.2" y2="185.8"/><polygon class="cls-13" points="447.4 188.4 457.2 185.8 447.4 183.1 447.4 188.4"/><line class="cls-12" x1="393.2" y1="243.8" x2="449" y2="243.8"/><polygon class="cls-13" points="447.1 246.4 457 243.8 447.1 241.2 447.1 246.4"/><line class="cls-12" x1="392.4" y1="304.6" x2="448.2" y2="304.6"/><polygon class="cls-13" points="447.4 307.3 457.2 304.6 447.4 302 447.4 307.3"/><line class="cls-12" x1="390.6" y1="366.2" x2="449.2" y2="366.2"/><polygon class="cls-13" points="447.4 368.9 457.2 366.2 447.4 363.5 447.4 368.9"/><line class="cls-12" x1="414.75" y1="366.5" x2="449.2" y2="404.7"/><polygon class="cls-13" points="446.9 405.7 456.2 410 450.3 401.6 446.9 405.7"/><line class="cls-12" x1="71.8" y1="83.6" x2="71.8" y2="183.2"/><polygon class="cls-13" points="69.2 181.4 71.8 191.2 74.4 181.4 69.2 181.4"/><line class="cls-12" x1="55" y1="226" x2="55" y2="330"/><polygon class="cls-13" points="52.4 328.3 55 338.1 57.6 328.3 52.4 328.3"/><g id="shape16-7"><rect class="cls-2" x="35" y="337.5" width="82.83" height="36.2"/><text class="cls-14" transform="translate(67.35 348.13)">ВМ /<tspan class="cls-15" x="-28.61" y="10.2">м</tspan><tspan x="-22.43" y="10.2">асштаби</tspan><tspan class="cls-16" x="13.47" y="10.2">руе</tspan><tspan x="27.78" y="10.2">мый</tspan><tspan x="-11.57" y="20.4">набор ВМ</tspan></text></g><g id="shape39-100"><rect class="cls-17" x="267" y="65.4" width="49.6" height="15.5"/><text class="cls-18" transform="translate(277.2 75.45)">С н<tspan class="cls-19" x="11.99" y="0">у</tspan><tspan class="cls-20" x="15.69" y="0">ля</tspan></text></g><g id="shape40-104"><rect class="cls-17" x="133.3" y="65.5" width="52.7" height="15.5"/><text class="cls-21" transform="translate(142.08 75.6)">На <tspan class="cls-22" x="11.33" y="0">б</tspan><tspan class="cls-23" x="15.34" y="0">аз</tspan><tspan class="cls-24" x="22.55" y="0">е</tspan><tspan x="-12.22" y="9.27">су</tspan><tspan class="cls-25" x="-4.95" y="9.27">щ</tspan><tspan class="cls-24" x="1.09" y="9.27">ест</tspan><tspan class="cls-26" x="12.09" y="9.27">в</tspan><tspan x="15.79" y="9.27">ующих</tspan><tspan x="-2.21" y="18.54">рес</tspan><tspan class="cls-25" x="9.55" y="18.54">у</tspan><tspan x="13.1" y="18.54">р</tspan><tspan class="cls-27" x="17.16" y="18.54">с</tspan><tspan x="20.88" y="18.54">ов</tspan></text></g><g id="shape41-108"><rect class="cls-17" x="19.2" y="101" width="52.7" height="15.5"/><text class="cls-18" transform="translate(19.37 111.06)">Lift-and-shift</text></g><g id="shape43-117"><rect class="cls-17" x="408.3" y="48.5" width="33.8" height="15.5"/><text class="cls-18" transform="translate(419.46 58.51)">Да</text></g><g id="shape44-121"><rect class="cls-17" x="409.3" y="107.5" width="31.8" height="15.5"/><text class="cls-18" transform="translate(419.46 117.5)">Да</text></g><g id="shape49-137"><rect class="cls-17" x="412.1" y="350.6" width="26.3" height="15.5"/><text class="cls-18" transform="translate(419.46 360.6)">Да</text></g><g id="shape50-141"><rect class="cls-17" x="365" y="144.6" width="31.8" height="15.5"/><text class="cls-18" transform="translate(375.74 154.57)">Н<tspan class="cls-28" x="5.58" y="0">е</tspan><tspan x="9.62" y="0">т</tspan></text></g><g id="shape51-145"><rect class="cls-17" x="364.1" y="263.6" width="31.8" height="15.5"/><text class="cls-18" transform="translate(374.78 273.61)">Н<tspan class="cls-28" x="5.58" y="0">е</tspan><tspan x="9.62" y="0">т</tspan></text></g><g id="shape52-149"><rect class="cls-17" x="409.3" y="289.1" width="31.8" height="15.5"/><text class="cls-18" transform="translate(420.1 299.17)">Н<tspan class="cls-28" x="5.58" y="0">е</tspan><tspan x="9.62" y="0">т</tspan></text></g><g id="shape53-153"><rect class="cls-17" x="426.8" y="375.5" width="31.8" height="15.5"/><text class="cls-18" transform="translate(437.57 385.53)">Н<tspan class="cls-28" x="5.58" y="0">е</tspan><tspan x="9.62" y="0">т</tspan></text></g><path class="cls-29" d="M192.27,47.3h65c5.82,0,10.6,6.3,10.6,13.9v8.3c0,7.6-4.78,13.9-10.6,13.9h-65c-5.82,0-10.6-6.3-10.6-13.9V61.2C181.67,53.5,186.45,47.3,192.27,47.3Z"/><g id="shape2-172"><path class="cls-29" d="M336.46,106.3H397.7c9.16,0,16.76,6.3,16.76,13.9v8.3c0,7.6-7.6,13.9-16.76,13.9H336.46c-9.16,0-16.76-6.3-16.76-13.9v-8.3C319.58,112.5,327.18,106.3,336.46,106.3Z"/><text class="cls-30" transform="translate(325.24 126.62)"><tspan class="cls-28">Р</tspan><tspan x="4.9" y="0">аб</tspan><tspan class="cls-19" x="13.62" y="0">о</tspan><tspan x="17.75" y="0">чая наг</tspan><tspan class="cls-31" x="43.78" y="0">р</tspan><tspan class="cls-20" x="47.99" y="0">уз</tspan><tspan class="cls-32" x="55.4" y="0">к</tspan><tspan x="58.95" y="0">а HPC?</tspan></text></g><g id="shape3-176"><path class="cls-29" d="M336.46,165.8H397.7c9.16,0,16.76,6.3,16.76,13.9V188c0,7.6-7.6,13.9-16.76,13.9H336.46c-9.16,0-16.76-6.3-16.76-13.9v-8.3C319.58,171.9,327.18,165.8,336.46,165.8Z"/></g><g id="shape4-181"><path class="cls-29" d="M336.46,219.7H397.7a17,17,0,0,1,16.76,16.9v10.1a17,17,0,0,1-16.76,16.9H336.46a17,17,0,0,1-16.76-16.9V236.6A16.72,16.72,0,0,1,336.46,219.7Z"/></g><g id="shape5-187"><path class="cls-29" d="M59.5,47.5h50.8a14,14,0,0,1,13.9,13.9v8.3a14,14,0,0,1-13.9,13.9H59.5A14,14,0,0,1,45.6,69.7V61.4A13.93,13.93,0,0,1,59.5,47.5Z"/></g><g id="shape6-192"><path class="cls-29" d="M336.46,46.6H397.7c9.16,0,16.76,7.14,16.76,15.75v9.4c0,8.61-7.6,15.75-16.76,15.75H336.46c-9.16,0-16.76-7.14-16.76-15.75v-9.4C319.58,53.74,327.18,46.6,336.46,46.6Z"/></g><g id="shape15-198"><path class="cls-29" d="M334.81,284.7h62.54c9.35,0,17.11,6.3,17.11,13.9v8.3c0,7.6-7.76,13.9-17.11,13.9H334.81c-9.35,0-17.11-6.3-17.11-13.9v-8.3C317.58,290.8,325.33,284.7,334.81,284.7Z"/></g><g id="shape55-203"><rect class="cls-17" x="365" y="85.9" width="31.8" height="15.5"/><text class="cls-18" transform="translate(375.74 95.97)">Н<tspan class="cls-28" x="5.58" y="0">е</tspan><tspan x="9.62" y="0">т</tspan></text></g><g id="shape56-207"><rect class="cls-17" x="409.3" y="170.3" width="31.8" height="15.5"/><text class="cls-18" transform="translate(420.1 180.31)">Н<tspan class="cls-28" x="5.58" y="0">е</tspan><tspan x="9.62" y="0">т</tspan></text></g><g id="shape1002-211"><path class="cls-33" d="M225.6,47.2l-9.3-9.3h4.6V12.4h9.3V37.9h4.6Z"/></g><path class="cls-34" d="M213.1,0H238a14,14,0,0,1,13.9,13.9v2.8A14,14,0,0,1,238,30.6H213.1a14,14,0,0,1-13.9-13.9V13.9A13.87,13.87,0,0,1,213.1,0Z"/><text class="cls-35" transform="translate(201.9 17.63)">Н<tspan class="cls-36" x="7.94" y="0">А</tspan><tspan x="15.05" y="0">Ч</tspan><tspan class="cls-37" x="22.78" y="0">А</tspan><tspan x="30.86" y="0">ЛО</tspan></text><g id="shape1013-217"><path class="cls-9" d="M18.2,355.6h0l3.9-2.2a.1.1,0,0,0,.1-.1c0-.1,0-.1-.1-.1L18.2,351H18l-3.9,2.2-.1.1c0,.1,0,.1.1.1l4.1,2.2Zm-.6,5.4h0l.1-4.6c0-.1,0-.1-.1-.1l-3.9-2.2h-.1l-.1.1v4.5c0,.1,0,.1.1.1l4,2.2Zm1.1,0h0l3.9-2.2a.1.1,0,0,0,.1-.1v-4.5c0-.1,0-.1-.1-.1h-.1l-3.9,2.2a.1.1,0,0,0-.1.1l.2,4.6Zm-1.6-13-2.4-1.4h-.1L12.2,348H8a1.22,1.22,0,0,0-1.2,1.2V358H5.1V345.3H23.8V348ZM21,364.1h6.4a1.3,1.3,0,0,0,1.3-1.2V349.3a1.3,1.3,0,0,0-1.3-1.2h-2V345a1.3,1.3,0,0,0-1.3-1.2H21.9v-3.1a1.3,1.3,0,0,0-1.3-1.2H1.2A1.22,1.22,0,0,0,0,340.7v13.6a1.16,1.16,0,0,0,1.2,1.2H3.4v3.1a1.16,1.16,0,0,0,1.2,1.2H6.7v3.1a1.16,1.16,0,0,0,1.2,1.2H15c.7,2.5-.2,2.9-4.5,2.9v1.4H24.9v-1.3C20.8,367,20.3,366.6,21,364.1Zm6.3-1.7H8.6V349.7H27.3ZM13.6,343.7l-2.3-1.4h-.1l-2.4,1.4H4.6a1.16,1.16,0,0,0-1.2,1.2v8.8H1.6V341H20.3v2.7Z"/></g><g id="shape1014-219"><path class="cls-9" d="M548.3,66.6h0l3.9-2.2.1-.1c0-.1,0-.1-.1-.1L548.3,62h-.1l-3.9,2.2-.1.1c0,.1,0,.1.1.1l4,2.2Zm-.6,5.4h0c.1,0,.1-.1,0,0l.1-4.6c0-.1,0-.1-.1-.1l-3.9-2.2h-.2l-.1.1v4.5c0,.1,0,.1.1.1l4.1,2.2Zm1.2,0h0l3.9-2.2a.1.1,0,0,0,.1-.1V65.2c0-.1,0-.1-.1-.1h-.2l-3.9,2.2-.1.1v4.5c.1,0,.1.1.3.1Zm-1.7-13.1-2.4-1.4h-.1l-2.3,1.4h-4.2a1.22,1.22,0,0,0-1.2,1.2v8.8h-1.6V56.2h18.5v2.7Zm4,16.1h6.4a1.3,1.3,0,0,0,1.3-1.2V60.3a1.3,1.3,0,0,0-1.3-1.2h-2V55.9a1.3,1.3,0,0,0-1.3-1.2h-2.2V51.6a1.3,1.3,0,0,0-1.3-1.2H531.3a1.22,1.22,0,0,0-1.2,1.2V65.2a1.16,1.16,0,0,0,1.2,1.2h2.2v3.1a1.16,1.16,0,0,0,1.2,1.2h2.2v3.1a1.16,1.16,0,0,0,1.2,1.2h7.1c.7,2.5-.2,2.9-4.5,2.9v1.3h14.4V77.9c-4.2,0-4.7-.4-3.9-2.9Zm6.2-1.7H538.7V60.6h18.7ZM543.8,54.6l-2.3-1.4h-.1l-2.3,1.4h-4.2a1.16,1.16,0,0,0-1.2,1.2v8.8h-1.8V51.9h18.7v2.6l-6.8.1Z"/></g><g id="group1015-221"><g id="shape1016-222"><path class="cls-38" d="M547.1,125.3a1.28,1.28,0,0,0-1-1H534.3c-.4,0-.7.6-.7,1v11.8a.73.73,0,0,0,.6.7h12.1c.4,0,.9-.4.9-.7l-.1-11.8Z"/></g><g id="shape1017-224"><path class="cls-38" d="M555.5,127.8c0-.2-.2-.3-.4-.4h-6c-.2,0-.3.2-.4.4v6c0,.2.2.3.4.4h6c.2,0,.3-.2.4-.4Z"/></g><g id="shape1018-226"><path class="cls-38" d="M553.2,123.3s.6-4.6-3.6-5.5h-.9a3.09,3.09,0,0,0-.8.2v1.9a1.17,1.17,0,0,1,.8-.2,2.2,2.2,0,0,1,.8.1c1,.4,2,1,1.8,3.6h-1.8l2.9,3.6,2.8-3.6-2-.1Z"/></g><g id="shape1019-228"><path class="cls-38" d="M556.9,129.2h-.6v5.9h-5.9v.5c0,.2.2.3.4.4h6c.2,0,.3-.2.4-.4v-6c0-.2-.1-.3-.3-.4Z"/></g><g id="shape1020-230"><path class="cls-38" d="M540,130.9h-.5v5.9h-5.9v.5c0,.2.2.3.4.4h6c.2,0,.3-.2.4-.4v-6A.43.43,0,0,0,540,130.9Z"/></g><g id="group1021-232"><g id="group1022-233"><g id="shape1023-234"><rect class="cls-39" x="536" y="117.5" width="8.5" height="1.7"/></g><g id="shape1024-236"><rect class="cls-39" x="536" y="119.9" width="8.5" height="1.7"/></g><g id="shape1025-238"><rect class="cls-39" x="536" y="122.5" width="8.5" height="1.7"/></g></g><g id="group1026-240"><g id="shape1027-241"><path class="cls-39" d="M547.1,125.3a1.28,1.28,0,0,0-1-1H534.3c-.4,0-.7.6-.7,1v11.8a.73.73,0,0,0,.6.7h12.1c.4,0,.9-.4.9-.7l-.1-11.8Zm-1.8,10.8H535.2v-8.5h10.1Z"/></g><g id="shape1028-243"><path class="cls-39" d="M555.5,127.9c0-.2-.2-.3-.4-.4h-6c-.2,0-.3.2-.4.4v6c0,.2.2.3.4.4h6a.43.43,0,0,0,.4-.4Zm-.9,5.6h-5.1v-4.2h5.1Z"/></g><g id="shape1029-245"><rect class="cls-39" x="550.4" y="130.1" width="3.4" height="0.8"/></g><g id="shape1030-247"><path class="cls-39" d="M553.2,123.3s.6-4.6-3.6-5.5h-.9a3.09,3.09,0,0,0-.8.2v1.9a1.17,1.17,0,0,1,.8-.2,2.2,2.2,0,0,1,.8.1c1,.4,2,1,1.8,3.6h-1.8l2.9,3.6,2.8-3.6Z"/></g><g id="shape1031-249"><path class="cls-39" d="M556.9,129.3h-.6v5.9h-5.9v.5c0,.2.2.3.4.4h6c.2,0,.3-.2.4-.4v-6c0-.2-.1-.3-.3-.4Z"/></g><g id="shape1032-251"><path class="cls-39" d="M558.5,130.9H558v5.9h-5.9v.5c0,.2.2.3.4.4h6c.2,0,.3-.2.4-.4v-6c0-.2-.2-.3-.4-.4Z"/></g></g></g></g><g id="group1033-254"><g id="group1034-255"><g id="shape1036-257"><path class="cls-10" d="M555,182.3v-9.9H534.1v21h21l-.1-11.1Z"/></g></g><g id="group1037-259"><g id="shape1038-260"><path class="cls-9" d="M542.4,192h-7v-7h1.4a3.4,3.4,0,0,1-.2-1.4v-.1h-2.7v9.8h9.9v-5.8h-1.5Z"/></g><g id="shape1039-262"><path class="cls-9" d="M552.3,185h1.3v7h-7v-4.4h-1.5v5.9H555v-9.8h-3.1a1.84,1.84,0,0,1,.4,1.3Z"/></g><g id="shape1040-264"><path class="cls-9" d="M535.4,180.9v-7h7v4a6.89,6.89,0,0,1,1.5-.7v-4.8H534v9.9h2.9a6,6,0,0,1,.9-1.5h-2.4Z"/></g><g id="shape1041-266"><path class="cls-9" d="M546.5,177.2v-3.3h7v7h-3a3.4,3.4,0,0,1,.2,1.4v.1H555v-9.9H545v4.6h.4A2,2,0,0,1,546.5,177.2Z"/></g></g><g id="shape1042-268"><path class="cls-9" d="M551.1,184.9a1.54,1.54,0,0,0-1.5-1.5h-.2a5,5,0,0,0,.2-1.2,4.15,4.15,0,0,0-8.1-1.3,2.92,2.92,0,0,0-.9-.2,2.8,2.8,0,0,0-2.8,2.8v.1a2.88,2.88,0,0,0,2.8,2.9h9.2A1.46,1.46,0,0,0,551.1,184.9Z"/></g></g><path class="cls-9" d="M546.8,232h-7.5l-4,11.4h4.9l-3.9,11.2,10.6-15h-5.2Zm-18,11.4,1.2,1.3h0l5.3,5.1a.57.57,0,1,0,.8-.8l-5.6-5.6a.61.61,0,0,1,0-.8l5.4-5.4a.61.61,0,0,0,.1-.8l-.1-.1a.61.61,0,0,0-.8,0l-5.3,5.1-1.2,1.2A.65.65,0,0,0,528.8,243.4Zm24.1,0a.61.61,0,0,0,0-.8l-1.2-1.2-5.3-5.1a.61.61,0,0,0-.9.8l.1.1,5.6,5.4a.61.61,0,0,1,0,.8l-5.6,5.6a.57.57,0,0,0,.8.8l5.3-5.2h0Z"/><g id="shape1048-276"><path class="cls-29" d="M41.4,190.2H92.2a14,14,0,0,1,13.9,13.9v8.3a14,14,0,0,1-13.9,13.9H41.4a14,14,0,0,1-13.9-13.9v-8.3A14,14,0,0,1,41.4,190.2Z"/></g><g id="shape1051-291"><rect class="cls-17" x="87.8" y="228.3" width="31.8" height="15.5"/><text class="cls-18" transform="translate(97.95 238.29)">Да</text></g><g id="shape1052-295"><rect class="cls-17" x="26.2" y="228.5" width="31.8" height="15.5"/><text class="cls-18" transform="translate(36.64 238.54)">Н<tspan class="cls-28" x="5.58" y="0">е</tspan><tspan x="9.62" y="0">т</tspan></text></g><g id="shape1053-299"><path class="cls-29" d="M334.81,344.9h62.54c9.35,0,17.11,6.3,17.11,13.9v28.5c0,7.6-7.76,13.9-17.11,13.9H334.81c-9.35,0-17.11-6.3-17.11-13.9V358.8C317.7,351.2,325.21,344.9,334.81,344.9Z"/></g><line class="cls-12" x1="368.9" y1="142.3" x2="368.9" y2="157.6"/><polygon class="cls-13" points="366.2 155.8 368.9 165.7 371.6 155.8 366.2 155.8"/><line class="cls-12" x1="368.9" y1="201.8" x2="368.9" y2="217.1"/><polygon class="cls-13" points="366.2 210.4 368.9 220.2 371.6 210.4 366.2 210.4"/><line class="cls-12" x1="368.9" y1="263.96" x2="368.9" y2="277"/><polygon class="cls-13" points="366.2 275.2 368.9 285.1 371.6 275.2 366.2 275.2"/><line class="cls-12" x1="368.9" y1="320.7" x2="368.9" y2="336"/><polygon class="cls-13" points="366.2 334.3 368.9 344.2 371.6 334.3 366.2 334.3"/><g id="shape44-121-2"><rect class="cls-17" x="409.3" y="228.3" width="31.8" height="15.5"/><text class="cls-18" transform="translate(419.46 238.3)">Да</text></g><g id="shape44-121-2-2" data-name="shape44-121-2"><rect class="cls-17" x="366.55" y="204.3" width="31.8" height="15.5"/><text class="cls-18" transform="translate(376.71 214.3)">Да</text></g><g id="shape44-121-2-3" data-name="shape44-121-2"><rect class="cls-17" x="363.55" y="323.05" width="31.8" height="15.5"/><text class="cls-18" transform="translate(373.71 333.05)">Да</text></g><path class="cls-40" d="M556.3,316.3h-27v-27h27ZM538.1,312c.1,0,.2.1.3.1h8.7c.5,0,.6-.3.6-.7v-8.7c0-.9-.1-1-1-1h-8.3c-.5,0-.6.2-.6.6v9.2A2.19,2.19,0,0,1,538.1,312Zm10.2-6.6h.4A3.82,3.82,0,0,0,552,302a3.91,3.91,0,0,0-2.4-4c-.5-.2-.5-.4-.6-.8a4.42,4.42,0,0,0-5.6-3.4,5.33,5.33,0,0,0-2.3,1.6,3.62,3.62,0,0,0-4.1-.1,3.37,3.37,0,0,0-1.5,3.7c-1.8,1.2-2.3,2.7-1.6,4.3a3.11,3.11,0,0,0,3.4,1.9v-3.1c0-.9.2-1.2,1.2-1.2h3.6V299a4.91,4.91,0,0,1-1.1-.1c.7-.9,1.2-1.7,1.9-2.6.6.9,1.2,1.7,1.9,2.6-.5,0-.7.1-1.1.1v1.9h3.6c.8,0,1.1.2,1.1,1.1C548.3,303.2,548.3,304.3,548.3,305.4Z"/><path class="cls-41" d="M548.3,305.4v-3.2c0-.8-.2-1.1-1.1-1.1h-3.6v-1.9c.3,0,.6-.1,1.1-.1-.6-.8-1.2-1.7-1.9-2.6-.6.8-1.2,1.7-1.9,2.6.4,0,.7.1,1.1.1v1.9h-3.6c-.9,0-1.2.2-1.2,1.2v3.1a3,3,0,0,1-3.4-1.9c-.7-1.7-.2-3.2,1.6-4.3a3.52,3.52,0,0,1,1.5-3.7,3.62,3.62,0,0,1,4.1.1,5.33,5.33,0,0,1,2.3-1.6,4.42,4.42,0,0,1,5.6,3.4.87.87,0,0,0,.6.8,3.86,3.86,0,0,1-.9,7.4C548.5,305.4,548.5,305.4,548.3,305.4Z"/><path class="cls-42" d="M538.1,312a1.69,1.69,0,0,1-.2-.5v-9.2c0-.5.2-.6.6-.6h8.3c.9,0,1,.1,1,1v3.1a4.05,4.05,0,0,1-.5-.9c-.1-.4-.1-.8-.2-1.2s-.2-.6-.7-.5c-.2-.1-.3-.2-.5-.2h-6.8a.1.1,0,0,1-.1.1v7.8c-.2.2-.2.3-.4.5A3.81,3.81,0,0,0,538.1,312Z"/><path class="cls-43" d="M546.5,303c.4-.1.6.2.7.5a5,5,0,0,0,.2,1.2,4.05,4.05,0,0,0,.5.9v5.6c0,.4-.1.7-.6.7h-8.7c-.1,0-.2-.1-.3-.1a2.41,2.41,0,0,0,.6-.8c.2-.2.2-.3.4-.5a.9.9,0,0,0,.5.1h6.4a.6.6,0,0,0,.4-.1v-.8C546.5,307.8,546.5,305.4,546.5,303Z"/><path class="cls-44" d="M546.5,303v7.8c-.2,0-.3.1-.4.1h-6.4c-.2,0-.3-.1-.5-.1V303a.1.1,0,0,1,.1-.1h6.8C546.2,302.8,546.3,303,546.5,303Zm-4.4,7.2h1.5v-6.6h-1.5Zm-.7-6.6h-1.5v6.6h.8c.5.1.6-.2.6-.7v-4.7A4.87,4.87,0,0,0,541.4,303.6Zm2.8,0V309c0,1.3,0,1.3,1.3,1.3a.31.31,0,0,0,.2-.1v-6.6Z"/><path class="cls-45" d="M542.1,310.2v-6.6h1.5v6.6Z"/><path class="cls-46" d="M541.4,303.6v5.9c0,.5-.1.8-.6.7H540v-6.6Z"/><path class="cls-47" d="M544.2,303.6h1.5v6.6c-.1,0-.1.1-.2.1-1.3.1-1.3.1-1.3-1.3v-5.4Z"/><line class="cls-12" x1="268.17" y1="65.3" x2="311.83" y2="65.3"/><polygon class="cls-13" points="309.9 68 319.7 65.3 309.9 62.7 309.9 68"/><line class="cls-12" x1="181.35" y1="65.8" x2="131.8" y2="65.8"/><polygon class="cls-13" points="133.6 62.7 123.8 65.4 133.6 68 133.6 62.7"/><line class="cls-48" x1="106.1" y1="124.8" x2="311.83" y2="124.8"/><polygon class="cls-13" points="309.9 127.5 319.7 124.8 309.9 122.2 309.9 127.5"/><line class="cls-12" x1="106.1" y1="83.5" x2="106.1" y2="124.3"/><line class="cls-48" x1="84.9" y1="305.1" x2="310" y2="305.1"/><polygon class="cls-13" points="307.7 307.7 317.5 305 307.7 302.4 307.7 307.7"/><line class="cls-12" x1="84.9" y1="226" x2="84.9" y2="305.1"/><text class="cls-49" transform="translate(55.38 205.9)"><tspan class="cls-50">М</tspan><tspan class="cls-51" x="6.52" y="0">о</tspan><tspan x="10.73" y="0">жно </tspan><tspan class="cls-50" x="-22.28" y="8">к</tspan><tspan x="-18.82" y="8">он</tspan><tspan class="cls-51" x="-10.25" y="8">т</tspan><tspan x="-6.8" y="8">ейнери</tspan><tspan class="cls-51" x="18.99" y="8">з</tspan><tspan x="22.44" y="8">о</tspan><tspan class="cls-31" x="26.74" y="8">в</tspan><tspan class="cls-19" x="30.76" y="8">а</tspan><tspan x="34.89" y="8">ть?</tspan></text><text class="cls-49" transform="translate(55.19 60.43)">Lift-and-shift или <tspan x="-2.14" y="8">оптимизация для </tspan><tspan x="14.24" y="16">о</tspan><tspan class="cls-52" x="18.53" y="16">б</tspan><tspan x="22.61" y="16">ла</tspan><tspan class="cls-32" x="31.42" y="16">к</tspan><tspan x="34.97" y="16">а?</tspan></text><text class="cls-53" transform="translate(187.78 59.73) scale(0.96 1)">Р<tspan class="cls-54" x="4.7" y="0">а</tspan><tspan class="cls-55" x="8.72" y="0">зраб</tspan><tspan class="cls-56" x="24.51" y="0">о</tspan><tspan class="cls-55" x="28.44" y="0">т</tspan><tspan class="cls-57" x="31.79" y="0">к</tspan><tspan class="cls-55" x="35.15" y="0">а с н</tspan><tspan class="cls-56" x="50.9" y="0">у</tspan><tspan class="cls-55" x="54.4" y="0">ля или </tspan><tspan class="cls-55"><tspan x="-0.9" y="8">на </tspan><tspan class="cls-58" x="9.23" y="8">б</tspan><tspan class="cls-59" x="13.28" y="8">аз</tspan><tspan x="20.56" y="8">е су</tspan><tspan class="cls-59" x="33.96" y="8">щ</tspan><tspan x="40.03" y="8">ест</tspan><tspan class="cls-56" x="51.15" y="8">в</tspan><tspan x="54.9" y="8">ующих </tspan><tspan x="20.89" y="16">рес</tspan><tspan class="cls-59" x="32.77" y="16">у</tspan><tspan x="36.35" y="16">р</tspan><tspan class="cls-60" x="40.45" y="16">с</tspan><tspan x="44.21" y="16">ов?</tspan></tspan></text><text class="cls-49" transform="translate(328.3 58.13)">Н<tspan class="cls-50" x="5.58" y="0">у</tspan><tspan x="9.53" y="0">жен п</tspan><tspan class="cls-19" x="29.59" y="0">о</tspan><tspan x="33.72" y="0">лный дос</tspan><tspan class="cls-50" x="67.18" y="0">т</tspan><tspan x="70.8" y="0">уп </tspan><tspan x="5.32" y="8">и/или </tspan><tspan class="cls-51" x="27.07" y="8">во</tspan><tspan x="35.3" y="8">зм</tspan><tspan class="cls-51" x="44.16" y="8">о</tspan><tspan x="48.37" y="8">жность </tspan><tspan x="4.09" y="16">переноса на д</tspan><tspan class="cls-51" x="55.25" y="16">р</tspan><tspan x="59.46" y="16">угие </tspan><tspan x="16.19" y="24">пл</tspan><tspan class="cls-19" x="24.88" y="24">а</tspan><tspan x="29.01" y="24">тформы?</tspan></text><text class="cls-49" transform="translate(344.82 181.63)">А<tspan class="cls-51" x="5.15" y="0">р</tspan><tspan x="9.36" y="0">хи</tspan><tspan class="cls-31" x="17.54" y="0">т</tspan><tspan x="20.99" y="0">е</tspan><tspan class="cls-61" x="25.29" y="0">кт</tspan><tspan class="cls-51" x="32.38" y="0">у</tspan><tspan x="36.16" y="0">ра </tspan><tspan x="-1.57" y="9.27">микросл</tspan><tspan class="cls-50" x="28.4" y="9.27">уж</tspan><tspan x="37.6" y="9.27">б?</tspan></text><text class="cls-49" transform="translate(349.07 295.28)"><tspan class="cls-62">Т</tspan><tspan x="4.29" y="0">р</tspan><tspan class="cls-31" x="8.58" y="0">е</tspan><tspan class="cls-19" x="12.79" y="0">б</tspan><tspan class="cls-51" x="17.05" y="0">у</tspan><tspan class="cls-28" x="20.82" y="0">е</tspan><tspan class="cls-51" x="24.86" y="0">т</tspan><tspan x="28.32" y="0">ся </tspan><tspan x="-18.6" y="9.27">п</tspan><tspan class="cls-19" x="-14.42" y="9.27">о</tspan><tspan x="-10.29" y="9.27">лно</tspan><tspan class="cls-31" x="2.78" y="9.27">ф</tspan><tspan x="9.05" y="9.27">ункциональн</tspan><tspan x="-11.92" y="18.54">ая ор</tspan><tspan class="cls-50" x="7.3" y="18.54">к</tspan><tspan x="10.77" y="18.54">естрация?</tspan></text><text class="cls-63" transform="translate(324.86 231.73)">У<tspan class="cls-24" x="4.33" y="0">пра</tspan><tspan class="cls-64" x="16.41" y="0">в</tspan><tspan class="cls-65" x="20.11" y="0">ляемая </tspan><tspan class="cls-27" x="47.41" y="0">с</tspan><tspan class="cls-65" x="51.13" y="0">обытиями </tspan><tspan class="cls-65"><tspan x="10.37" y="9.27">раб</tspan><tspan class="cls-66" x="22.69" y="9.27">о</tspan><tspan class="cls-24" x="26.59" y="9.27">чая наг</tspan><tspan class="cls-67" x="51" y="9.27">р</tspan><tspan x="54.98" y="9.27">уз</tspan><tspan class="cls-68" x="61.92" y="9.27">к</tspan><tspan x="65.24" y="9.27">а с </tspan><tspan x="9.9" y="18.54">кр</tspan><tspan class="cls-66" x="17.11" y="18.54">а</tspan><tspan x="21.01" y="18.54">т</tspan><tspan class="cls-69" x="24.31" y="18.54">к</tspan><tspan x="27.55" y="18.54">овременными </tspan><tspan x="20.2" y="27.81">про</tspan><tspan class="cls-25" x="32.29" y="27.81">ц</tspan><tspan class="cls-24" x="36.39" y="27.81">ессами?</tspan></tspan></text><text class="cls-70" transform="translate(328.46 361.73)">Т<tspan class="cls-71" x="4.13" y="0">р</tspan><tspan class="cls-72" x="8.27" y="0">е</tspan><tspan class="cls-73" x="12.33" y="0">б</tspan><tspan class="cls-72" x="16.43" y="0">у</tspan><tspan class="cls-74" x="20.05" y="0">е</tspan><tspan class="cls-72" x="23.94" y="0">т</tspan><tspan class="cls-71" x="27.23" y="0">ся ин</tspan><tspan class="cls-75" x="45.24" y="0">т</tspan><tspan class="cls-71" x="48.54" y="0">еграция </tspan><tspan class="cls-76"><tspan x="2.69" y="9.27">.NE</tspan><tspan class="cls-77" x="15.1" y="9.27">T</tspan><tspan x="19.53" y="9.27" xml:space="preserve"> или п</tspan><tspan class="cls-78" x="40.22" y="9.27">о</tspan><tspan class="cls-79" x="44.19" y="9.27">лностью </tspan><tspan x="-7.84" y="18.54">п</tspan><tspan class="cls-73" x="-3.81" y="18.54">о</tspan><tspan x="0.16" y="18.54">ддержи</tspan><tspan class="cls-75" x="26.33" y="18.54">в</tspan><tspan class="cls-71" x="30.19" y="18.54">аемый арсенал </tspan></tspan><tspan class="cls-72"><tspan x="0.69" y="27.81">т</tspan><tspan class="cls-80" x="3.98" y="27.81">е</tspan><tspan class="cls-76" x="7.96" y="27.81">хн</tspan><tspan class="cls-80" x="15.78" y="27.81">о</tspan><tspan class="cls-81" x="19.75" y="27.81">л</tspan><tspan class="cls-76" x="24.19" y="27.81">огий Microsoft?</tspan></tspan></text><text class="cls-82" transform="translate(111.67 108.82)">Оптимизация <tspan x="4.03" y="9.27">для о</tspan><tspan class="cls-52" x="23.68" y="9.27">б</tspan><tspan x="27.75" y="9.27">ла</tspan><tspan class="cls-32" x="36.56" y="9.27">к</tspan><tspan x="40.11" y="9.27">а</tspan></text><text class="cls-83" transform="translate(476.77 176.73)">С<tspan class="cls-84" x="5.78" y="0">л</tspan><tspan class="cls-37" x="10.75" y="0">у</tspan><tspan x="15.3" y="0">жба </tspan><tspan x="-11.58" y="9.6">при</tspan><tspan class="cls-84" x="3.06" y="9.6">лож</tspan><tspan x="18.38" y="9.6">ений / </tspan><tspan x="6.96" y="19.2">ASE</tspan></text><text class="cls-83" transform="translate(466.75 299.7)">Эк<tspan class="cls-84" x="9.7" y="0">зе</tspan><tspan x="17.91" y="0">мпляры </tspan><tspan class="cls-84" x="-0.37" y="9.6">к</tspan><tspan x="3.53" y="9.6">онтейнеров</tspan></text><text class="cls-83" transform="translate(476.37 416.73)">С<tspan class="cls-84" x="5.78" y="0">л</tspan><tspan class="cls-37" x="10.75" y="0">у</tspan><tspan x="15.3" y="0">жба </tspan><tspan class="cls-84" x="-10.26" y="9.6">к</tspan><tspan x="-6.36" y="9.6">онтейнеров </tspan><tspan x="-8.15" y="19.2">Azure (AKS)</tspan></text></svg>