<?xml version="1.0" encoding="utf-8"?>
<!-- Generator: Adobe Illustrator 22.1.0, SVG Export Plug-In . SVG Version: 6.00 Build 0)  -->
<svg version="1.1" id="Layer_1" xmlns="http://www.w3.org/2000/svg" xmlns:xlink="http://www.w3.org/1999/xlink" x="0px" y="0px"
	 viewBox="0 0 608.9 441.3" style="enable-background:new 0 0 608.9 441.3;" xml:space="preserve">
<style type="text/css">
	.st0{fill:none;stroke:#0070C0;stroke-width:2;stroke-miterlimit:10;}
	.st1{fill:#0070C0;}
	.st2{fill:#3CA0F0;}
	.st3{enable-background:new    ;}
	.st4{fill:#FFFFFF;}
	.st5{font-family:'Arial-BoldMT';}
	.st6{font-size:7.5px;}
	.st7{font-size:8.4988px;}
	.st8{fill:none;}
	.st9{fill:#3F3F3F;}
	.st10{font-family:'ArialMT';}
	.st11{font-size:7.7262px;}
	.st12{fill:#F2F2F2;stroke:#7F7F7F;stroke-width:0.75;stroke-linecap:round;stroke-linejoin:round;}
	.st13{fill:#FFFFFF;stroke:#000000;stroke-width:0.5;stroke-linecap:round;stroke-linejoin:round;}
	.st14{fill:#DBEEF3;stroke:#7F7F7F;stroke-width:0.75;stroke-linecap:round;stroke-linejoin:round;}
	.st15{fill:#0078D7;}
	.st16{fill:#FFFFFF;stroke:#FFFFFF;stroke-width:1.55;stroke-miterlimit:3;}
	.st17{fill:#006FD4;}
	.st18{fill:#FFFFFF;stroke:#FFFFFF;stroke-width:1.5;stroke-miterlimit:3;}
	.st19{fill:#0089CF;}
	.st20{fill:#FCFDFE;}
	.st21{fill:#FDFCFD;}
	.st22{fill:#F5F4F8;}
	.st23{fill:#058BD0;}
	.st24{fill:#EAF2F8;}
	.st25{fill:#F5F7FA;}
	.st26{fill:#F3F5F9;}
	.st27{fill:none;stroke:#0070C0;stroke-width:2;stroke-linecap:square;stroke-miterlimit:10;}
</style>
<g>
	<line class="st0" x1="407" y1="86" x2="407" y2="98"/>
	<polygon class="st1" points="404.9,96.6 407,104.3 409.1,96.6 	"/>
</g>
<line class="st0" x1="442.4" y1="65.1" x2="498.2" y2="65.1"/>
<polygon class="st1" points="496.4,67.8 506.2,65.1 496.4,62.5 "/>
<line class="st0" x1="442.4" y1="124.7" x2="498.2" y2="124.7"/>
<polygon class="st1" points="496.4,127.4 506.2,124.7 496.4,122.1 "/>
<line class="st0" x1="442.4" y1="186.2" x2="498.2" y2="186.2"/>
<polygon class="st1" points="496.4,188.8 506.2,186.2 496.4,183.5 "/>
<line class="st0" x1="442.2" y1="244.2" x2="498" y2="244.2"/>
<polygon class="st1" points="496.1,246.8 506,244.2 496.1,241.6 "/>
<line class="st0" x1="442.4" y1="305" x2="498.2" y2="305"/>
<polygon class="st1" points="496.4,307.7 506.2,305 496.4,302.4 "/>
<line class="st0" x1="439.6" y1="366.6" x2="498.2" y2="366.6"/>
<polygon class="st1" points="496.4,369.3 506.2,366.6 496.4,363.9 "/>
<line class="st0" x1="439.6" y1="366.6" x2="500" y2="417.3"/>
<polygon class="st1" points="496.9,418.1 506.2,422.4 500.3,414 "/>
<line class="st0" x1="71.8" y1="84" x2="71.8" y2="183.6"/>
<polygon class="st1" points="69.2,181.8 71.8,191.6 74.4,181.8 "/>
<line class="st0" x1="55" y1="226.4" x2="55" y2="330.4"/>
<polygon class="st1" points="52.4,328.7 55,338.5 57.6,328.7 "/>
<rect x="506.2" y="47" class="st2" width="68.7" height="36.2"/>
<text transform="matrix(1 0 0 1 532.7927 58.65)" class="st3"><tspan x="0" y="0" class="st4 st5 st6">ВМ /  </tspan><tspan x="-23.4" y="9" class="st4 st5 st6">масштабируемый </tspan><tspan x="-8.8" y="18" class="st4 st5 st6">набор ВМ</tspan></text>
<g id="shape16-7">
	<rect x="35" y="337.9" class="st2" width="83.3" height="36.2"/>
	<text transform="matrix(1 0 0 1 39.6555 348.5291)" class="st3"><tspan x="0" y="0" class="st4 st5 st7">ВМ /  </tspan><tspan x="0" y="10.2" class="st4 st5 st7">масштабируемый  </tspan><tspan x="0" y="20.4" class="st4 st5 st7">набор ВМ</tspan></text>
</g>
<g id="shape17-11">
	<rect x="506.2" y="106.7" class="st2" width="68.7" height="36.2"/>
</g>
<rect x="506.2" y="226.1" class="st2" width="68.7" height="36.2"/>
<rect x="506.2" y="285.1" class="st2" width="68.7" height="36.2"/>
<rect x="506.2" y="166.2" class="st2" width="68.7" height="36.2"/>
<g id="shape40-104">
	<rect x="133.3" y="65.9" class="st8" width="52.7" height="15.5"/>
	<text transform="matrix(1 0 0 1 145.1321 75.9984)" class="st3"><tspan x="0" y="0" class="st9 st10 st11">На базе  </tspan><tspan x="-12.7" y="9.3" class="st9 st10 st11">существующих  </tspan><tspan x="-1.1" y="18.5" class="st9 st10 st11">ресурсов</tspan></text>
</g>
<g id="shape41-108">
	<rect x="19.2" y="101.4" class="st8" width="52.7" height="15.5"/>
	<text transform="matrix(1 0 0 1 19.373 111.4569)" class="st9 st10 st11">Lift-and-shift</text>
</g>
<g id="shape52-149">
	<rect x="463.3" y="289.5" class="st8" width="31.8" height="15.5"/>
	<text transform="matrix(1 0 0 1 474.099 299.5723)" class="st9 st10 st11">Нет</text>
</g>
<g id="shape53-153">
	<rect x="473.8" y="389.9" class="st8" width="31.8" height="15.5"/>
	<text transform="matrix(1 0 0 1 484.5736 399.9258)" class="st9 st10 st11">Нет</text>
</g>
<g id="shape1-167">
	<path class="st12" d="M201,47.7h85c7.6,0,13.9,6.3,13.9,13.9v8.3c0,7.6-6.3,13.9-13.9,13.9h-85c-7.6,0-13.9-6.3-13.9-13.9v-8.3
		C187,53.9,193.3,47.7,201,47.7z"/>
	<text transform="matrix(1 0 0 1 198.6722 63.0427)" class="st3"><tspan x="0" y="0" class="st10 st11">Разработка с нуля или на  </tspan><tspan x="-8.5" y="9.3" class="st10 st11">базе существующих ресурсов?</tspan></text>
</g>
<path class="st12" d="M372.4,104.8h68.5c10.2,0,18.7,7,18.7,15.4v9.2c0,8.4-8.5,15.4-18.7,15.4h-68.5c-10.2,0-18.7-7-18.7-15.4v-9.2
	C353.6,111.7,362.1,104.8,372.4,104.8z"/>
<text transform="matrix(1 0 0 1 390.5878 123.0244)" class="st3"><tspan x="0" y="0" class="st10 st11">Рабочая  </tspan><tspan x="-10.3" y="8" class="st10 st11">нагрузка HPC?</tspan></text>
<g id="shape3-176">
	<path class="st12" d="M372.4,164.3h68.5c10.2,0,18.7,7,18.7,15.4v9.2c0,8.4-8.5,15.4-18.7,15.4h-68.5c-10.2,0-18.7-7-18.7-15.4
		v-9.2C353.6,171,362.1,164.3,372.4,164.3z"/>
</g>
<g id="shape4-181">
	<path class="st12" d="M372.4,223.7h68.5c10.2,0,18.7,7,18.7,15.4v9.2c0,8.4-8.5,15.4-18.7,15.4h-68.5c-10.2,0-18.7-7-18.7-15.4
		v-9.2C353.6,230.6,362.1,223.7,372.4,223.7z"/>
</g>
<g id="shape5-187">
	<path class="st12" d="M59.5,47.9h50.8c7.6,0,13.9,6.3,13.9,13.9v8.3c0,7.6-6.3,13.9-13.9,13.9H59.5c-7.6,0-13.9-6.3-13.9-13.9v-8.3
		C45.6,54.2,51.8,47.9,59.5,47.9z"/>
</g>
<g id="shape6-192">
	<path class="st12" d="M372.4,43h68.5c10.2,0,18.7,7.5,18.7,16.5v9.8c0,9-8.5,16.5-18.7,16.5h-68.5c-10.2,0-18.7-7.5-18.7-16.5v-9.8
		C353.6,50.5,362.1,43,372.4,43z"/>
</g>
<g id="shape15-198">
	<path class="st12" d="M372.4,282.8h68.5c10.2,0,18.7,7.1,18.7,15.7v9.4c0,8.6-8.5,15.7-18.7,15.7h-68.5c-10.2,0-18.7-7.1-18.7-15.7
		v-9.4C353.6,289.7,362.1,282.8,372.4,282.8z"/>
</g>
<rect x="443.8" y="48.6" class="st8" width="31.8" height="15.5"/>
<text transform="matrix(1 0 0 1 473.7504 58.6701)" class="st9 st10 st11">Да</text>
<text transform="matrix(1 0 0 1 473.7504 117.8752)" class="st9 st10 st11">Да</text>
<text transform="matrix(1 0 0 1 414.7422 214.5617)" class="st9 st10 st11">Да</text>
<text transform="matrix(1 0 0 1 89.6589 238.8503)" class="st9 st10 st11">Да</text>
<text transform="matrix(1 0 0 1 473.7501 361.3668)" class="st9 st10 st11">Да</text>
<text transform="matrix(1 0 0 1 473.4579 238.8501)" class="st9 st10 st11">Да</text>
<g id="shape56-207">
	<rect x="463.3" y="170.7" class="st8" width="31.8" height="15.5"/>
	<text transform="matrix(1 0 0 1 474.099 180.7057)" class="st9 st10 st11">Нет</text>
</g>
<g id="shape1002-211">
	<path class="st13" d="M243.5,47.6l-9.3-9.3h4.6V12.8h9.3v25.5h4.6L243.5,47.6z"/>
</g>
<path class="st14" d="M231.1,0.4H256c7.6,0,13.9,6.3,13.9,13.9v2.8c0,7.6-6.3,13.9-13.9,13.9h-24.9c-7.6,0-13.9-6.3-13.9-13.9v-2.8
	C217.2,6.6,223.4,0.4,231.1,0.4z"/>
<text transform="matrix(1 0 0 1 227.3918 17.8748)" class="st10 st11">НАЧАЛО</text>
<g id="shape1013-217">
	<path class="st15" d="M18.2,356L18.2,356l3.9-2.2c0.1,0,0.1-0.1,0.1-0.1c0-0.1,0-0.1-0.1-0.1l-3.9-2.2c0,0-0.1,0-0.2,0l-3.9,2.2
		l-0.1,0.1c0,0.1,0,0.1,0.1,0.1L18.2,356L18.2,356z M17.6,361.4L17.6,361.4C17.7,361.4,17.7,361.4,17.6,361.4l0.1-4.6
		c0-0.1,0-0.1-0.1-0.1l-3.9-2.2h-0.1l-0.1,0.1v4.5c0,0.1,0,0.1,0.1,0.1L17.6,361.4L17.6,361.4z M18.7,361.4L18.7,361.4l3.9-2.2
		c0.1,0,0.1-0.1,0.1-0.1v-4.5c0-0.1,0-0.1-0.1-0.1h-0.1l-3.9,2.2c-0.1,0-0.1,0.1-0.1,0.1L18.7,361.4
		C18.6,361.4,18.6,361.4,18.7,361.4L18.7,361.4z M17.1,348.4l-2.4-1.4h-0.1l-2.4,1.4H8c-0.7,0-1.2,0.6-1.2,1.2v8.8H5.1v-12.7h18.7
		v2.7H17.1z M21,364.5h6.4c0.7,0,1.2-0.5,1.3-1.2v-13.6c-0.1-0.7-0.6-1.2-1.3-1.2h-2v-3.1c-0.1-0.7-0.6-1.2-1.3-1.2h-2.2v-3.1
		c-0.1-0.7-0.6-1.2-1.3-1.2H1.2c-0.7,0-1.2,0.6-1.2,1.2v13.6c0,0.7,0.5,1.2,1.2,1.2h2.2v3.1c0,0.7,0.5,1.2,1.2,1.2h2.1v3.1
		c0,0.7,0.5,1.2,1.2,1.2H15c0.7,2.5-0.2,2.9-4.5,2.9v1.4h14.4v-1.3C20.8,367.4,20.3,367,21,364.5z M27.3,362.8H8.6v-12.7h18.7
		L27.3,362.8z M13.6,344.1l-2.3-1.4h-0.1l-2.4,1.4H4.6c-0.7,0-1.2,0.5-1.2,1.2v8.8H1.6v-12.7h18.7v2.7H13.6z"/>
</g>
<g id="shape1014-219">
	<path class="st15" d="M598.3,67L598.3,67l3.9-2.2l0.1-0.1c0-0.1,0-0.1-0.1-0.1l-3.9-2.2h-0.1l-3.9,2.2l-0.1,0.1
		c0,0.1,0,0.1,0.1,0.1L598.3,67C598.2,67,598.2,67,598.3,67z M597.7,72.4L597.7,72.4C597.8,72.4,597.8,72.3,597.7,72.4l0.1-4.6
		c0-0.1,0-0.1-0.1-0.1l-3.9-2.2c0,0-0.1,0-0.2,0l-0.1,0.1v4.5c0,0.1,0,0.1,0.1,0.1L597.7,72.4L597.7,72.4z M598.9,72.4L598.9,72.4
		l3.9-2.2c0.1,0,0.1-0.1,0.1-0.1v-4.5c0-0.1,0-0.1-0.1-0.1c0,0-0.1,0-0.2,0l-3.9,2.2l-0.1,0.1v4.5C598.7,72.3,598.7,72.4,598.9,72.4
		L598.9,72.4z M597.2,59.3l-2.4-1.4h-0.1l-2.3,1.4h-4.2c-0.7,0-1.2,0.6-1.2,1.2v8.8h-1.6V56.6h18.5v2.7H597.2z M601.2,75.4h6.4
		c0.7,0,1.2-0.5,1.3-1.2V60.7c-0.1-0.7-0.6-1.2-1.3-1.2h-2v-3.2c-0.1-0.7-0.6-1.2-1.3-1.2h-2.2V52c-0.1-0.7-0.6-1.2-1.3-1.2h-19.5
		c-0.7,0-1.2,0.6-1.2,1.2v13.6c0,0.7,0.5,1.2,1.2,1.2h2.2v3.1c0,0.7,0.5,1.2,1.2,1.2h2.2v3.1c0,0.7,0.5,1.2,1.2,1.2h7.1
		c0.7,2.5-0.2,2.9-4.5,2.9v1.3h14.4v-1.3C600.9,78.3,600.4,77.9,601.2,75.4L601.2,75.4z M607.4,73.7h-18.7V61h18.7V73.7z M593.8,55
		l-2.3-1.4h-0.1l-2.3,1.4h-4.2c-0.7,0-1.2,0.5-1.2,1.2V65h-1.8V52.3h18.7v2.6L593.8,55L593.8,55z"/>
</g>
<g id="group1015-221">
	<g id="shape1016-222">
		<path class="st16" d="M597.1,125.7c-0.1-0.5-0.5-0.9-1-1h-11.8c-0.4,0-0.7,0.6-0.7,1v11.8c0,0.3,0.2,0.6,0.6,0.7h0.1h12
			c0.4,0,0.9-0.4,0.9-0.7L597.1,125.7L597.1,125.7z"/>
	</g>
	<g id="shape1017-224">
		<path class="st16" d="M605.5,128.2c0-0.2-0.2-0.3-0.4-0.4h-6c-0.2,0-0.3,0.2-0.4,0.4v6c0,0.2,0.2,0.3,0.4,0.4h6
			c0.2,0,0.3-0.2,0.4-0.4V128.2z"/>
	</g>
	<g id="shape1018-226">
		<path class="st16" d="M603.2,123.7c0,0,0.6-4.6-3.6-5.5h-0.9c-0.2,0-0.5,0.1-0.8,0.2v1.9c0,0,0.2-0.2,0.8-0.2c0.3,0,0.5,0,0.8,0.1
			c1,0.4,2,1,1.8,3.6h-1.8l2.9,3.6l2.8-3.6L603.2,123.7L603.2,123.7z"/>
	</g>
	<g id="shape1019-228">
		<path class="st16" d="M606.9,129.6h-0.6v5.9h-5.9v0.5c0,0.2,0.2,0.3,0.4,0.4h6c0.2,0,0.3-0.2,0.4-0.4v-6
			C607.2,129.8,607.1,129.7,606.9,129.6L606.9,129.6z"/>
	</g>
	<g id="shape1020-230">
		<path class="st16" d="M590,131.3h-0.5v5.9h-5.9v0.5c0,0.2,0.2,0.3,0.4,0.4h6c0.2,0,0.3-0.2,0.4-0.4v-6
			C590.4,131.5,590.2,131.3,590,131.3z"/>
	</g>
	<g id="group1021-232">
		<g id="group1022-233">
			<g id="shape1023-234">
				<rect x="586" y="117.9" class="st17" width="8.5" height="1.7"/>
			</g>
			<g id="shape1024-236">
				<rect x="586" y="120.3" class="st17" width="8.5" height="1.7"/>
			</g>
			<g id="shape1025-238">
				<rect x="586" y="122.9" class="st17" width="8.5" height="1.7"/>
			</g>
		</g>
		<g id="group1026-240">
			<g id="shape1027-241">
				<path class="st17" d="M597.1,125.7c-0.1-0.5-0.5-0.9-1-1h-11.8c-0.4,0-0.7,0.6-0.7,1v11.8c0,0.3,0.2,0.6,0.6,0.7h0.1h12
					c0.4,0,0.9-0.4,0.9-0.7L597.1,125.7L597.1,125.7z M595.3,136.5h-10.1V128h10.1V136.5z"/>
			</g>
			<g id="shape1028-243">
				<path class="st17" d="M605.5,128.3c0-0.2-0.2-0.3-0.4-0.4h-6c-0.2,0-0.3,0.2-0.4,0.4v6c0,0.2,0.2,0.3,0.4,0.4h6
					c0.2,0,0.4-0.2,0.4-0.4V128.3z M604.6,133.9h-5.1v-4.2h5.1V133.9z"/>
			</g>
			<g id="shape1029-245">
				<rect x="600.4" y="130.5" class="st17" width="3.4" height="0.8"/>
			</g>
			<g id="shape1030-247">
				<path class="st17" d="M603.2,123.7c0,0,0.6-4.6-3.6-5.5h-0.9c-0.2,0-0.5,0.1-0.8,0.2v1.9c0,0,0.2-0.2,0.8-0.2
					c0.3,0,0.5,0,0.8,0.1c1,0.4,2,1,1.8,3.6h-1.8l2.9,3.6l2.8-3.6L603.2,123.7z"/>
			</g>
			<g id="shape1031-249">
				<path class="st17" d="M606.9,129.7h-0.6v5.9h-5.9v0.5c0,0.2,0.2,0.3,0.4,0.4h6c0.2,0,0.3-0.2,0.4-0.4v-6
					C607.2,129.9,607.1,129.8,606.9,129.7L606.9,129.7z"/>
			</g>
			<g id="shape1032-251">
				<path class="st17" d="M608.5,131.3H608v5.9h-5.9v0.5c0,0.2,0.2,0.3,0.4,0.4h6c0.2,0,0.3-0.2,0.4-0.4v-6
					C608.9,131.5,608.7,131.4,608.5,131.3C608.6,131.3,608.6,131.3,608.5,131.3z"/>
			</g>
		</g>
	</g>
</g>
<g id="group1033-254">
	<g id="group1034-255">
		<g id="shape1036-257">
			<path class="st18" d="M605,182.7v-9.9h-20.9v21h21L605,182.7L605,182.7z"/>
		</g>
	</g>
	<g id="group1037-259">
		<g id="shape1038-260">
			<path class="st15" d="M592.4,192.4h-7v-7h1.4c-0.2-0.5-0.2-0.9-0.2-1.4v-0.1h-2.7v9.8h9.9v-5.8h-1.5L592.4,192.4z"/>
		</g>
		<g id="shape1039-262">
			<path class="st15" d="M602.3,185.4h1.3v7h-7V188h-1.5v5.9h9.9v-9.8h-3.1C602.2,184.4,602.3,184.9,602.3,185.4L602.3,185.4z"/>
		</g>
		<g id="shape1040-264">
			<path class="st15" d="M585.4,181.3v-7h7v4c0.5-0.3,0.9-0.5,1.5-0.7v-4.8H584v9.9h2.9c0.2-0.5,0.5-1,0.9-1.5h-2.4V181.3z"/>
		</g>
		<g id="shape1041-266">
			<path class="st15" d="M596.5,177.6v-3.3h7v7h-3c0.2,0.5,0.2,0.9,0.2,1.4v0.1h4.3v-9.9h-10v4.6h0.4
				C595.8,177.4,596.2,177.5,596.5,177.6z"/>
		</g>
	</g>
	<g id="shape1042-268">
		<path class="st15" d="M601.1,185.3c0-0.8-0.7-1.5-1.5-1.5h-0.2c0.1-0.4,0.2-0.8,0.2-1.2c0-2.3-1.8-4.2-4.1-4.2
			c-1.9,0-3.5,1.2-4,2.9c-0.3-0.1-0.6-0.2-0.9-0.2c-1.5,0-2.8,1.2-2.8,2.8c0,0,0,0,0,0.1c0,1.5,1.2,2.9,2.8,2.9h9.2
			C600.6,186.8,601.2,186.1,601.1,185.3z"/>
	</g>
</g>
<path class="st15" d="M596.8,232.4h-7.5l-4,11.4h4.9l-3.9,11.2l10.6-15h-5.2L596.8,232.4z M578.8,243.8l1.2,1.3l0,0l5.3,5.1
	c0.2,0.2,0.6,0.2,0.8,0s0.2-0.6,0-0.8l-5.6-5.6c-0.2-0.2-0.2-0.6,0-0.8l5.4-5.4c0.2-0.2,0.3-0.5,0.1-0.8l-0.1-0.1
	c-0.2-0.2-0.6-0.2-0.8,0l-5.3,5.1l-1.2,1.2C578.5,243.2,578.5,243.6,578.8,243.8z M602.9,243.8c0.2-0.2,0.2-0.6,0-0.8l-1.2-1.2
	l-5.3-5.1c-0.2-0.2-0.6-0.2-0.8,0s-0.3,0.5-0.1,0.8l0.1,0.1l5.6,5.4c0.2,0.2,0.2,0.6,0,0.8l-5.6,5.6c-0.2,0.2-0.2,0.6,0,0.8
	s0.6,0.2,0.8,0l5.3-5.2l0,0L602.9,243.8z"/>
<path class="st12" d="M41.4,190.6h50.8c7.6,0,13.9,6.3,13.9,13.9v8.3c0,7.6-6.3,13.9-13.9,13.9H41.4c-7.6,0-13.9-6.3-13.9-13.9v-8.3
	C27.5,196.9,33.8,190.6,41.4,190.6z"/>
<g id="shape1052-295">
	<rect x="26.2" y="228.9" class="st8" width="31.8" height="15.5"/>
	<text transform="matrix(1 0 0 1 37.0483 238.9404)" class="st9 st10 st11">Нет</text>
</g>
<path class="st12" d="M372.3,342.1h68.6c10.3,0,18.8,6,18.8,13.2v27.1c0,7.2-8.5,13.2-18.8,13.2h-68.6c-10.3,0-18.8-6-18.8-13.2
	v-27.1C353.5,348.1,361.7,342.1,372.3,342.1z"/>
<rect x="506.2" y="405.1" class="st2" width="68.7" height="36.2"/>
<g id="shape1044-313">
	<path class="st15" d="M603.3,420v6.3l3.9-1.5v-3.4L603.3,420z M601.8,425.4l-0.2-0.1V421l0.2-0.1l0.2-0.1l0.3-0.1v4.8l-0.3-0.1
		L601.8,425.4z M600.9,425.2l-0.2-0.1v-3.8l0.6-0.2v4.2l-0.2-0.1H600.9z M600.1,424.9l-0.2-0.1v-3.4l0.5-0.2v3.7H600.1z M599.8,421
		v4.1l2.9,1.2V420L599.8,421z M598.6,413.8v6.3l3.9-1.5v-3.4L598.6,413.8z M598.6,426.3v6.3l3.9-1.5v-3.4L598.6,426.3z M597.1,419.2
		l-0.2-0.1v-4.3l0.2-0.1l0.2-0.1l0.3-0.1v4.9l-0.3-0.1L597.1,419.2z M596.2,418.9l-0.2-0.1v-3.9l0.6-0.2v4.2l-0.2-0.1L596.2,418.9z
		 M595.4,418.6l-0.2-0.1v-3.4l0.5-0.2v3.7H595.4z M595.1,414.8v4.1l2.9,1.2v-6.2L595.1,414.8z M597.1,431.8l-0.2-0.1v-4.3l0.2-0.1
		l0.2-0.1l0.3-0.1v4.9l-0.3-0.1L597.1,431.8z M596.2,431.5l-0.2-0.1v-3.8l0.6-0.2v4.2l-0.2-0.1H596.2z M595.4,431.2l-0.2-0.1v-3.4
		l0.5-0.2v3.7H595.4z M595.1,427.5v4.1l2.9,1.2v-6.3L595.1,427.5z M594.4,420.1v6.3l3.9-1.5v-3.4L594.4,420.1z M592.8,425.5
		l-0.2-0.1V421l0.2-0.1l0.2-0.1l0.3-0.1v4.8l-0.3-0.1L592.8,425.5z M591.9,425.2l-0.2-0.1v-3.8l0.6-0.2v4.2l-0.2-0.1H591.9z
		 M591.1,425l-0.2-0.1v-3.4l0.5-0.2v3.7H591.1z M590.8,421.1v4.1l2.9,1.2v-6.3L590.8,421.1z M589.5,413.8v6.3l3.9-1.5v-3.4
		L589.5,413.8z M589.5,426.4v6.3l3.9-1.5v-3.4L589.5,426.4z M588,419.2l-0.2-0.1v-4.3l0.2-0.1l0.2-0.1l0.3-0.1v4.9l-0.3-0.1
		L588,419.2z M587,418.9l-0.2-0.1v-3.9l0.6-0.2v4.2l-0.2-0.1L587,418.9z M586.3,418.7l-0.2-0.1v-3.4l0.5-0.2v3.7H586.3z M586,414.9
		v4.1l2.9,1.2v-6.3L586,414.9z M588,431.8l-0.2-0.1v-4.3l0.2-0.1l0.2-0.1l0.3-0.1v4.9l-0.3-0.1L588,431.8z M587,431.5l-0.2-0.1v-3.8
		l0.6-0.2v4.2l-0.2-0.1H587z M586.3,431.2l-0.2-0.1v-3.4l0.5-0.2v3.7H586.3z M586,427.5v4.1l2.9,1.2v-6.3L586,427.5z M585.3,420.1
		v6.3l3.9-1.5v-3.4L585.3,420.1z M583.7,425.5l-0.2-0.1V421l0.2-0.1l0.2-0.1l0.3-0.1v4.8l-0.3-0.1h-0.2V425.5z M582.8,425.2
		l-0.2-0.1v-3.8l0.6-0.2v4.2l-0.2-0.1H582.8z M582,425l-0.2-0.1v-3.4l0.5-0.2v3.7H582z M581.7,421.1v4.1l2.9,1.2v-6.3L581.7,421.1z"
		/>
</g>
<rect x="506.2" y="348.1" class="st2" width="68.7" height="36.2"/>
<g id="group1045-320">
	<g id="shape1046-321">
		<path class="st18" d="M588.1,362.7c-0.1-0.2-0.1-0.3-0.2-0.4l2.3-1.9c0.2,0.2,0.3,0.3,0.5,0.4L588.1,362.7z M594.5,374.9
			c0.8,1.9,2.9,2.7,4.7,2c1.9-0.8,2.7-2.9,2-4.7c-0.2-0.5-0.6-1.1-1.1-1.4l1-3.4c1.9-0.3,3.3-2.2,3-4.2c-0.3-1.9-2.2-3.3-4.2-3
			c-0.5,0.1-1,0.2-1.4,0.5l-2.5-2.1c0.1-0.3,0.2-0.7,0.2-1.1c0.1-2-1.5-3.7-3.5-3.8c-2-0.1-3.7,1.5-3.8,3.5c0,0.1,0,0.2,0,0.3
			c0,0.4,0.1,0.7,0.2,1.1l-2.7,2.2c-0.5-0.2-1.2-0.4-1.8-0.4c-2,0-3.6,1.2-3.6,3.2c0,1.8,1.2,3.2,3,3.6l1,3.5
			c-1.5,1.3-1.6,3.6-0.3,5.1s3.6,1.6,5.1,0.3c0.5-0.4,0.8-0.8,1-1.4L594.5,374.9L594.5,374.9L594.5,374.9z M594.8,360.6
			c0.1-0.1,0.2-0.2,0.2-0.2l2.3,1.9l-0.1,0.2L594.8,360.6z"/>
	</g>
	<g id="shape1047-323">
		<path class="st15" d="M604.2,363.8c0-2-1.6-3.6-3.6-3.6c-0.7,0-1.4,0.2-2,0.6l-2.5-2.1c0.1-0.3,0.2-0.7,0.2-1.1
			c0.1-2-1.5-3.7-3.5-3.8c-2-0.1-3.7,1.5-3.8,3.5c0,0.1,0,0.2,0,0.3c0,0.4,0.1,0.7,0.2,1.1l-2.7,2.2c-0.5-0.2-1.2-0.4-1.8-0.4
			c-2,0-3.6,1.2-3.6,3.2c0,1.8,1.2,3.2,3,3.6l1,3.5c-1.5,1.3-1.6,3.6-0.3,5.1s3.6,1.6,5.1,0.3c0.5-0.4,0.8-0.9,1-1.5h3.7
			c0.7,1.9,2.8,2.8,4.6,2.1c1.9-0.7,2.8-2.8,2.1-4.6c-0.2-0.6-0.6-1.2-1.1-1.5l1-3.4C602.9,367.1,604.2,365.6,604.2,363.8z
			 M597.9,370c-1.7,0-3.2,1.2-3.6,2.9h-3.4c-0.4-1.7-1.9-2.9-3.6-2.9c-0.2,0-0.4,0-0.5,0.1l-0.8-2.9c1.4-0.5,2.2-1.9,2.2-3.3
			c0-0.5-0.1-1-0.4-1.5l2.3-1.9c1.3,1.2,3.4,1.2,4.7,0l2.3,1.9c-0.8,1.9,0,3.9,1.8,4.8c0,0,0,0,0.1,0l-0.8,2.9
			C598.2,370,598,370,597.9,370z"/>
	</g>
</g>
<g>
	<g>
		<path class="st19" d="M606.3,316.7c-9,0-17.9,0-27,0c0-9,0-17.9,0-27c9,0,17.9,0,27,0C606.3,298.7,606.3,307.7,606.3,316.7z
			 M588.1,312.4c0.1,0,0.2,0.1,0.3,0.1c2.9,0,5.8,0,8.7,0c0.5,0,0.6-0.3,0.6-0.7c0-1.9,0-3.8,0-5.6c0-1,0-2.1,0-3.1c0-0.9-0.1-1-1-1
			c-2.8,0-5.5,0-8.3,0c-0.5,0-0.6,0.2-0.6,0.6c0,3.1,0,6.1,0,9.2C587.9,312,588,312.2,588.1,312.4z M598.3,305.8c0.2,0,0.3,0,0.4,0
			c1.9-0.3,3.1-1.7,3.3-3.4c0.2-1.6-0.8-3.4-2.4-4c-0.5-0.2-0.5-0.4-0.6-0.8c-0.5-2.8-3.6-4.2-5.6-3.4c-0.9,0.4-1.7,0.8-2.3,1.6
			c-1.4-0.8-2.7-1-4.1-0.1c-1.3,0.8-1.8,2.2-1.5,3.7c-1.8,1.2-2.3,2.7-1.6,4.3c0.6,1.4,2.1,2.2,3.4,1.9c0-1,0-2.1,0-3.1
			c0-0.9,0.2-1.2,1.2-1.2c1.2,0,2.4,0,3.6,0c0-0.7,0-1.3,0-1.9c-0.3,0-0.6,0-1.1-0.1c0.7-0.9,1.2-1.7,1.9-2.6
			c0.6,0.9,1.2,1.7,1.9,2.6c-0.5,0-0.7,0.1-1.1,0.1c0,0.6,0,1.2,0,1.9c1.2,0,2.4,0,3.6,0c0.8,0,1.1,0.2,1.1,1.1
			C598.3,303.6,598.3,304.7,598.3,305.8z"/>
		<path class="st20" d="M598.3,305.8c0-1.1,0-2.2,0-3.2c0-0.8-0.2-1.1-1.1-1.1c-1.2,0-2.4,0-3.6,0c0-0.6,0-1.2,0-1.9
			c0.3,0,0.6-0.1,1.1-0.1c-0.6-0.8-1.2-1.7-1.9-2.6c-0.6,0.8-1.2,1.7-1.9,2.6c0.4,0,0.7,0.1,1.1,0.1c0,0.6,0,1.2,0,1.9
			c-1.2,0-2.4,0-3.6,0c-0.9,0-1.2,0.2-1.2,1.2s0,2.1,0,3.1c-1.3,0.3-2.9-0.5-3.4-1.9c-0.7-1.7-0.2-3.2,1.6-4.3
			c-0.2-1.5,0.2-2.9,1.5-3.7c1.3-0.8,2.7-0.8,4.1,0.1c0.6-0.8,1.4-1.2,2.3-1.6c2-0.8,5.1,0.6,5.6,3.4c0.1,0.5,0.2,0.6,0.6,0.8
			c1.6,0.6,2.7,2.4,2.4,4c-0.2,1.7-1.4,3.1-3.3,3.4C598.5,305.8,598.5,305.8,598.3,305.8z"/>
		<path class="st21" d="M588.1,312.4c-0.1-0.2-0.2-0.4-0.2-0.5c0-3.1,0-6.1,0-9.2c0-0.5,0.2-0.6,0.6-0.6c2.8,0,5.5,0,8.3,0
			c0.9,0,1,0.1,1,1c0,1,0,2.1,0,3.1c-0.2-0.3-0.4-0.6-0.5-0.9c-0.1-0.4-0.1-0.8-0.2-1.2c-0.1-0.4-0.2-0.6-0.7-0.5
			c-0.2-0.1-0.3-0.2-0.5-0.2c-2.2,0-4.6,0-6.8,0c0,0,0,0.1-0.1,0.1c0,0.1,0,0.2,0,0.2c0,0.5,0,0.9,0,1.4c0,2.1,0,4.2,0,6.2
			c-0.2,0.2-0.2,0.3-0.4,0.5C588.5,311.9,588.3,312.1,588.1,312.4z"/>
		<path class="st22" d="M596.5,303.4c0.4-0.1,0.6,0.2,0.7,0.5c0.1,0.4,0,0.8,0.2,1.2c0.1,0.3,0.3,0.6,0.5,0.9c0,1.9,0,3.8,0,5.6
			c0,0.4-0.1,0.7-0.6,0.7c-2.9,0-5.8,0-8.7,0c-0.1,0-0.2-0.1-0.3-0.1c0.2-0.2,0.5-0.5,0.6-0.8c0.2-0.2,0.2-0.3,0.4-0.5
			c0.2,0.1,0.3,0.1,0.5,0.1c2.2,0,4.2,0,6.4,0c0.2,0,0.2,0,0.4-0.1c0-0.3,0-0.5,0-0.8C596.5,308.2,596.5,305.8,596.5,303.4z"/>
		<path class="st23" d="M596.5,303.4c0,2.3,0,4.7,0,7c0,0.2,0,0.5,0,0.8c-0.2,0-0.3,0.1-0.4,0.1c-2.2,0-4.2,0-6.4,0
			c-0.2,0-0.3-0.1-0.5-0.1c0-2.1,0-4.2,0-6.2c0-0.5,0-0.9,0-1.4c0-0.1,0-0.2,0-0.2s0-0.1,0.1-0.1c2.2,0,4.6,0,6.8,0
			C596.2,303.2,596.3,303.4,596.5,303.4z M592.1,310.6c0.5,0,1,0,1.5,0c0-2.2,0-4.4,0-6.6c-0.5,0-0.9,0-1.5,0
			C592.1,306.2,592.1,308.4,592.1,310.6z M591.4,304c-0.5,0-1,0-1.5,0c0,2.2,0,4.4,0,6.6c0.3,0,0.6,0,0.8,0c0.5,0.1,0.6-0.2,0.6-0.7
			c0-1.5,0-3.2,0-4.7C591.4,304.8,591.4,304.4,591.4,304z M594.2,304c0,0.2,0,0.5,0,0.7c0,1.5,0,3.1,0,4.7c0,1.3,0,1.3,1.3,1.3
			c0,0,0.1,0,0.2-0.1c0-2.2,0-4.3,0-6.6C595.2,304,594.8,304,594.2,304z"/>
		<path class="st24" d="M592.1,310.6c0-2.2,0-4.4,0-6.6c0.5,0,0.9,0,1.5,0c0,2.2,0,4.4,0,6.6C593.1,310.6,592.6,310.6,592.1,310.6z"
			/>
		<path class="st25" d="M591.4,304c0,0.5,0,0.8,0,1.2c0,1.5,0,3.2,0,4.7c0,0.5-0.1,0.8-0.6,0.7c-0.2,0-0.5,0-0.8,0
			c0-2.2,0-4.4,0-6.6C590.4,304,590.8,304,591.4,304z"/>
		<path class="st26" d="M594.2,304c0.5,0,1,0,1.5,0c0,2.2,0,4.4,0,6.6c-0.1,0-0.1,0.1-0.2,0.1c-1.3,0.1-1.3,0.1-1.3-1.3
			c0-1.5,0-3.1,0-4.7C594.2,304.5,594.2,304.2,594.2,304z"/>
	</g>
</g>
<g>
	<line class="st0" x1="299.9" y1="65.7" x2="347" y2="65.7"/>
	<polygon class="st1" points="345.4,68.4 353.7,65.7 345.4,63.1 	"/>
</g>
<line class="st0" x1="187.6" y1="66.2" x2="131.8" y2="66.2"/>
<polygon class="st1" points="133.6,63.1 123.8,65.8 133.6,68.4 "/>
<g>
	<line class="st27" x1="106.1" y1="125.2" x2="346" y2="125.2"/>
	<polygon class="st1" points="344.3,127.9 353.7,125.2 344.3,122.6 	"/>
</g>
<line class="st0" x1="106.1" y1="83.9" x2="106.1" y2="124.7"/>
<g>
	<line class="st27" x1="84.9" y1="305.5" x2="345.8" y2="305.5"/>
	<polygon class="st1" points="344.1,308.1 353.5,305.4 344.1,302.8 	"/>
</g>
<line class="st0" x1="84.9" y1="226.4" x2="84.9" y2="305.5"/>
<rect x="51.7" y="53.4" class="st8" width="66" height="25"/>
<text transform="matrix(1 0 0 1 55.8338 58.9316)"><tspan x="0" y="0" class="st10 st11">Lift-and-shift или </tspan><tspan x="5.5" y="9.3" class="st10 st11">оптимизация  </tspan><tspan x="6.5" y="18.5" class="st10 st11">для облака?</tspan></text>
<rect x="353.7" y="52.5" class="st8" width="105.3" height="24.5"/>
<text transform="matrix(1 0 0 1 358.8494 59.1321)"><tspan x="0" y="0" class="st10 st11">Нужен полный доступ и/или </tspan><tspan x="3.4" y="8" class="st10 st11">возможность переноса на </tspan><tspan x="12.9" y="16" class="st10 st11">другие платформы?</tspan></text>
<text transform="matrix(1 0 0 1 383.4062 183.1816)"><tspan x="0" y="0" class="st10 st11">Архитектура  </tspan><tspan x="-0.4" y="8" class="st10 st11">микрослужб?</tspan></text>
<rect x="349.4" y="229.7" class="st8" width="111" height="44.6"/>
<text transform="matrix(1 0 0 1 361.9565 235.2321)"><tspan x="0" y="0" class="st10 st11">Управляемая событиями </tspan><tspan x="10.5" y="8" class="st10 st11">рабочая нагрузка с </tspan><tspan x="10.1" y="16" class="st10 st11">кратковременными  </tspan><tspan x="22.4" y="24" class="st10 st11">процессами</tspan></text>
<rect x="371.6" y="291.5" class="st8" width="70.9" height="25"/>
<text transform="matrix(1 0 0 1 388.3073 297.0311)"><tspan x="0" y="0" class="st10 st11">Требуется </tspan><tspan x="-16" y="8" class="st10 st11">полнофункциональ</tspan><tspan x="-13.4" y="16" class="st10 st11">ная оркестрация?</tspan></text>
<rect x="31.3" y="199.1" class="st8" width="70.9" height="25"/>
<text transform="matrix(1 0 0 1 54.5676 204.5928)"><tspan x="0" y="0" class="st10 st11">Можно </tspan><tspan x="-22.5" y="9.3" class="st10 st11">контейнеризовать?</tspan></text>
<rect x="367.8" y="350.4" class="st8" width="80" height="45.6"/>
<text transform="matrix(1 0 0 1 389.0381 355.9321)"><tspan x="0" y="0" class="st10 st11">Требуется </tspan><tspan x="-19.2" y="8" class="st10 st11">интеграция .NET или </tspan><tspan x="-0.6" y="16" class="st10 st11">полностью </tspan><tspan x="-13" y="24" class="st10 st11">поддерживаемый </tspan><tspan x="-17.5" y="32" class="st10 st11">арсенал технологий </tspan><tspan x="0.9" y="40" class="st10 st11">Microsoft?</tspan></text>
<rect x="110.6" y="103.2" class="st8" width="50.1" height="25"/>
<text transform="matrix(1 0 0 1 111.4549 108.6816)"><tspan x="0" y="0" class="st9 st10 st11">Оптимизация </tspan><tspan x="3.9" y="9.3" class="st9 st10 st11">для облака</tspan></text>
<text transform="matrix(1 0 0 1 522.3295 122.4002)" class="st3"><tspan x="0" y="0" class="st4 st5 st6">Пакетная  </tspan><tspan x="-6.9" y="9" class="st4 st5 st6">служба Azure</tspan></text>
<text transform="matrix(1 0 0 1 512.6852 246.1996)" class="st4 st5 st6">Функции Azure</text>
<text transform="matrix(1 0 0 1 514.8498 368.3002)" class="st4 st5 st6">Service Fabric</text>
<rect x="512.2" y="172.4" class="st8" width="56.5" height="27"/>
<text transform="matrix(1 0 0 1 526.1807 177.77)"><tspan x="0" y="0" class="st4 st5 st6">Служба </tspan><tspan x="-11" y="9" class="st4 st5 st6">приложений / </tspan><tspan x="6.5" y="18" class="st4 st5 st6">ASE</tspan></text>
<rect x="512.2" y="295.5" class="st8" width="56.5" height="19.5"/>
<text transform="matrix(1 0 0 1 516.8203 300.92)"><tspan x="0" y="0" class="st4 st5 st6">Экземпляры </tspan><tspan x="-0.3" y="9" class="st4 st5 st6">контейнеров</tspan></text>
<rect x="508" y="411.1" class="st8" width="65.9" height="27.4"/>
<text transform="matrix(1 0 0 1 526.7139 416.47)"><tspan x="0" y="0" class="st4 st5 st6">Служба </tspan><tspan x="-9.7" y="9" class="st4 st5 st6">контейнеров </tspan><tspan x="-7.6" y="18" class="st4 st5 st6">Azure (AKS)</tspan></text>
<text transform="matrix(1 0 0 1 315.5263 77.8484)" class="st9 st10 st11">С нуля</text>
<text transform="matrix(1 0 0 1 413.742 96.3701)" class="st9 st10 st11">Нет</text>
<g>
	<line class="st0" x1="407" y1="145" x2="407" y2="157"/>
	<polygon class="st1" points="404.9,155.6 407,163.3 409.1,155.6 	"/>
</g>
<text transform="matrix(1 0 0 1 413.742 155.3701)" class="st9 st10 st11">Нет</text>
<g>
	<line class="st0" x1="407" y1="204.8" x2="407" y2="216.8"/>
	<polygon class="st1" points="404.9,215.4 407,223.1 409.1,215.4 	"/>
</g>
<g>
	<line class="st0" x1="407" y1="264" x2="407" y2="276"/>
	<polygon class="st1" points="404.9,274.6 407,282.3 409.1,274.6 	"/>
</g>
<text transform="matrix(1 0 0 1 413.742 274.3701)" class="st9 st10 st11">Нет</text>
<text transform="matrix(1 0 0 1 414.7422 333.7283)" class="st9 st10 st11">Да</text>
<g>
	<line class="st0" x1="407" y1="323.9" x2="407" y2="335.9"/>
	<polygon class="st1" points="404.9,334.5 407,342.3 409.1,334.5 	"/>
</g>
</svg>
