<svg xmlns="http://www.w3.org/2000/svg" viewBox="0 0 438.41 191.93"><defs><style>.cls-1,.cls-2,.cls-3{fill:#fff;}.cls-2,.cls-21,.cls-3,.cls-5{stroke:#000;}.cls-2{stroke-width:0.5px;}.cls-3{stroke-width:0.54px;}.cls-4{fill:#8fd6ff;}.cls-5{stroke-linejoin:round;stroke-width:0.63px;}.cls-6,.cls-7,.cls-8{isolation:isolate;}.cls-7{font-size:17.5px;fill:#e10000;}.cls-12,.cls-7{font-family:Helvetica-Light, Helvetica;}.cls-8{font-size:12.5px;font-family:MyriadPro-Regular, Myriad Pro;}.cls-9{letter-spacing:-0.03em;}.cls-10{letter-spacing:-0.01em;}.cls-11{letter-spacing:0.01em;}.cls-13{letter-spacing:0em;}.cls-14{letter-spacing:0.01em;}.cls-15{letter-spacing:-0.02em;}.cls-16{letter-spacing:0em;}.cls-17{letter-spacing:-0.01em;}.cls-18{letter-spacing:-0.01em;}.cls-19{letter-spacing:0em;}.cls-20{letter-spacing:0.01em;}.cls-21{fill:none;stroke-miterlimit:10;}</style></defs><title>OJ103514686</title><g id="Shapes"><g id="layer6"><rect id="rect9544" class="cls-1" width="438.41" height="191.93"/></g><g id="layer1"><g id="g9517"><circle id="path9108" class="cls-2" cx="46.86" cy="88.29" r="33.34"/><circle id="circle9116" class="cls-2" cx="385.26" cy="141.32" r="33.34"/><g id="g9126"><circle id="circle9114" class="cls-2" cx="383.24" cy="44.35" r="33.34"/></g><g id="g9151"><rect id="rect9131" class="cls-3" x="170.91" y="33.26" width="86.83" height="110.07"/><rect id="rect9142" class="cls-4" x="171.55" y="87.6" width="85.54" height="18.07"/></g><path id="path5424" class="cls-5" d="M149.84,85.41l12,4.42-12,4.42A7.52,7.52,0,0,0,149.84,85.41Z" transform="translate(6.06 2.84)"/><path id="path9159" class="cls-5" d="M160.53,89.85" transform="translate(6.06 2.84)"/><path id="path9195" class="cls-5" d="M277.09,86.33l-11.78,2.29,7.49-9.37A7,7,0,0,0,277.09,86.33Z" transform="translate(6.06 2.84)"/><path id="path9185" class="cls-5" d="M266.36,88" transform="translate(6.06 2.84)"/><path id="path9231" class="cls-5" d="M273.25,104.24l-7.94-9L277.18,97A7,7,0,0,0,273.25,104.24Z" transform="translate(6.06 2.84)"/><path id="path9221" class="cls-5" d="M266.41,95.82" transform="translate(6.06 2.84)"/><g id="text9513" class="cls-6"><text class="cls-7" transform="translate(258.49 101.93)">?</text></g></g></g></g><g id="txt"><g id="text9118" class="cls-6"><text class="cls-8" transform="translate(361.12 42)"><tspan class="cls-9">Р</tspan><tspan x="6.33" y="0">аб</tspan><tspan class="cls-10" x="18.95" y="0">о</tspan><tspan x="25.69" y="0">ч</tspan><tspan class="cls-11" x="32.13" y="0">а</tspan><tspan x="38.24" y="0">я</tspan><tspan class="cls-12" x="44.44" y="0" xml:space="preserve"> </tspan><tspan x="5.45" y="15">р</tspan><tspan class="cls-13" x="12.56" y="15">о</tspan><tspan x="19.48" y="15">ль</tspan><tspan class="cls-12" x="32.04" y="15" xml:space="preserve"> 1</tspan></text></g><g id="text9122" class="cls-6"><text class="cls-8" transform="translate(362.88 138.98)"><tspan class="cls-9">Р</tspan><tspan x="6.33" y="0">аб</tspan><tspan class="cls-10" x="18.95" y="0">о</tspan><tspan x="25.69" y="0">ч</tspan><tspan class="cls-11" x="32.13" y="0">а</tspan><tspan x="38.24" y="0">я</tspan><tspan class="cls-12" x="44.44" y="0" xml:space="preserve"> </tspan><tspan x="5.45" y="15">р</tspan><tspan class="cls-13" x="12.56" y="15">о</tspan><tspan x="19.48" y="15">ль</tspan><tspan class="cls-12" x="32.04" y="15" xml:space="preserve"> 2</tspan></text></g><g id="text9133" class="cls-6"><text class="cls-8" transform="translate(193.09 48.39)">За<tspan class="cls-14" x="12.17" y="0">к</tspan><tspan x="18.29" y="0">азы</tspan></text></g><g id="text9144" class="cls-6"><text class="cls-8" transform="translate(178.46 100.92)">за<tspan class="cls-14" x="11.41" y="0">к</tspan><tspan x="17.52" y="0">аз</tspan><tspan class="cls-12" x="28.94" y="0"> </tspan><tspan x="32.41" y="0">№</tspan><tspan class="cls-12" x="43.86" y="0">123</tspan></text></g><g id="text9181" class="cls-6"><text class="cls-8" transform="translate(93.23 112.69)"><tspan class="cls-15">С</tspan><tspan class="cls-16" x="7.05" y="0">оздание</tspan><tspan class="cls-12" x="51.96" y="0" xml:space="preserve"> </tspan><tspan x="10.24" y="15">за</tspan><tspan class="cls-14" x="21.65" y="15">к</tspan><tspan x="27.76" y="15">аза</tspan></text></g><g id="text9389" class="cls-6"><text class="cls-8" transform="translate(286.98 98.04)">Обраб<tspan class="cls-17" x="34.95" y="0">о</tspan><tspan class="cls-18" x="41.71" y="0">т</tspan><tspan class="cls-14" x="46.76" y="0">к</tspan><tspan x="52.87" y="0">а</tspan><tspan class="cls-12" x="58.9" y="0"> </tspan><tspan class="cls-19" x="62.37" y="0">за</tspan><tspan class="cls-20" x="73.79" y="0">к</tspan><tspan x="79.9" y="0">азов</tspan></text></g><line class="cls-21" x1="167.92" y1="92.67" x2="84.45" y2="92.67"/><line class="cls-21" x1="271.37" y1="91.46" x2="346.39" y2="46.17"/><line class="cls-21" x1="271.37" y1="98.08" x2="349.91" y2="140.5"/></g></svg>