<?xml version="1.0" encoding="utf-8"?>
<!-- Generator: Adobe Illustrator 22.1.0, SVG Export Plug-In . SVG Version: 6.00 Build 0)  -->
<svg version="1.1" xmlns="http://www.w3.org/2000/svg" xmlns:xlink="http://www.w3.org/1999/xlink" x="0px" y="0px"
	 viewBox="0 0 420 180" style="enable-background:new 0 0 420 180;" xml:space="preserve">
<style type="text/css">
	.st0{fill:#FFFFFF;}
	.st1{fill:#FFFFFF;stroke:#000000;stroke-width:0.5;}
	.st2{fill:#FFFFFF;stroke:#000000;stroke-width:0.5388;}
	.st3{fill:#8FD6FF;}
	.st4{stroke:#000000;stroke-width:0.625;stroke-linejoin:round;}
	.st5{fill:none;stroke:#000000;stroke-miterlimit:10;}
	.st6{enable-background:new    ;}
	.st7{fill:#E10000;}
	.st8{display:none;}
</style>
<g id="svg8548" inkscape:version="0.91 r13725" sodipodi:docname="coordination.svg" xmlns:cc="http://creativecommons.org/ns#" xmlns:dc="http://purl.org/dc/elements/1.1/" xmlns:inkscape="http://www.inkscape.org/namespaces/inkscape" xmlns:rdf="http://www.w3.org/1999/02/22-rdf-syntax-ns#" xmlns:sodipodi="http://sodipodi.sourceforge.net/DTD/sodipodi-0.dtd" xmlns:svg="http://www.w3.org/2000/svg">
	<g id="layer6" inkscape:groupmode="layer" inkscape:label="Background">
		<rect id="rect9544" x="-6.1" y="-2.8" class="st0" width="438.4" height="191.9"/>
	</g>
	
		<ellipse id="path9108" transform="matrix(3.327793e-02 -0.9994 0.9994 3.327793e-02 -45.9653 123.3875)" class="st1" cx="40.8" cy="85.5" rx="33.3" ry="33.3"/>
	<circle id="circle9116" class="st1" cx="379.2" cy="138.5" r="33.3"/>
	<g id="g9126" transform="translate(82.832509,1.0101525)">
		<circle id="circle9114" class="st1" cx="294.3" cy="40.5" r="33.3"/>
	</g>
	<g id="g9151">
		<rect id="rect9131" x="172.4" y="30.4" class="st2" width="79.3" height="110.1"/>
		<rect id="rect9142" x="173" y="84.8" class="st3" width="78.1" height="18.1"/>
	</g>
	<line class="st5" x1="81.2" y1="90" x2="160.5" y2="90"/>
	<line class="st5" x1="272.5" y1="84.4" x2="337.2" y2="45.6"/>
	<line class="st5" x1="273.2" y1="99.7" x2="337.2" y2="133.7"/>
	<path id="path5424" inkscape:connector-curvature="0" class="st4" d="M157.8,85.4l12,4.4l-12,4.4C159.8,91.6,159.7,88.1,157.8,85.4
		z"/>
	<path id="path9195" inkscape:connector-curvature="0" class="st4" d="M277.1,86.3l-11.8,2.3l7.5-9.4
		C272.5,82.3,274.3,85.1,277.1,86.3z"/>
	<path id="path9231" inkscape:connector-curvature="0" class="st4" d="M273.2,104.2l-7.9-9l11.9,1.7
		C274.4,98.3,272.9,101.2,273.2,104.2z"/>
</g>
<g id="Layer_2">
	<g>
		<g class="st6">
			<path d="M356.4,29.1c0.6-0.1,1.3-0.2,2.2-0.2c1.1,0,2,0.3,2.5,0.7c0.5,0.4,0.8,1.1,0.8,1.9c0,0.8-0.2,1.5-0.7,1.9
				c-0.6,0.7-1.6,1-2.7,1c-0.3,0-0.7,0-0.9-0.1V38h-1.2V29.1z M357.5,33.5c0.3,0.1,0.6,0.1,1,0.1c1.4,0,2.2-0.7,2.2-1.9
				c0-1.2-0.8-1.8-2.1-1.8c-0.5,0-0.9,0-1.1,0.1V33.5z"/>
			<path d="M366.2,38l-0.1-0.8h0c-0.4,0.5-1.1,1-2,1c-1.3,0-2-0.9-2-1.8c0-1.6,1.4-2.4,3.9-2.4v-0.1c0-0.5-0.1-1.5-1.5-1.5
				c-0.6,0-1.2,0.2-1.7,0.5l-0.3-0.8c0.5-0.3,1.3-0.6,2.1-0.6c2,0,2.4,1.3,2.4,2.6v2.4c0,0.6,0,1.1,0.1,1.5H366.2z M366.1,34.7
				c-1.3,0-2.7,0.2-2.7,1.5c0,0.8,0.5,1.1,1.1,1.1c0.8,0,1.4-0.5,1.6-1.1c0-0.1,0.1-0.3,0.1-0.4V34.7z"/>
			<path d="M373.6,29.4c-0.3,0.1-0.9,0.2-1.3,0.3c-1,0.2-1.8,0.5-2.3,1.2c-0.4,0.6-0.7,1.5-0.7,2.1h0c0.4-0.9,1.3-1.5,2.2-1.5
				c1.6,0,2.7,1.1,2.7,3.2c0,2.1-1.1,3.4-3,3.4c-2.3,0-3-2.2-3-4.3c0-1.5,0.3-2.7,1-3.6c0.6-0.9,1.5-1.3,2.8-1.5
				c0.5-0.1,1.2-0.2,1.6-0.3L373.6,29.4z M371.3,32.4c-0.7,0-1.2,0.4-1.5,0.9c-0.2,0.4-0.3,0.9-0.3,1.4c0,1.1,0.5,2.6,1.8,2.6
				c1.3,0,1.8-1.3,1.8-2.4C373.1,33.8,372.6,32.4,371.3,32.4z"/>
			<path d="M381.1,34.7c0,2.4-1.6,3.4-3.2,3.4c-1.7,0-3.1-1.3-3.1-3.3c0-2.2,1.4-3.4,3.2-3.4C379.9,31.4,381.1,32.8,381.1,34.7z
				 M376,34.8c0,1.4,0.8,2.5,2,2.5c1.1,0,2-1.1,2-2.5c0-1.1-0.5-2.5-1.9-2.5S376,33.6,376,34.8z"/>
			<path d="M383.1,31.6v2.1c0,0.8,0.3,1.4,1.3,1.4c0.5,0,1-0.2,1.4-0.5v-3h1.2V38h-1.2v-2.6h0c-0.4,0.3-1.1,0.5-1.7,0.5
				c-1.2,0-2.1-0.6-2.1-2.1v-2.2H383.1z"/>
			<path d="M392.1,38l-0.1-0.8h0c-0.4,0.5-1.1,1-2,1c-1.3,0-2-0.9-2-1.8c0-1.6,1.4-2.4,3.9-2.4v-0.1c0-0.5-0.1-1.5-1.5-1.5
				c-0.6,0-1.2,0.2-1.7,0.5l-0.3-0.8c0.5-0.3,1.3-0.6,2.1-0.6c2,0,2.4,1.3,2.4,2.6v2.4c0,0.6,0,1.1,0.1,1.5H392.1z M391.9,34.7
				c-1.3,0-2.7,0.2-2.7,1.5c0,0.8,0.5,1.1,1.1,1.1c0.8,0,1.4-0.5,1.6-1.1c0-0.1,0.1-0.3,0.1-0.4V34.7z"/>
			<path d="M399.3,38h-1.2v-2.7h-0.9c-0.5,0-0.8,0.1-1.1,0.4c-0.5,0.4-0.7,1.2-0.9,1.8c-0.1,0.2-0.2,0.4-0.3,0.5h-1.3
				c0.1-0.2,0.3-0.5,0.4-0.7c0.3-0.6,0.4-1.5,1-1.9c0.2-0.2,0.4-0.3,0.7-0.4v0c-0.8-0.1-1.7-0.6-1.7-1.6c0-0.7,0.4-1.1,0.9-1.4
				c0.5-0.3,1.3-0.4,2.2-0.4c0.8,0,1.5,0.1,2.1,0.1V38z M398.2,32.3c-0.3,0-0.6-0.1-1-0.1c-0.8,0-1.7,0.2-1.7,1.1
				c0,0.8,1,1.1,1.7,1.1c0.5,0,0.7,0,1,0V32.3z"/>
			<path d="M360.1,49.6c0-0.8,0-1.5-0.1-2.1h1.1l0.1,1.1h0c0.5-0.8,1.2-1.3,2.3-1.3c1.6,0,2.7,1.3,2.7,3.3c0,2.3-1.4,3.5-2.9,3.5
				c-0.9,0-1.6-0.4-2-1h0v3.5h-1.2V49.6z M361.3,51.3c0,0.2,0,0.3,0.1,0.5c0.2,0.8,0.9,1.4,1.8,1.4c1.2,0,2-1,2-2.5
				c0-1.3-0.7-2.4-1.9-2.4c-0.8,0-1.5,0.6-1.8,1.5c0,0.1-0.1,0.3-0.1,0.5V51.3z"/>
			<path d="M373.1,50.7c0,2.4-1.7,3.4-3.2,3.4c-1.7,0-3.1-1.3-3.1-3.3c0-2.2,1.4-3.4,3.2-3.4C371.8,47.4,373.1,48.7,373.1,50.7z
				 M368,50.8c0,1.4,0.8,2.5,2,2.5c1.1,0,2-1.1,2-2.5c0-1.1-0.5-2.5-1.9-2.5S368,49.5,368,50.8z"/>
			<path d="M379.1,47.5V54h-1.2v-5.5h-2.2v1.7c0,1.8-0.2,3-1,3.6c-0.3,0.3-0.7,0.4-1.3,0.4l-0.1-0.9c0.2,0,0.5-0.1,0.6-0.3
				c0.6-0.4,0.7-1.3,0.7-2.8v-2.6H379.1z"/>
			<path d="M381.7,47.5v2.2c0.3-0.1,0.7-0.1,1.1-0.1c1.5,0,3,0.5,3,2.2c0,0.7-0.3,1.1-0.7,1.5c-0.7,0.6-1.8,0.7-2.8,0.7
				c-0.7,0-1.3,0-1.7-0.1v-6.4H381.7z M381.7,53.1c0.2,0,0.5,0.1,0.9,0.1c0.9,0,2-0.3,2-1.4c0-1.1-1.2-1.4-2-1.4
				c-0.3,0-0.6,0-0.8,0.1V53.1z"/>
			<path d="M389.8,46.2c0.3,0,0.6,0,0.9-0.1c0.3-0.1,0.6-0.1,0.8-0.3c0.2-0.1,0.5-0.3,0.6-0.5s0.3-0.4,0.3-0.7h1.2V54h-1.7v-6.6
				h-2.3V46.2z"/>
		</g>
	</g>
	<g>
		<g class="st6">
			<path d="M358.4,126c0.6-0.1,1.3-0.2,2.2-0.2c1.1,0,2,0.3,2.5,0.7c0.5,0.4,0.8,1.1,0.8,1.9c0,0.8-0.2,1.5-0.7,1.9
				c-0.6,0.7-1.6,1-2.7,1c-0.3,0-0.7,0-0.9-0.1v3.6h-1.2V126z M359.6,130.3c0.3,0.1,0.6,0.1,1,0.1c1.4,0,2.2-0.7,2.2-1.9
				c0-1.2-0.8-1.8-2.1-1.8c-0.5,0-0.9,0-1.1,0.1V130.3z"/>
			<path d="M368.3,134.9l-0.1-0.8h0c-0.4,0.5-1.1,1-2,1c-1.3,0-2-0.9-2-1.8c0-1.6,1.4-2.4,3.9-2.4v-0.1c0-0.5-0.1-1.5-1.5-1.5
				c-0.6,0-1.2,0.2-1.7,0.5l-0.3-0.8c0.5-0.3,1.3-0.6,2.1-0.6c2,0,2.4,1.3,2.4,2.6v2.4c0,0.6,0,1.1,0.1,1.5H368.3z M368.1,131.6
				c-1.3,0-2.7,0.2-2.7,1.5c0,0.8,0.5,1.1,1.1,1.1c0.8,0,1.4-0.5,1.6-1.1c0-0.1,0.1-0.3,0.1-0.4V131.6z"/>
			<path d="M375.6,126.3c-0.3,0.1-0.9,0.2-1.3,0.3c-1,0.2-1.8,0.5-2.3,1.2c-0.4,0.6-0.7,1.5-0.7,2.1h0c0.4-0.9,1.3-1.5,2.2-1.5
				c1.6,0,2.7,1.1,2.7,3.2c0,2.1-1.1,3.4-3,3.4c-2.3,0-3-2.2-3-4.3c0-1.5,0.3-2.7,1-3.6c0.6-0.9,1.5-1.3,2.8-1.5
				c0.5-0.1,1.2-0.2,1.6-0.3L375.6,126.3z M373.3,129.3c-0.7,0-1.2,0.4-1.5,0.9c-0.2,0.4-0.3,0.9-0.3,1.4c0,1.1,0.5,2.6,1.8,2.6
				c1.3,0,1.8-1.3,1.8-2.4C375.1,130.7,374.7,129.3,373.3,129.3z"/>
			<path d="M383.2,131.6c0,2.4-1.6,3.4-3.2,3.4c-1.7,0-3.1-1.3-3.1-3.3c0-2.2,1.4-3.4,3.2-3.4C381.9,128.3,383.2,129.6,383.2,131.6z
				 M378,131.7c0,1.4,0.8,2.5,2,2.5c1.1,0,2-1.1,2-2.5c0-1.1-0.5-2.5-1.9-2.5S378,130.4,378,131.7z"/>
			<path d="M385.2,128.4v2.1c0,0.8,0.3,1.4,1.3,1.4c0.5,0,1-0.2,1.4-0.5v-3h1.2v6.4h-1.2v-2.6h0c-0.4,0.3-1.1,0.5-1.7,0.5
				c-1.2,0-2.1-0.6-2.1-2.1v-2.2H385.2z"/>
			<path d="M394.1,134.9l-0.1-0.8h0c-0.4,0.5-1.1,1-2,1c-1.3,0-2-0.9-2-1.8c0-1.6,1.4-2.4,3.9-2.4v-0.1c0-0.5-0.1-1.5-1.5-1.5
				c-0.6,0-1.2,0.2-1.7,0.5l-0.3-0.8c0.5-0.3,1.3-0.6,2.1-0.6c2,0,2.4,1.3,2.4,2.6v2.4c0,0.6,0,1.1,0.1,1.5H394.1z M393.9,131.6
				c-1.3,0-2.7,0.2-2.7,1.5c0,0.8,0.5,1.1,1.1,1.1c0.8,0,1.4-0.5,1.6-1.1c0-0.1,0.1-0.3,0.1-0.4V131.6z"/>
			<path d="M401.3,134.9h-1.2v-2.7h-0.9c-0.5,0-0.8,0.1-1.1,0.4c-0.5,0.4-0.7,1.2-0.9,1.8c-0.1,0.2-0.2,0.4-0.3,0.5h-1.3
				c0.1-0.2,0.3-0.5,0.4-0.7c0.3-0.6,0.4-1.5,1-1.9c0.2-0.2,0.4-0.3,0.7-0.4v0c-0.8-0.1-1.7-0.6-1.7-1.6c0-0.7,0.4-1.1,0.9-1.4
				c0.5-0.3,1.3-0.4,2.2-0.4c0.8,0,1.5,0.1,2.1,0.1V134.9z M400.2,129.2c-0.3,0-0.6-0.1-1-0.1c-0.8,0-1.7,0.2-1.7,1.1
				c0,0.8,1,1.1,1.7,1.1c0.5,0,0.7,0,1,0V129.2z"/>
			<path d="M362.1,146.5c0-0.8,0-1.5-0.1-2.1h1.1l0.1,1.1h0c0.5-0.8,1.2-1.3,2.3-1.3c1.6,0,2.7,1.3,2.7,3.3c0,2.3-1.4,3.5-2.9,3.5
				c-0.9,0-1.6-0.4-2-1h0v3.5h-1.2V146.5z M363.3,148.2c0,0.2,0,0.3,0.1,0.5c0.2,0.8,0.9,1.4,1.8,1.4c1.2,0,2-1,2-2.5
				c0-1.3-0.7-2.4-1.9-2.4c-0.8,0-1.5,0.6-1.8,1.5c0,0.1-0.1,0.3-0.1,0.5V148.2z"/>
			<path d="M375.1,147.6c0,2.4-1.7,3.4-3.2,3.4c-1.7,0-3.1-1.3-3.1-3.3c0-2.2,1.4-3.4,3.2-3.4C373.9,144.2,375.1,145.6,375.1,147.6z
				 M370,147.6c0,1.4,0.8,2.5,2,2.5c1.1,0,2-1.1,2-2.5c0-1.1-0.5-2.5-1.9-2.5S370,146.4,370,147.6z"/>
			<path d="M381.1,144.4v6.4h-1.2v-5.5h-2.2v1.7c0,1.8-0.2,3-1,3.6c-0.3,0.3-0.7,0.4-1.3,0.4l-0.1-0.9c0.2,0,0.5-0.1,0.6-0.3
				c0.6-0.4,0.7-1.3,0.7-2.8v-2.6H381.1z"/>
			<path d="M383.7,144.4v2.2c0.3-0.1,0.7-0.1,1.1-0.1c1.5,0,3,0.5,3,2.2c0,0.7-0.3,1.1-0.7,1.5c-0.7,0.6-1.8,0.7-2.8,0.7
				c-0.7,0-1.3,0-1.7-0.1v-6.4H383.7z M383.7,150c0.2,0,0.5,0.1,0.9,0.1c0.9,0,2-0.3,2-1.4c0-1.1-1.2-1.4-2-1.4
				c-0.3,0-0.6,0-0.8,0.1V150z"/>
			<path d="M398,150.8h-6.4c0-0.8,0.2-1.4,0.6-2c0.4-0.6,0.9-1.1,1.5-1.5c0.3-0.2,0.6-0.4,0.9-0.6c0.3-0.2,0.6-0.4,0.9-0.7
				c0.3-0.2,0.5-0.5,0.7-0.8c0.2-0.3,0.3-0.6,0.3-1c0-0.2,0-0.3-0.1-0.5s-0.1-0.4-0.2-0.5s-0.3-0.3-0.5-0.4
				c-0.2-0.1-0.5-0.2-0.8-0.2c-0.3,0-0.6,0.1-0.8,0.2c-0.2,0.1-0.4,0.3-0.5,0.5c-0.1,0.2-0.2,0.5-0.3,0.7c-0.1,0.3-0.1,0.6-0.1,0.9
				h-1.5c0-0.5,0.1-1,0.2-1.4c0.1-0.4,0.3-0.8,0.6-1.1c0.3-0.3,0.6-0.6,1-0.8s0.9-0.3,1.4-0.3c0.6,0,1,0.1,1.4,0.3
				c0.4,0.2,0.7,0.4,0.9,0.7c0.2,0.3,0.4,0.6,0.5,0.9c0.1,0.3,0.1,0.6,0.1,1c0,0.4-0.1,0.7-0.2,1c-0.1,0.3-0.3,0.6-0.5,0.8
				c-0.2,0.3-0.4,0.5-0.7,0.7s-0.5,0.4-0.8,0.6c-0.3,0.2-0.5,0.4-0.8,0.5c-0.3,0.2-0.5,0.3-0.7,0.5c-0.2,0.2-0.4,0.3-0.6,0.5
				c-0.2,0.2-0.3,0.4-0.3,0.6h4.5V150.8z"/>
		</g>
	</g>
	<g>
		<g class="st6">
			<path d="M289.3,90.8c0,3-1.8,4.5-4,4.5c-2.3,0-3.9-1.8-3.9-4.4c0-2.7,1.7-4.5,4-4.5C287.7,86.4,289.3,88.2,289.3,90.8z
				 M282.6,90.9c0,1.8,1,3.5,2.8,3.5c1.8,0,2.8-1.6,2.8-3.6c0-1.7-0.9-3.5-2.8-3.5C283.5,87.3,282.6,89,282.6,90.9z"/>
			<path d="M295,86.9c-0.3,0.1-0.9,0.2-1.3,0.3c-1,0.2-1.7,0.5-2.2,1.2c-0.4,0.6-0.6,1.4-0.7,2h0c0.4-0.9,1.3-1.4,2.2-1.4
				c1.5,0,2.6,1.1,2.6,3.1c0,2-1,3.3-2.9,3.3c-2.2,0-2.9-2.1-2.9-4.1c0-1.4,0.3-2.6,1-3.4c0.6-0.9,1.5-1.3,2.7-1.5
				c0.5-0.1,1.1-0.2,1.5-0.3L295,86.9z M292.8,89.8c-0.7,0-1.1,0.3-1.4,0.8c-0.2,0.4-0.3,0.8-0.3,1.3c0,1,0.5,2.5,1.7,2.5
				c1.2,0,1.7-1.2,1.7-2.3C294.5,91.1,294.1,89.8,292.8,89.8z"/>
			<path d="M296.7,91c0-0.8,0-1.4-0.1-2h1l0.1,1.1h0c0.5-0.8,1.2-1.2,2.2-1.2c1.5,0,2.6,1.3,2.6,3.1c0,2.2-1.4,3.3-2.8,3.3
				c-0.8,0-1.5-0.4-1.9-1h0v3.4h-1.1V91z M297.8,92.7c0,0.2,0,0.3,0.1,0.5c0.2,0.8,0.9,1.3,1.7,1.3c1.2,0,1.9-1,1.9-2.4
				c0-1.2-0.7-2.3-1.8-2.3c-0.8,0-1.5,0.5-1.7,1.4c0,0.1-0.1,0.3-0.1,0.5V92.7z"/>
			<path d="M307,95.2l-0.1-0.8h0c-0.3,0.5-1,0.9-1.9,0.9c-1.3,0-1.9-0.9-1.9-1.8c0-1.5,1.3-2.3,3.7-2.3v-0.1c0-0.5-0.1-1.4-1.4-1.4
				c-0.6,0-1.2,0.2-1.6,0.5l-0.3-0.7c0.5-0.3,1.3-0.6,2-0.6c1.9,0,2.4,1.3,2.4,2.5v2.3c0,0.5,0,1.1,0.1,1.5H307z M306.8,92
				c-1.2,0-2.6,0.2-2.6,1.4c0,0.7,0.5,1.1,1.1,1.1c0.8,0,1.3-0.5,1.5-1c0-0.1,0.1-0.2,0.1-0.4V92z"/>
			<path d="M314,86.9c-0.3,0.1-0.9,0.2-1.3,0.3c-1,0.2-1.7,0.5-2.2,1.2c-0.4,0.6-0.6,1.4-0.7,2h0c0.4-0.9,1.3-1.4,2.2-1.4
				c1.5,0,2.6,1.1,2.6,3.1c0,2-1,3.3-2.9,3.3c-2.2,0-2.9-2.1-2.9-4.1c0-1.4,0.3-2.6,1-3.4c0.6-0.9,1.5-1.3,2.7-1.5
				c0.5-0.1,1.1-0.2,1.5-0.3L314,86.9z M311.8,89.8c-0.7,0-1.1,0.3-1.4,0.8c-0.2,0.4-0.3,0.8-0.3,1.3c0,1,0.5,2.5,1.7,2.5
				c1.2,0,1.7-1.2,1.7-2.3C313.5,91.1,313.2,89.8,311.8,89.8z"/>
			<path d="M321.3,92.1c0,2.3-1.6,3.3-3.1,3.3c-1.7,0-3-1.2-3-3.2c0-2.1,1.4-3.3,3.1-3.3C320.1,88.9,321.3,90.2,321.3,92.1z
				 M316.4,92.1c0,1.4,0.8,2.4,1.9,2.4c1.1,0,1.9-1,1.9-2.4c0-1-0.5-2.4-1.9-2.4S316.4,90.9,316.4,92.1z"/>
			<path d="M326.5,89v0.9h-1.9v5.3h-1.1v-5.3h-1.9V89H326.5z"/>
			<path d="M328.2,89v2.7h0.3l2.3-2.7h1.4l-2.7,2.8c1,0.1,1.6,0.8,2.1,1.9c0.2,0.4,0.4,1,0.7,1.5H331c-0.2-0.3-0.4-0.8-0.6-1.3
				c-0.4-1-1-1.5-2-1.5h-0.2v2.7h-1.1V89H328.2z"/>
			<path d="M336.4,95.2l-0.1-0.8h0c-0.3,0.5-1,0.9-1.9,0.9c-1.3,0-1.9-0.9-1.9-1.8c0-1.5,1.3-2.3,3.7-2.3v-0.1
				c0-0.5-0.1-1.4-1.4-1.4c-0.6,0-1.2,0.2-1.6,0.5l-0.3-0.7c0.5-0.3,1.3-0.6,2-0.6c1.9,0,2.4,1.3,2.4,2.5v2.3c0,0.5,0,1.1,0.1,1.5
				H336.4z M336.2,92c-1.2,0-2.6,0.2-2.6,1.4c0,0.7,0.5,1.1,1.1,1.1c0.8,0,1.3-0.5,1.5-1c0-0.1,0.1-0.2,0.1-0.4V92z"/>
			<path d="M342.4,91.6h0.5c0.9,0,1.6-0.4,1.6-1c0-0.6-0.5-0.9-1.2-0.9c-0.5,0-1.1,0.2-1.5,0.4l-0.3-0.7c0.6-0.4,1.3-0.6,2.1-0.6
				c0.9,0,2.1,0.4,2.1,1.6c0,0.8-0.7,1.3-1.4,1.4v0c0.9,0.1,1.7,0.6,1.7,1.5c0,1.3-1.4,1.8-2.7,1.8c-0.7,0-1.5-0.2-2-0.5l0.3-0.8
				c0.4,0.2,1,0.4,1.6,0.4c0.9,0,1.5-0.4,1.5-1.1c0-0.8-0.9-1.1-1.8-1.1h-0.6V91.6z"/>
			<path d="M350.5,95.2l-0.1-0.8h0c-0.3,0.5-1,0.9-1.9,0.9c-1.3,0-1.9-0.9-1.9-1.8c0-1.5,1.3-2.3,3.7-2.3v-0.1
				c0-0.5-0.1-1.4-1.4-1.4c-0.6,0-1.2,0.2-1.6,0.5l-0.3-0.7c0.5-0.3,1.3-0.6,2-0.6c1.9,0,2.4,1.3,2.4,2.5v2.3c0,0.5,0,1.1,0.1,1.5
				H350.5z M350.3,92c-1.2,0-2.6,0.2-2.6,1.4c0,0.7,0.5,1.1,1.1,1.1c0.8,0,1.3-0.5,1.5-1c0-0.1,0.1-0.2,0.1-0.4V92z"/>
			<path d="M353.9,89v2.7h0.3l2.3-2.7h1.4l-2.7,2.8c1,0.1,1.6,0.8,2.1,1.9c0.2,0.4,0.4,1,0.7,1.5h-1.2c-0.2-0.3-0.4-0.8-0.6-1.3
				c-0.4-1-1-1.5-2-1.5h-0.2v2.7h-1.1V89H353.9z"/>
			<path d="M362.1,95.2l-0.1-0.8h0c-0.3,0.5-1,0.9-1.9,0.9c-1.3,0-1.9-0.9-1.9-1.8c0-1.5,1.3-2.3,3.7-2.3v-0.1
				c0-0.5-0.1-1.4-1.4-1.4c-0.6,0-1.2,0.2-1.6,0.5l-0.3-0.7c0.5-0.3,1.3-0.6,2-0.6c1.9,0,2.4,1.3,2.4,2.5v2.3c0,0.5,0,1.1,0.1,1.5
				H362.1z M361.9,92c-1.2,0-2.6,0.2-2.6,1.4c0,0.7,0.5,1.1,1.1,1.1c0.8,0,1.3-0.5,1.5-1c0-0.1,0.1-0.2,0.1-0.4V92z"/>
			<path d="M365,91.6h0.5c0.9,0,1.6-0.4,1.6-1c0-0.6-0.5-0.9-1.2-0.9c-0.5,0-1.1,0.2-1.5,0.4l-0.3-0.7c0.6-0.4,1.3-0.6,2.1-0.6
				c0.9,0,2.1,0.4,2.1,1.6c0,0.8-0.7,1.3-1.4,1.4v0c0.9,0.1,1.7,0.6,1.7,1.5c0,1.3-1.4,1.8-2.7,1.8c-0.7,0-1.5-0.2-2-0.5l0.3-0.8
				c0.4,0.2,1,0.4,1.6,0.4c0.9,0,1.5-0.4,1.5-1.1c0-0.8-0.9-1.1-1.8-1.1H365V91.6z"/>
			<path d="M375.2,92.1c0,2.3-1.6,3.3-3.1,3.3c-1.7,0-3-1.2-3-3.2c0-2.1,1.4-3.3,3.1-3.3C374,88.9,375.2,90.2,375.2,92.1z
				 M370.3,92.1c0,1.4,0.8,2.4,1.9,2.4c1.1,0,1.9-1,1.9-2.4c0-1-0.5-2.4-1.9-2.4C370.9,89.7,370.3,90.9,370.3,92.1z"/>
			<path d="M376.2,89.1c0.4-0.1,1.2-0.1,2-0.1c1,0,2.8,0.2,2.8,1.5c0,0.8-0.6,1.2-1.3,1.4v0c0.9,0.1,1.6,0.6,1.6,1.5
				c0,1.6-2,1.8-3.3,1.8c-0.7,0-1.4-0.1-1.7-0.1V89.1z M377.3,94.5c0.3,0,0.5,0.1,0.9,0.1c0.8,0,1.9-0.2,1.9-1.1s-0.9-1.1-2-1.1
				h-0.8V94.5z M377.3,91.6h0.8c0.8,0,1.7-0.2,1.7-1c0-0.6-0.5-0.9-1.7-0.9c-0.4,0-0.6,0-0.9,0.1V91.6z"/>
		</g>
	</g>
	<g>
		<g class="st6">
			<path d="M181.8,94.4h0.5c1,0,1.6-0.4,1.6-1c0-0.6-0.5-0.9-1.2-0.9c-0.5,0-1.1,0.2-1.5,0.4l-0.3-0.7c0.6-0.4,1.4-0.6,2.1-0.6
				c1,0,2.1,0.4,2.1,1.7c0,0.8-0.7,1.3-1.4,1.4v0c0.9,0.1,1.7,0.7,1.7,1.6c0,1.4-1.4,1.9-2.7,1.9c-0.7,0-1.5-0.2-2-0.5l0.3-0.8
				c0.5,0.2,1.1,0.4,1.7,0.4c0.9,0,1.5-0.5,1.5-1.1c0-0.8-0.9-1.1-1.8-1.1h-0.6V94.4z"/>
			<path d="M190,98.1l-0.1-0.8h0c-0.4,0.5-1,0.9-1.9,0.9c-1.3,0-1.9-0.9-1.9-1.8c0-1.5,1.4-2.4,3.8-2.3v-0.1c0-0.5-0.1-1.5-1.4-1.5
				c-0.6,0-1.2,0.2-1.6,0.5l-0.3-0.8c0.5-0.3,1.3-0.6,2.1-0.6c1.9,0,2.4,1.3,2.4,2.6v2.4c0,0.5,0,1.1,0.1,1.5H190z M189.8,94.9
				c-1.2,0-2.7,0.2-2.7,1.4c0,0.7,0.5,1.1,1.1,1.1c0.8,0,1.3-0.5,1.5-1.1c0-0.1,0.1-0.2,0.1-0.4V94.9z"/>
			<path d="M193.5,91.8v2.7h0.3l2.4-2.7h1.4l-2.7,2.8c1,0.1,1.6,0.8,2.1,1.9c0.2,0.4,0.4,1,0.7,1.5h-1.2c-0.2-0.3-0.4-0.8-0.6-1.3
				c-0.4-1-1-1.5-2.1-1.5h-0.2v2.8h-1.1v-6.3H193.5z"/>
			<path d="M201.8,98.1l-0.1-0.8h0c-0.4,0.5-1,0.9-1.9,0.9c-1.3,0-1.9-0.9-1.9-1.8c0-1.5,1.4-2.4,3.8-2.3v-0.1
				c0-0.5-0.1-1.5-1.4-1.5c-0.6,0-1.2,0.2-1.6,0.5l-0.3-0.8c0.5-0.3,1.3-0.6,2.1-0.6c1.9,0,2.4,1.3,2.4,2.6v2.4c0,0.5,0,1.1,0.1,1.5
				H201.8z M201.7,94.9c-1.2,0-2.7,0.2-2.7,1.4c0,0.7,0.5,1.1,1.1,1.1c0.8,0,1.3-0.5,1.5-1.1c0-0.1,0.1-0.2,0.1-0.4V94.9z"/>
			<path d="M204.7,94.4h0.5c1,0,1.6-0.4,1.6-1c0-0.6-0.5-0.9-1.2-0.9c-0.5,0-1.1,0.2-1.5,0.4l-0.3-0.7c0.6-0.4,1.4-0.6,2.1-0.6
				c1,0,2.1,0.4,2.1,1.7c0,0.8-0.7,1.3-1.4,1.4v0c0.9,0.1,1.7,0.7,1.7,1.6c0,1.4-1.4,1.9-2.7,1.9c-0.7,0-1.5-0.2-2-0.5l0.3-0.8
				c0.5,0.2,1.1,0.4,1.7,0.4c0.9,0,1.5-0.5,1.5-1.1c0-0.8-0.9-1.1-1.8-1.1h-0.6V94.4z"/>
			<path d="M212.7,98.1v-8.5h1.2l2.2,4.2c0.5,1,1,1.9,1.3,2.8l0,0c-0.1-1.2-0.1-2.2-0.1-3.5v-3.5h1v8.5h-1.2l-2.2-4.2
				c-0.5-0.9-0.9-1.9-1.3-2.9l0,0c0.1,1.1,0.1,2.1,0.1,3.6v3.5H212.7z M223.2,92c0,1.6-1,2.3-2.1,2.3c-1.2,0-2.1-0.8-2.1-2.2
				c0-1.5,0.9-2.3,2.1-2.3C222.4,89.8,223.2,90.7,223.2,92z M219.5,95.6v-0.7h3.4v0.7H219.5z M220,92.1c0,0.9,0.5,1.6,1.1,1.6
				c0.7,0,1.1-0.7,1.1-1.6c0-0.8-0.3-1.6-1.1-1.6C220.4,90.5,220,91.3,220,92.1z"/>
			<path d="M223.9,90.5c0.3,0,0.6,0,0.9-0.1c0.3-0.1,0.6-0.1,0.8-0.3s0.4-0.3,0.6-0.5c0.2-0.2,0.3-0.4,0.3-0.7h1.2v9.1h-1.6v-6.4
				h-2.2V90.5z"/>
			<path d="M236.8,98.1h-6.2c0-0.8,0.2-1.4,0.5-2s0.8-1.1,1.5-1.5c0.3-0.2,0.6-0.4,0.9-0.6c0.3-0.2,0.6-0.4,0.9-0.7
				c0.3-0.2,0.5-0.5,0.7-0.8c0.2-0.3,0.3-0.6,0.3-0.9c0-0.2,0-0.3-0.1-0.5c0-0.2-0.1-0.4-0.2-0.5c-0.1-0.2-0.3-0.3-0.5-0.4
				c-0.2-0.1-0.5-0.2-0.8-0.2c-0.3,0-0.5,0.1-0.7,0.2c-0.2,0.1-0.4,0.3-0.5,0.5c-0.1,0.2-0.2,0.4-0.3,0.7c-0.1,0.3-0.1,0.6-0.1,0.9
				h-1.5c0-0.5,0.1-1,0.2-1.4c0.1-0.4,0.3-0.8,0.6-1.1c0.3-0.3,0.6-0.6,1-0.7s0.8-0.3,1.3-0.3c0.6,0,1,0.1,1.4,0.3
				c0.4,0.2,0.7,0.4,0.9,0.7c0.2,0.3,0.4,0.6,0.5,0.9c0.1,0.3,0.1,0.6,0.1,0.9c0,0.4-0.1,0.7-0.2,1c-0.1,0.3-0.3,0.6-0.5,0.8
				s-0.4,0.5-0.6,0.7c-0.2,0.2-0.5,0.4-0.8,0.6c-0.3,0.2-0.5,0.4-0.8,0.5c-0.3,0.2-0.5,0.3-0.7,0.5c-0.2,0.2-0.4,0.3-0.6,0.5
				c-0.2,0.2-0.3,0.4-0.3,0.6h4.4V98.1z"/>
			<path d="M239.9,92.8c0.2,0,0.5,0,0.7-0.1c0.2,0,0.5-0.1,0.7-0.2s0.3-0.3,0.5-0.4c0.1-0.2,0.2-0.4,0.2-0.7c0-0.4-0.1-0.7-0.4-0.9
				c-0.3-0.2-0.6-0.4-1-0.4c-0.3,0-0.5,0.1-0.7,0.2c-0.2,0.1-0.3,0.2-0.5,0.4s-0.2,0.4-0.3,0.6c-0.1,0.2-0.1,0.4-0.1,0.7h-1.5
				c0-0.4,0.1-0.9,0.2-1.2c0.1-0.4,0.3-0.7,0.6-1c0.3-0.3,0.6-0.5,0.9-0.6s0.8-0.2,1.2-0.2c0.4,0,0.7,0.1,1,0.2
				c0.3,0.1,0.7,0.3,0.9,0.5c0.3,0.2,0.5,0.5,0.7,0.8c0.2,0.3,0.2,0.7,0.2,1.1c0,0.5-0.1,0.9-0.3,1.2s-0.5,0.6-1,0.7v0
				c0.5,0.1,0.9,0.4,1.2,0.8c0.3,0.4,0.4,0.9,0.4,1.5c0,0.4-0.1,0.8-0.3,1.2c-0.2,0.3-0.4,0.6-0.7,0.9c-0.3,0.2-0.6,0.4-1,0.6
				c-0.4,0.1-0.8,0.2-1.2,0.2c-0.5,0-1-0.1-1.4-0.2c-0.4-0.2-0.7-0.4-1-0.6c-0.3-0.3-0.5-0.6-0.6-1c-0.1-0.4-0.2-0.8-0.2-1.3h1.5
				c0,0.6,0.1,1,0.4,1.4c0.3,0.4,0.7,0.6,1.3,0.6c0.5,0,0.9-0.1,1.2-0.4c0.3-0.3,0.5-0.7,0.5-1.2c0-0.4-0.1-0.6-0.2-0.8
				s-0.3-0.4-0.5-0.5s-0.5-0.2-0.8-0.2c-0.3,0-0.6,0-0.9,0V92.8z"/>
		</g>
	</g>
	<g>
		<g class="st6">
			<path d="M193.5,37.5c0.6-0.4,1.4-0.7,2.4-0.7c1.6,0,2.7,0.8,2.7,2.2c0,1.1-0.8,2-1.9,2.2v0c1.3,0.1,2.2,1,2.2,2.3
				c0,1.9-1.6,2.6-3.3,2.6c-0.8,0-1.7-0.2-2.4-0.6l0.3-0.9c0.5,0.3,1.3,0.5,2,0.5c1.3,0,2.1-0.7,2.1-1.7c0-1.4-1.3-1.7-2.5-1.7h-0.5
				v-0.9h0.5c1.2,0,2.1-0.7,2.1-1.7c0-0.9-0.6-1.4-1.6-1.4c-0.7,0-1.4,0.3-1.9,0.6L193.5,37.5z"/>
			<path d="M203.6,46l-0.1-0.8h0c-0.4,0.5-1.1,1-2,1c-1.3,0-2-0.9-2-1.9c0-1.6,1.4-2.4,3.9-2.4v-0.1c0-0.5-0.1-1.5-1.5-1.5
				c-0.6,0-1.2,0.2-1.7,0.5l-0.3-0.8c0.5-0.3,1.3-0.6,2.1-0.6c2,0,2.5,1.4,2.5,2.7v2.4c0,0.6,0,1.1,0.1,1.6H203.6z M203.5,42.7
				c-1.3,0-2.7,0.2-2.7,1.5c0,0.8,0.5,1.1,1.1,1.1c0.8,0,1.4-0.5,1.6-1.1c0-0.1,0.1-0.3,0.1-0.4V42.7z"/>
			<path d="M207.3,39.5v2.8h0.3l2.4-2.8h1.4l-2.8,2.9c1,0.1,1.7,0.8,2.2,2c0.2,0.4,0.4,1.1,0.7,1.6h-1.2c-0.2-0.3-0.4-0.8-0.6-1.3
				c-0.4-1-1-1.5-2.1-1.5h-0.2V46h-1.2v-6.5H207.3z"/>
			<path d="M215.8,46l-0.1-0.8h0c-0.4,0.5-1.1,1-2,1c-1.3,0-2-0.9-2-1.9c0-1.6,1.4-2.4,3.9-2.4v-0.1c0-0.5-0.1-1.5-1.5-1.5
				c-0.6,0-1.2,0.2-1.7,0.5l-0.3-0.8c0.5-0.3,1.3-0.6,2.1-0.6c2,0,2.5,1.4,2.5,2.7v2.4c0,0.6,0,1.1,0.1,1.6H215.8z M215.7,42.7
				c-1.3,0-2.7,0.2-2.7,1.5c0,0.8,0.5,1.1,1.1,1.1c0.8,0,1.4-0.5,1.6-1.1c0-0.1,0.1-0.3,0.1-0.4V42.7z"/>
			<path d="M218.8,42.2h0.6c1,0,1.7-0.5,1.7-1.1c0-0.6-0.5-0.9-1.3-0.9c-0.5,0-1.1,0.2-1.6,0.5l-0.3-0.7c0.7-0.4,1.4-0.6,2.2-0.6
				c1,0,2.2,0.4,2.2,1.7c0,0.8-0.7,1.3-1.5,1.5v0c1,0.1,1.8,0.7,1.8,1.6c0,1.4-1.4,1.9-2.8,1.9c-0.8,0-1.5-0.2-2.1-0.5l0.3-0.8
				c0.5,0.3,1.1,0.4,1.7,0.4c1,0,1.6-0.5,1.6-1.1c0-0.9-0.9-1.1-1.9-1.1h-0.6V42.2z"/>
			<path d="M224.8,39.5v2.2c0.3-0.1,0.6-0.1,1.1-0.1c1.4,0,2.8,0.6,2.8,2.2c0,0.7-0.3,1.2-0.7,1.5c-0.7,0.6-1.8,0.8-2.6,0.8
				c-0.7,0-1.3,0-1.7-0.1v-6.5H224.8z M224.8,45.2c0.2,0,0.5,0.1,0.8,0.1c0.9,0,1.9-0.4,1.9-1.4c0-1-0.9-1.4-1.8-1.4
				c-0.3,0-0.6,0-0.9,0.1V45.2z M230.7,39.5V46h-1.2v-6.5H230.7z"/>
		</g>
	</g>
	<g class="st6">
		<path d="M82.5,109.6c-0.4,0.2-1.2,0.4-2.3,0.4c-2.5,0-4.3-1.6-4.3-4.4c0-2.7,1.9-4.6,4.6-4.6c1.1,0,1.8,0.2,2.1,0.4l-0.3,0.9
			c-0.4-0.2-1-0.4-1.8-0.4c-2.1,0-3.4,1.3-3.4,3.6c0,2.1,1.2,3.5,3.4,3.5c0.7,0,1.4-0.1,1.8-0.4L82.5,109.6z"/>
		<path d="M89,106.7c0,2.3-1.6,3.3-3.1,3.3c-1.7,0-3-1.2-3-3.2c0-2.1,1.4-3.3,3.1-3.3C87.7,103.4,89,104.7,89,106.7z M84,106.7
			c0,1.4,0.8,2.4,1.9,2.4c1.1,0,1.9-1,1.9-2.4c0-1.1-0.5-2.4-1.9-2.4C84.6,104.3,84,105.5,84,106.7z"/>
		<path d="M90.5,106.2h0.5c1,0,1.6-0.4,1.6-1c0-0.6-0.5-0.9-1.2-0.9c-0.5,0-1.1,0.2-1.5,0.4l-0.3-0.7c0.6-0.4,1.4-0.6,2.1-0.6
			c1,0,2.1,0.4,2.1,1.7c0,0.8-0.7,1.3-1.4,1.4v0c0.9,0.1,1.7,0.7,1.7,1.6c0,1.4-1.4,1.9-2.7,1.9c-0.7,0-1.5-0.2-2-0.5l0.3-0.8
			c0.5,0.2,1.1,0.4,1.7,0.4c0.9,0,1.5-0.5,1.5-1.1c0-0.8-0.9-1.1-1.8-1.1h-0.6V106.2z"/>
		<path d="M100.1,103.6v5.4l0.6,0l-0.1,2.8h-0.9l-0.1-2h-4.4l-0.1,2h-0.9l-0.1-2.8l0.5,0c0.3-0.4,0.5-0.8,0.6-1.3
			c0.2-0.8,0.4-1.6,0.4-2.5v-1.6H100.1z M96.9,105.5c0,0.8-0.1,1.6-0.3,2.3c-0.1,0.4-0.3,0.8-0.5,1.2H99v-4.5h-2.1V105.5z"/>
		<path d="M105.2,109.9l-0.1-0.8h0c-0.4,0.5-1,0.9-1.9,0.9c-1.3,0-1.9-0.9-1.9-1.8c0-1.5,1.4-2.4,3.8-2.3v-0.1
			c0-0.5-0.1-1.5-1.4-1.5c-0.6,0-1.2,0.2-1.6,0.5l-0.3-0.8c0.5-0.3,1.3-0.6,2.1-0.6c1.9,0,2.4,1.3,2.4,2.6v2.4c0,0.5,0,1.1,0.1,1.5
			H105.2z M105.1,106.6c-1.2,0-2.7,0.2-2.7,1.4c0,0.7,0.5,1.1,1.1,1.1c0.8,0,1.3-0.5,1.5-1.1c0-0.1,0.1-0.2,0.1-0.4V106.6z"/>
		<path d="M108.7,103.6v2.5h3v-2.5h1.1v6.3h-1.1V107h-3v2.8h-1.1v-6.3H108.7z"/>
		<path d="M115.4,103.6v2.7c0,1,0,1.6-0.1,2.5l0,0c0.4-0.8,0.6-1.2,1-1.9l2-3.3h1.3v6.3h-1.1v-2.7c0-1,0-1.6,0.1-2.6h0
			c-0.4,0.8-0.7,1.3-1,2c-0.6,1-1.3,2.2-2,3.3h-1.3v-6.3H115.4z"/>
		<path d="M121.8,106.9c0,1.5,1,2.2,2.2,2.2c0.8,0,1.3-0.1,1.7-0.3l0.2,0.8c-0.4,0.2-1.1,0.4-2.1,0.4c-1.9,0-3.1-1.3-3.1-3.2
			c0-1.9,1.1-3.4,3-3.4c2.1,0,2.6,1.8,2.6,3c0,0.2,0,0.4,0,0.5H121.8z M125.1,106.1c0-0.7-0.3-1.9-1.6-1.9c-1.2,0-1.7,1.1-1.8,1.9
			H125.1z"/>
		<path d="M131,106.2h0.5c1,0,1.6-0.4,1.6-1c0-0.6-0.5-0.9-1.2-0.9c-0.5,0-1.1,0.2-1.5,0.4l-0.3-0.7c0.6-0.4,1.4-0.6,2.1-0.6
			c1,0,2.1,0.4,2.1,1.7c0,0.8-0.7,1.3-1.4,1.4v0c0.9,0.1,1.7,0.7,1.7,1.6c0,1.4-1.4,1.9-2.7,1.9c-0.7,0-1.5-0.2-2-0.5l0.3-0.8
			c0.5,0.2,1.1,0.4,1.7,0.4c0.9,0,1.5-0.5,1.5-1.1c0-0.8-0.9-1.1-1.8-1.1H131V106.2z"/>
		<path d="M139.2,109.9l-0.1-0.8h0c-0.4,0.5-1,0.9-1.9,0.9c-1.3,0-1.9-0.9-1.9-1.8c0-1.5,1.4-2.4,3.8-2.3v-0.1
			c0-0.5-0.1-1.5-1.4-1.5c-0.6,0-1.2,0.2-1.6,0.5l-0.3-0.8c0.5-0.3,1.3-0.6,2.1-0.6c1.9,0,2.4,1.3,2.4,2.6v2.4c0,0.5,0,1.1,0.1,1.5
			H139.2z M139,106.6c-1.2,0-2.7,0.2-2.7,1.4c0,0.7,0.5,1.1,1.1,1.1c0.8,0,1.3-0.5,1.5-1.1c0-0.1,0.1-0.2,0.1-0.4V106.6z"/>
		<path d="M142.7,103.6v2.7h0.3l2.4-2.7h1.4l-2.7,2.8c1,0.1,1.6,0.8,2.1,1.9c0.2,0.4,0.4,1,0.7,1.5h-1.2c-0.2-0.3-0.4-0.8-0.6-1.3
			c-0.4-1-1-1.5-2.1-1.5h-0.2v2.8h-1.1v-6.3H142.7z"/>
		<path d="M151,109.9l-0.1-0.8h0c-0.4,0.5-1,0.9-1.9,0.9c-1.3,0-1.9-0.9-1.9-1.8c0-1.5,1.4-2.4,3.8-2.3v-0.1c0-0.5-0.1-1.5-1.4-1.5
			c-0.6,0-1.2,0.2-1.6,0.5l-0.3-0.8c0.5-0.3,1.3-0.6,2.1-0.6c1.9,0,2.4,1.3,2.4,2.6v2.4c0,0.5,0,1.1,0.1,1.5H151z M150.8,106.6
			c-1.2,0-2.7,0.2-2.7,1.4c0,0.7,0.5,1.1,1.1,1.1c0.8,0,1.3-0.5,1.5-1.1c0-0.1,0.1-0.2,0.1-0.4V106.6z"/>
		<path d="M153.9,106.2h0.5c1,0,1.6-0.4,1.6-1c0-0.6-0.5-0.9-1.2-0.9c-0.5,0-1.1,0.2-1.5,0.4l-0.3-0.7c0.6-0.4,1.4-0.6,2.1-0.6
			c1,0,2.1,0.4,2.1,1.7c0,0.8-0.7,1.3-1.4,1.4v0c0.9,0.1,1.7,0.7,1.7,1.6c0,1.4-1.4,1.9-2.7,1.9c-0.7,0-1.5-0.2-2-0.5l0.3-0.8
			c0.5,0.2,1.1,0.4,1.7,0.4c0.9,0,1.5-0.5,1.5-1.1c0-0.8-0.9-1.1-1.8-1.1h-0.6V106.2z"/>
		<path d="M162.1,109.9l-0.1-0.8h0c-0.4,0.5-1,0.9-1.9,0.9c-1.3,0-1.9-0.9-1.9-1.8c0-1.5,1.4-2.4,3.8-2.3v-0.1
			c0-0.5-0.1-1.5-1.4-1.5c-0.6,0-1.2,0.2-1.6,0.5l-0.3-0.8c0.5-0.3,1.3-0.6,2.1-0.6c1.9,0,2.4,1.3,2.4,2.6v2.4c0,0.5,0,1.1,0.1,1.5
			H162.1z M161.9,106.6c-1.2,0-2.7,0.2-2.7,1.4c0,0.7,0.5,1.1,1.1,1.1c0.8,0,1.3-0.5,1.5-1.1c0-0.1,0.1-0.2,0.1-0.4V106.6z"/>
	</g>
	<g>
		<g class="st6">
			<path class="st7" d="M253.6,90c0-0.7,0.1-1.3,0.3-1.8c0.2-0.5,0.5-1,0.9-1.4c0.4-0.4,0.8-0.7,1.4-0.9c0.5-0.2,1.1-0.3,1.8-0.3
				c0.6,0,1.1,0.1,1.5,0.2c0.5,0.2,0.9,0.4,1.2,0.7s0.6,0.7,0.8,1.1s0.3,1,0.3,1.5c0,0.4,0,0.8-0.1,1.1c-0.1,0.3-0.2,0.6-0.4,0.8
				c-0.1,0.2-0.3,0.4-0.5,0.6c-0.2,0.2-0.4,0.3-0.6,0.5c-0.2,0.2-0.4,0.4-0.6,0.6c-0.2,0.2-0.4,0.4-0.5,0.6
				c-0.1,0.2-0.3,0.5-0.3,0.8c-0.1,0.3-0.1,0.7-0.1,1.1h-1.9c0-0.5,0-1,0.1-1.3c0.1-0.4,0.1-0.7,0.3-1s0.3-0.5,0.4-0.7
				c0.2-0.2,0.4-0.4,0.6-0.6c0.2-0.2,0.4-0.3,0.5-0.5c0.2-0.1,0.3-0.3,0.5-0.5c0.1-0.2,0.2-0.4,0.3-0.6s0.1-0.5,0.1-0.8
				c0-0.4-0.1-0.7-0.2-0.9s-0.3-0.5-0.5-0.6s-0.4-0.3-0.6-0.3s-0.4-0.1-0.5-0.1c-0.7,0-1.3,0.2-1.6,0.7c-0.4,0.5-0.5,1.1-0.5,2
				H253.6z M256.4,96.5h2.4v2.3h-2.4V96.5z"/>
		</g>
	</g>
</g>
<g id="Layer_3" class="st8">
	<image style="display:inline;overflow:visible;" width="420" height="180" xlink:href="BB0CEF84.jpg" >
	</image>
</g>
</svg>
