<?xml version="1.0" encoding="utf-8"?>
<!-- Generator: Adobe Illustrator 22.1.0, SVG Export Plug-In . SVG Version: 6.00 Build 0)  -->
<svg version="1.1" xmlns="http://www.w3.org/2000/svg" xmlns:xlink="http://www.w3.org/1999/xlink" x="0px" y="0px"
	 viewBox="0 0 354.3 217.9" style="enable-background:new 0 0 354.3 217.9;" xml:space="preserve">
<style type="text/css">
	.st0{fill:#FFFFFF;}
	.st1{fill:#0078D7;}
	.st2{fill:#ED9292;}
	.st3{fill:none;}
	.st4{fill:#29354A;}
	.st5{fill:none;stroke:#313131;}
	.st6{stroke:#000000;stroke-width:0.625;stroke-linejoin:round;}
	.st7{fill:none;stroke:#313131;stroke-width:1.0884;}
	.st8{fill:none;stroke:#000000;}
	.st9{fill:none;stroke:#000000;stroke-width:0.625;stroke-linejoin:round;}
	.st10{display:none;}
</style>
<g id="svg2" inkscape:version="0.91 r13725" sodipodi:docname="database-lock.svg" xmlns:cc="http://creativecommons.org/ns#" xmlns:dc="http://purl.org/dc/elements/1.1/" xmlns:inkscape="http://www.inkscape.org/namespaces/inkscape" xmlns:rdf="http://www.w3.org/1999/02/22-rdf-syntax-ns#" xmlns:sodipodi="http://sodipodi.sourceforge.net/DTD/sodipodi-0.dtd" xmlns:svg="http://www.w3.org/2000/svg">
	<g id="layer1" transform="translate(-41.854622,-629.40924)" inkscape:groupmode="layer" inkscape:label="Layer 1">
		<rect id="rect8170" x="41.9" y="629.4" class="st0" width="354.3" height="217.9"/>
	</g>
	<g id="layer2" transform="translate(-41.854622,-57.047085)" inkscape:groupmode="layer" inkscape:label="VMs">
		<g id="g8060" transform="translate(5.4953999,-7.3235531)">
			<g id="paths" transform="matrix(1.57723,0,0,1.57723,230.98892,98.69099)">
				<g id="g55">
					<path id="path57" inkscape:connector-curvature="0" class="st1" d="M78.3,57c-0.1-0.2-0.3-0.3-0.4-0.5
						c-0.2-0.1-0.4-0.2-0.6-0.2c-0.3,0-0.5,0.1-0.7,0.2c-0.2,0.1-0.3,0.3-0.5,0.4c-0.1,0.2-0.2,0.4-0.3,0.6
						c-0.1,0.2-0.1,0.5-0.1,0.8c0,0.4,0,0.7,0.1,0.9c0.1,0.3,0.2,0.5,0.3,0.6c0.1,0.2,0.3,0.3,0.5,0.3c0.2,0.1,0.4,0.1,0.6,0.1
						s0.4,0,0.5-0.1c0.2-0.1,0.3-0.2,0.5-0.4c0.1-0.2,0.2-0.4,0.3-0.6c0.1-0.2,0.1-0.5,0.1-0.9c0-0.3,0-0.5-0.1-0.8
						C78.5,57.4,78.4,57.2,78.3,57L78.3,57z"/>
					<path id="path59" inkscape:connector-curvature="0" class="st1" d="M77,37.9c-8,0-14.4,2.7-14.4,5.7v27c0,3,6.5,5.8,14.4,5.8
						c8,0,14.4-2.7,14.4-5.7v-27C91.5,40.7,85,37.9,77,37.9z M72.7,60.5c0,0.2-0.1,0.4-0.2,0.6c-0.1,0.2-0.2,0.4-0.4,0.5
						c-0.2,0.2-0.4,0.3-0.6,0.4c-0.2,0.1-0.5,0.2-0.9,0.3c-0.3,0.1-0.7,0.1-1.2,0.1c-0.2,0-0.5,0-0.7,0s-0.4,0-0.6-0.1
						c-0.2,0-0.4-0.1-0.5-0.1c-0.2,0-0.3-0.1-0.4-0.2v-2.1c0.1,0.1,0.3,0.2,0.5,0.3s0.3,0.2,0.5,0.3s0.4,0.1,0.6,0.2
						c0.2,0.1,0.4,0.1,0.6,0.1s0.3,0,0.4-0.1c0.1,0,0.2-0.1,0.2-0.1c0.1,0,0.1-0.1,0.1-0.2c0-0.1,0-0.1,0-0.2c0-0.1,0-0.2-0.1-0.3
						s-0.1-0.2-0.2-0.2c-0.1-0.1-0.2-0.1-0.4-0.2c-0.2-0.1-0.3-0.1-0.5-0.2c-0.3-0.1-0.6-0.3-0.9-0.5c-0.2-0.2-0.4-0.3-0.6-0.5
						s-0.3-0.4-0.3-0.6C67,57.5,67,57.2,67,57c0-0.4,0.1-0.7,0.2-1c0.2-0.3,0.4-0.6,0.6-0.8c0.3-0.2,0.6-0.4,1-0.5s0.8-0.2,1.3-0.2
						c0.3,0,0.5,0,0.7,0s0.4,0,0.6,0.1c0.2,0,0.3,0.1,0.5,0.1s0.3,0.1,0.4,0.1v2c-0.1-0.1-0.2-0.1-0.4-0.2c-0.1-0.1-0.3-0.1-0.5-0.2
						c-0.2-0.1-0.3-0.1-0.5-0.1s-0.4,0-0.6,0c-0.3,0-0.5,0-0.6,0.1c-0.2,0.1-0.2,0.2-0.2,0.4c0,0.1,0,0.2,0.1,0.2
						c0,0.1,0.1,0.1,0.2,0.2c0.1,0.1,0.2,0.1,0.3,0.2c0.1,0.1,0.3,0.1,0.5,0.2c0.3,0.1,0.6,0.3,0.9,0.4c0.3,0.2,0.5,0.3,0.7,0.5
						s0.3,0.4,0.5,0.6c0.1,0.2,0.2,0.5,0.2,0.9C72.8,60.1,72.7,60.3,72.7,60.5z M78.6,64.3l-1.7-1.8c-0.5,0-1-0.2-1.4-0.3
						c-0.4-0.2-0.8-0.5-1.1-0.8c-0.3-0.3-0.6-0.7-0.8-1.2c-0.2-0.5-0.3-1-0.3-1.6s0.1-1.2,0.3-1.7c0.2-0.5,0.5-0.9,0.8-1.3
						c0.3-0.4,0.8-0.6,1.2-0.8c0.5-0.2,1-0.3,1.6-0.3s1.1,0.1,1.5,0.3c0.5,0.2,0.9,0.5,1.2,0.8c0.3,0.3,0.6,0.8,0.8,1.2
						c0.2,0.5,0.3,1,0.3,1.7c0,0.4,0,0.9-0.2,1.2c-0.1,0.4-0.3,0.7-0.5,1s-0.4,0.6-0.7,0.8c-0.3,0.2-0.5,0.4-0.9,0.6l2.6,2.2H78.6
						L78.6,64.3z M87.2,62.3h-5v-7.7h2.3v5.9h2.7V62.3z M77,46.3c-5.7,0-10.3-1.4-10.3-3.1c0-1.7,4.6-3.1,10.3-3.1
						c5.7,0,10.3,1.4,10.3,3.1C87.3,44.9,82.7,46.3,77,46.3z"/>
				</g>
			</g>
			<rect id="rect6243" x="216" y="146.4" class="st2" width="92.5" height="12.9"/>
			<rect id="rect6245" x="215.7" y="214.3" class="st2" width="93.3" height="19.3"/>
			<g id="g7468">
				<path id="path7472" inkscape:connector-curvature="0" class="st3" d="M309.9,154.2v-12.9h12.9h12.9v12.9v12.9h-12.9h-12.9V154.2
					L309.9,154.2z"/>
				<path id="path7470" inkscape:connector-curvature="0" class="st3" d="M314.8,166.9c-0.6-0.3-0.8-0.6-1-1.1s-0.2-1.3-0.2-6.5
					v-5.9l0.4-0.5c0.5-0.6,0.8-0.8,1.6-0.8l0.7-0.1l0.1-3c0.1-2.2,0.1-3.2,0.3-3.6c0.8-2.1,2.7-3.6,5.1-3.9c3.2-0.5,6.2,1.2,7.2,3.9
					c0.1,0.4,0.2,1.4,0.3,3.6l0.1,3l0.7,0.1c0.9,0.1,1.2,0.2,1.6,0.8l0.4,0.5v5.9c0,6.7,0,6.7-0.8,7.4l-0.5,0.4H323
					C316.1,167.1,315.2,167.1,314.8,166.9L314.8,166.9z M324.5,162.9c0-0.3-0.1-1.1-0.2-1.9l-0.2-1.4l0.4-0.5
					c0.4-0.5,0.4-0.6,0.4-1.3c0-0.6-0.1-0.8-0.3-1.1c-0.9-1.3-2.5-1.3-3.5,0c-0.2,0.3-0.3,0.6-0.3,1.1c0,0.7,0.1,0.8,0.4,1.3
					c0.2,0.3,0.4,0.6,0.4,0.7s-0.1,0.9-0.3,1.7s-0.2,1.6-0.2,1.7c0.1,0.2,0.3,0.2,1.7,0.2h1.6L324.5,162.9L324.5,162.9z
					 M326.5,149.3c0-1.5,0-2.8,0-3.1c-0.3-1.4-2.5-2.5-4.3-2.1c-1,0.2-1.4,0.4-2,1c-0.8,0.7-0.8,0.8-0.8,3.9c0,1.5,0,2.9,0.1,2.9
					c0,0,1.7,0.1,3.6,0.1h3.5L326.5,149.3L326.5,149.3z"/>
			</g>
			<g id="g7515" transform="translate(-7.213203,-0.01663144)">
				<g id="g7474" transform="matrix(0.45003489,0,0,0.45003489,177.30552,82.501783)">
					<path id="path7476" inkscape:connector-curvature="0" class="st4" d="M317.6,169c-0.6-0.3-0.8-0.6-1-1.1s-0.2-1.3-0.2-6.5v-5.9
						l0.4-0.5c0.5-0.6,0.8-0.8,1.6-0.8l0.7-0.1l0.1-3c0.1-2.2,0.1-3.2,0.3-3.6c0.8-2.1,2.7-3.6,5.1-3.9c3.2-0.5,6.2,1.2,7.2,3.9
						c0.1,0.4,0.2,1.4,0.3,3.6l0.1,3l0.7,0.1c0.9,0.1,1.2,0.2,1.6,0.8l0.4,0.5v5.9c0,6.7,0,6.7-0.8,7.4l-0.5,0.4h-7.8
						C318.9,169.2,317.9,169.2,317.6,169L317.6,169z M327.2,165.1c0-0.3-0.1-1.1-0.2-1.9l-0.2-1.4l0.4-0.5c0.4-0.5,0.4-0.6,0.4-1.3
						c0-0.6-0.1-0.8-0.3-1.1c-0.9-1.3-2.5-1.3-3.5,0c-0.2,0.3-0.3,0.6-0.3,1.1c0,0.7,0.1,0.8,0.4,1.3c0.2,0.3,0.4,0.6,0.4,0.7
						s-0.1,0.9-0.3,1.7s-0.2,1.6-0.2,1.7c0.1,0.2,0.3,0.2,1.7,0.2h1.6L327.2,165.1L327.2,165.1z M329.2,151.5c0-1.5,0-2.8,0-3.1
						c-0.3-1.4-2.5-2.5-4.3-2.1c-1,0.2-1.4,0.4-2,1c-0.8,0.7-0.8,0.8-0.8,3.9c0,1.5,0,2.9,0.1,2.9c0,0,1.7,0.1,3.6,0.1h3.5
						L329.2,151.5L329.2,151.5z"/>
				</g>
				<path id="path7476-2" inkscape:connector-curvature="0" class="st0" d="M323.8,153.6c-0.3,0-0.6,0.1-0.8,0.4
					c-0.1,0.1-0.1,0.3-0.1,0.5c0,0.3,0,0.4,0.2,0.6c0.1,0.1,0.2,0.3,0.2,0.3c0,0.1-0.1,0.4-0.1,0.8s-0.1,0.7-0.1,0.8
					s0.1,0.1,0.7,0.1h0.7v-0.2c0-0.1-0.1-0.5-0.1-0.8l-0.1-0.6l0.2-0.2c0.2-0.2,0.2-0.3,0.2-0.6s0-0.4-0.1-0.5
					C324.4,153.7,324.1,153.6,323.8,153.6L323.8,153.6z"/>
			</g>
			<g id="g7520" transform="translate(-8.4758941,71.054809)">
				<g id="g7522" transform="matrix(0.45003489,0,0,0.45003489,177.30552,82.501783)">
					<path id="path7524" inkscape:connector-curvature="0" class="st4" d="M317.6,169c-0.6-0.3-0.8-0.6-1-1.1s-0.2-1.3-0.2-6.5v-5.9
						l0.4-0.5c0.5-0.6,0.8-0.8,1.6-0.8l0.7-0.1l0.1-3c0.1-2.2,0.1-3.2,0.3-3.6c0.8-2.1,2.7-3.6,5.1-3.9c3.2-0.5,6.2,1.2,7.2,3.9
						c0.1,0.4,0.2,1.4,0.3,3.6l0.1,3l0.7,0.1c0.9,0.1,1.2,0.2,1.6,0.8l0.4,0.5v5.9c0,6.7,0,6.7-0.8,7.4l-0.5,0.4h-7.8
						C318.9,169.2,317.9,169.2,317.6,169L317.6,169z M327.2,165.1c0-0.3-0.1-1.1-0.2-1.9l-0.2-1.4l0.4-0.5c0.4-0.5,0.4-0.6,0.4-1.3
						c0-0.6-0.1-0.8-0.3-1.1c-0.9-1.3-2.5-1.3-3.5,0c-0.2,0.3-0.3,0.6-0.3,1.1c0,0.7,0.1,0.8,0.4,1.3c0.2,0.3,0.4,0.6,0.4,0.7
						s-0.1,0.9-0.3,1.7s-0.2,1.6-0.2,1.7c0.1,0.2,0.3,0.2,1.7,0.2h1.6L327.2,165.1L327.2,165.1z M329.2,151.5c0-1.5,0-2.8,0-3.1
						c-0.3-1.4-2.5-2.5-4.3-2.1c-1,0.2-1.4,0.4-2,1c-0.8,0.7-0.8,0.8-0.8,3.9c0,1.5,0,2.9,0.1,2.9c0,0,1.7,0.1,3.6,0.1h3.5
						L329.2,151.5L329.2,151.5z"/>
				</g>
				<path id="path7526" inkscape:connector-curvature="0" class="st0" d="M323.8,153.6c-0.3,0-0.6,0.1-0.8,0.4
					c-0.1,0.1-0.1,0.3-0.1,0.5c0,0.3,0,0.4,0.2,0.6c0.1,0.1,0.2,0.3,0.2,0.3c0,0.1-0.1,0.4-0.1,0.8s-0.1,0.7-0.1,0.8
					s0.1,0.1,0.7,0.1h0.7v-0.2c0-0.1-0.1-0.5-0.1-0.8l-0.1-0.6l0.2-0.2c0.2-0.2,0.2-0.3,0.2-0.6s0-0.4-0.1-0.5
					C324.4,153.7,324.1,153.6,323.8,153.6L323.8,153.6z"/>
			</g>
			<g id="g5342">
				<ellipse id="path5124" class="st5" cx="85.9" cy="109.3" rx="36.4" ry="36.4"/>
				<g id="Ibiza_Symbols" transform="translate(-28.737032,20.324009)">
					<g id="g6">
						<path id="path8" inkscape:connector-curvature="0" class="st1" d="M131,71.7H97.9c-1.1,0-2,1-2,2.1v23.1c0,1.1,0.9,2.1,2,2.1
							h11.3c1.2,4.3-0.4,4.9-7.6,4.9v2.3h9.1h6.7h8.6v-2.3c-7.2,0-7.9-0.6-6.7-4.9H131c1.1,0,2.3-1,2.3-2.1V73.8
							C133.3,72.7,132.1,71.7,131,71.7z M130.4,74.5v21.6H98.7V74.5H130.4L130.4,74.5z"/>
						<g id="group975-1984_1_" transform="translate(1176.51,-2762.63)">
							<g id="shape976-1985_2_" transform="translate(0.8685,-17.652)">
								<path id="path16" inkscape:connector-curvature="0" class="st1" d="M-1057.4,2861.6l-5.8-3.3l-5.8,3.3v0.1l5.8,3.3
									L-1057.4,2861.6L-1057.4,2861.6L-1057.4,2861.6z"/>
							</g>
							<g id="shape977-1987_1_" transform="translate(15.8925,0)">
								<path id="path21" inkscape:connector-curvature="0" class="st1" d="M-1077.6,2848.3v6.6l5.8-3.3v-6.6L-1077.6,2848.3z"/>
							</g>
							<g id="shape978-1989_1_">
								<path id="path26" inkscape:connector-curvature="0" class="st1" d="M-1062.9,2848.3l-5.8-3.3v6.6l5.8,3.3V2848.3z"/>
							</g>
						</g>
					</g>
				</g>
			</g>
			<g id="g5377">
				<g id="g5360">
					
						<ellipse id="path5124-6" transform="matrix(0.9985 -5.529871e-02 5.529871e-02 0.9985 -12.0843 5.0883)" class="st5" cx="85.9" cy="220.9" rx="36.4" ry="36.4"/>
					<g id="g5199" transform="translate(-28.737032,131.9459)">
						<g id="g5201">
							<path id="path5203" inkscape:connector-curvature="0" class="st1" d="M131,71.7H97.9c-1.1,0-2,1-2,2.1v23.1
								c0,1.1,0.9,2.1,2,2.1h11.3c1.2,4.3-0.4,4.9-7.6,4.9v2.3h9.1h6.7h8.6v-2.3c-7.2,0-7.9-0.6-6.7-4.9H131c1.1,0,2.3-1,2.3-2.1
								V73.8C133.3,72.7,132.1,71.7,131,71.7z M130.4,74.5v21.6H98.7V74.5H130.4L130.4,74.5z"/>
							<g id="g5205" transform="translate(1176.51,-2762.63)">
								<g id="g5209" transform="translate(0.8685,-17.652)">
									<path id="path5213" inkscape:connector-curvature="0" class="st1" d="M-1057.4,2861.6l-5.8-3.3l-5.8,3.3v0.1l5.8,3.3
										L-1057.4,2861.6L-1057.4,2861.6L-1057.4,2861.6z"/>
								</g>
								<g id="g5215" transform="translate(15.8925,0)">
									<path id="path5219" inkscape:connector-curvature="0" class="st1" d="M-1077.6,2848.3v6.6l5.8-3.3v-6.6L-1077.6,2848.3z"/>
								</g>
								<g id="g5221">
									<path id="path5225" inkscape:connector-curvature="0" class="st1" d="M-1062.9,2848.3l-5.8-3.3v6.6l5.8,3.3V2848.3z"/>
								</g>
							</g>
						</g>
					</g>
				</g>
			</g>
			<path id="path5424" inkscape:connector-curvature="0" class="st6" d="M202.5,144.9l9.6,8.5l-12.8-0.3
				C202,151.4,203.3,148,202.5,144.9z"/>
			<path id="path5689" inkscape:connector-curvature="0" class="st6" d="M201.2,217.4l12,4.4l-12,4.5
				C203.1,223.6,203.1,220,201.2,217.4z"/>
			<rect id="rect6099" x="216.4" y="125.4" class="st5" width="92.7" height="49.5"/>
			<rect id="rect6105" x="216.4" y="194.1" class="st7" width="92.6" height="58.7"/>
			<path id="path7998" inkscape:connector-curvature="0" sodipodi:nodetypes="cc" class="st8" d="M268.7,175.7v17.9"/>
		</g>
	</g>
</g>
<g id="Layer_3">
	<line class="st9" x1="90.3" y1="51.8" x2="169.8" y2="85.8"/>
	<path class="st9" d="M169.3,157.6l-79,1L169.3,157.6z"/>
	<g>
		<path d="M32.8,90.6l1.7,3.7c0.2,0.5,0.4,1,0.6,1.5h0c0.2-0.5,0.3-1,0.5-1.6l1.4-3.7h1.2l-1.8,4.5c-0.5,1.2-1,2.5-1.6,3.3
			c-0.6,0.7-1.2,1.1-2,1.1c-0.3,0-0.5,0-0.6-0.1l0.1-0.9c0.1,0,0.2,0,0.4,0c0.9,0,1.4-0.9,1.7-1.5c0.1-0.2,0.1-0.3,0-0.5l-2.9-5.9
			H32.8z"/>
		<path d="M39.5,95.7H40c1,0,1.6-0.4,1.6-1c0-0.6-0.5-0.9-1.2-0.9c-0.5,0-1.1,0.2-1.5,0.4l-0.3-0.7c0.6-0.4,1.4-0.6,2.1-0.6
			c1,0,2.1,0.4,2.1,1.7c0,0.8-0.7,1.3-1.4,1.4v0c0.9,0.1,1.7,0.7,1.7,1.6c0,1.4-1.4,1.9-2.7,1.9c-0.7,0-1.5-0.2-2-0.5l0.3-0.8
			c0.5,0.2,1.1,0.4,1.7,0.4c0.9,0,1.5-0.5,1.5-1.1c0-0.8-0.9-1.1-1.8-1.1h-0.6V95.7z"/>
		<path d="M45.2,96.4c0,1.5,1,2.2,2.2,2.2c0.8,0,1.3-0.1,1.7-0.3l0.2,0.8c-0.4,0.2-1.1,0.4-2.1,0.4c-1.9,0-3.1-1.3-3.1-3.2
			s1.1-3.4,3-3.4c2.1,0,2.6,1.8,2.6,3c0,0.2,0,0.4,0,0.5H45.2z M48.5,95.6c0-0.7-0.3-1.9-1.6-1.9c-1.2,0-1.7,1.1-1.8,1.9H48.5z"/>
		<path d="M55.8,93.1v6.3h-1.1V94h-2.2v1.6c0,1.8-0.2,3-1,3.5c-0.3,0.2-0.7,0.4-1.2,0.4l-0.1-0.9c0.2,0,0.5-0.1,0.6-0.3
			c0.6-0.4,0.7-1.3,0.7-2.7v-2.5H55.8z"/>
		<path d="M65,99.4h-1.1v-6.6h-2.4v-0.9c0.3,0,0.6,0,0.9-0.1c0.3,0,0.6-0.1,0.8-0.3c0.2-0.1,0.4-0.3,0.6-0.5s0.3-0.5,0.3-0.9H65
			V99.4z"/>
	</g>
	<g>
		<path d="M31.9,202.6l1.7,3.7c0.2,0.5,0.4,1,0.6,1.5h0c0.2-0.5,0.3-1,0.5-1.6l1.4-3.7h1.2l-1.8,4.5c-0.5,1.2-1,2.5-1.6,3.3
			c-0.6,0.7-1.2,1.1-2,1.1c-0.3,0-0.5,0-0.6-0.1l0.1-0.9c0.1,0,0.2,0,0.4,0c0.9,0,1.4-0.9,1.7-1.5c0.1-0.2,0.1-0.3,0-0.5l-2.9-5.9
			H31.9z"/>
		<path d="M38.6,207.7h0.5c1,0,1.6-0.4,1.6-1c0-0.6-0.5-0.9-1.2-0.9c-0.5,0-1.1,0.2-1.5,0.4l-0.3-0.7c0.6-0.4,1.4-0.6,2.1-0.6
			c1,0,2.1,0.4,2.1,1.7c0,0.8-0.7,1.3-1.4,1.4v0c0.9,0.1,1.7,0.7,1.7,1.6c0,1.4-1.4,1.9-2.7,1.9c-0.7,0-1.5-0.2-2-0.5l0.3-0.8
			c0.5,0.2,1.1,0.4,1.7,0.4c0.9,0,1.5-0.5,1.5-1.1c0-0.8-0.9-1.1-1.8-1.1h-0.6V207.7z"/>
		<path d="M44.3,208.4c0,1.5,1,2.2,2.2,2.2c0.8,0,1.3-0.1,1.7-0.3l0.2,0.8c-0.4,0.2-1.1,0.4-2.1,0.4c-1.9,0-3.1-1.3-3.1-3.2
			s1.1-3.4,3-3.4c2.1,0,2.6,1.8,2.6,3c0,0.2,0,0.4,0,0.5H44.3z M47.7,207.6c0-0.7-0.3-1.9-1.6-1.9c-1.2,0-1.7,1.1-1.8,1.9H47.7z"/>
		<path d="M55,205.1v6.3h-1.1V206h-2.2v1.6c0,1.8-0.2,3-1,3.5c-0.3,0.2-0.7,0.4-1.2,0.4l-0.1-0.9c0.2,0,0.5-0.1,0.6-0.3
			c0.6-0.4,0.7-1.3,0.7-2.7v-2.5H55z"/>
		<path d="M60.1,205.4c0-0.5,0-0.9,0.1-1.3c0.1-0.4,0.3-0.7,0.6-1c0.3-0.3,0.6-0.5,0.9-0.7c0.4-0.2,0.8-0.2,1.3-0.2
			c0.4,0,0.8,0.1,1.1,0.2s0.7,0.3,0.9,0.5c0.3,0.2,0.5,0.5,0.6,0.8c0.2,0.3,0.2,0.7,0.2,1.1c0,0.4-0.1,0.8-0.2,1.1
			c-0.1,0.3-0.3,0.6-0.5,0.8s-0.4,0.5-0.7,0.7c-0.3,0.2-0.5,0.4-0.8,0.6c-0.3,0.2-0.6,0.3-0.9,0.5c-0.3,0.2-0.5,0.3-0.8,0.5
			c-0.2,0.2-0.4,0.4-0.6,0.6s-0.3,0.5-0.3,0.8h4.7v1h-6c0-0.5,0.1-1,0.3-1.4c0.2-0.4,0.3-0.7,0.6-1s0.5-0.5,0.8-0.7
			c0.3-0.2,0.6-0.4,0.9-0.6c0.4-0.2,0.7-0.5,1-0.7c0.3-0.2,0.5-0.4,0.7-0.6c0.2-0.2,0.3-0.4,0.4-0.7c0.1-0.2,0.1-0.5,0.1-0.8
			c0-0.3,0-0.5-0.1-0.7c-0.1-0.2-0.2-0.4-0.4-0.5c-0.2-0.1-0.3-0.3-0.6-0.3c-0.2-0.1-0.4-0.1-0.7-0.1c-0.3,0-0.6,0.1-0.8,0.2
			c-0.2,0.1-0.4,0.3-0.6,0.5c-0.1,0.2-0.3,0.5-0.3,0.7c-0.1,0.3-0.1,0.5-0.1,0.8H60.1z"/>
	</g>
	<g>
		<path d="M109.9,142.8c0,3-1.8,4.6-4.1,4.6c-2.3,0-3.9-1.8-3.9-4.4c0-2.8,1.7-4.6,4.1-4.6C108.4,138.3,109.9,140.2,109.9,142.8z
			 M103.1,142.9c0,1.9,1,3.5,2.8,3.5c1.8,0,2.8-1.7,2.8-3.6c0-1.7-0.9-3.6-2.8-3.6C104.1,139.2,103.1,141,103.1,142.9z"/>
		<path d="M116,138.8c-0.3,0.1-0.9,0.2-1.3,0.3c-1,0.2-1.8,0.5-2.2,1.2c-0.4,0.6-0.6,1.4-0.7,2.1h0c0.4-0.9,1.3-1.4,2.2-1.4
			c1.5,0,2.7,1.1,2.7,3.1c0,2.1-1.1,3.3-2.9,3.3c-2.2,0-2.9-2.1-2.9-4.2c0-1.4,0.3-2.6,1-3.5c0.6-0.9,1.5-1.3,2.7-1.5
			c0.5-0.1,1.1-0.2,1.6-0.3L116,138.8z M113.7,141.8c-0.7,0-1.2,0.4-1.4,0.9c-0.2,0.4-0.3,0.8-0.3,1.3c0,1,0.5,2.5,1.8,2.5
			c1.3,0,1.7-1.2,1.7-2.4C115.5,143.1,115.1,141.8,113.7,141.8z"/>
		<path d="M119.1,140.9v2.5h3v-2.5h1.1v6.3h-1.1v-2.8h-3v2.8h-1.1v-6.3H119.1z"/>
		<path d="M130.6,144c0,2.3-1.6,3.3-3.1,3.3c-1.7,0-3-1.2-3-3.2c0-2.1,1.4-3.3,3.1-3.3C129.4,140.8,130.6,142.1,130.6,144z
			 M125.6,144.1c0,1.4,0.8,2.4,1.9,2.4c1.1,0,1.9-1,1.9-2.4c0-1.1-0.5-2.4-1.9-2.4C126.2,141.7,125.6,142.9,125.6,144.1z"/>
		<path d="M131.9,141c0.4-0.1,1.3-0.1,2-0.1c1.1,0,2.8,0.2,2.8,1.6c0,0.8-0.6,1.3-1.3,1.4v0c0.9,0.1,1.6,0.7,1.6,1.6
			c0,1.7-2.1,1.9-3.3,1.9c-0.7,0-1.4-0.1-1.8-0.1V141z M133,146.5c0.3,0,0.6,0.1,0.9,0.1c0.8,0,1.9-0.2,1.9-1.1s-0.9-1.1-2-1.1H133
			V146.5z M133,143.6h0.9c0.8,0,1.7-0.2,1.7-1c0-0.6-0.5-0.9-1.7-0.9c-0.4,0-0.6,0-0.9,0.1V143.6z"/>
		<path d="M139.4,140.9v2.7c0,1,0,1.6-0.1,2.5l0,0c0.4-0.8,0.6-1.2,1-1.9l2-3.3h1.3v6.3h-1.1v-2.7c0-1,0-1.6,0.1-2.6h0
			c-0.4,0.8-0.7,1.3-1,2c-0.6,1-1.3,2.2-2,3.3h-1.3v-6.3H139.4z"/>
		<path d="M149.6,140.9v0.9h-2v5.4h-1.1v-5.4h-2v-0.9H149.6z"/>
		<path d="M151.6,140.9v2.1c0.3-0.1,0.7-0.1,1-0.1c1.4,0,2.9,0.4,2.9,2.1c0,0.7-0.3,1.1-0.7,1.4c-0.7,0.6-1.8,0.7-2.7,0.7
			c-0.6,0-1.2,0-1.7-0.1v-6.3H151.6z M151.6,146.4c0.2,0,0.5,0.1,0.8,0.1c0.9,0,2-0.3,2-1.3c0-1.1-1.1-1.3-2-1.3
			c-0.3,0-0.6,0-0.8,0.1V146.4z"/>
	</g>
	<g>
		<path d="M121.8,54.7c0,3-1.8,4.6-4.1,4.6c-2.3,0-3.9-1.8-3.9-4.4c0-2.8,1.7-4.6,4.1-4.6C120.3,50.2,121.8,52.1,121.8,54.7z
			 M115,54.8c0,1.9,1,3.5,2.8,3.5c1.8,0,2.8-1.7,2.8-3.6c0-1.7-0.9-3.6-2.8-3.6C116,51.2,115,52.9,115,54.8z"/>
		<path d="M127.9,50.7c-0.3,0.1-0.9,0.2-1.3,0.3c-1,0.2-1.8,0.5-2.2,1.2c-0.4,0.6-0.6,1.4-0.7,2.1h0c0.4-0.9,1.3-1.4,2.2-1.4
			c1.5,0,2.7,1.1,2.7,3.1c0,2.1-1.1,3.3-2.9,3.3c-2.2,0-2.9-2.1-2.9-4.2c0-1.4,0.3-2.6,1-3.5c0.6-0.9,1.5-1.3,2.7-1.5
			c0.5-0.1,1.1-0.2,1.6-0.3L127.9,50.7z M125.6,53.7c-0.7,0-1.2,0.4-1.4,0.9c-0.2,0.4-0.3,0.8-0.3,1.3c0,1,0.5,2.5,1.8,2.5
			c1.3,0,1.7-1.2,1.7-2.4C127.4,55,127,53.7,125.6,53.7z"/>
		<path d="M131,52.8v2.5h3v-2.5h1.1v6.3H134v-2.8h-3v2.8h-1.1v-6.3H131z"/>
		<path d="M142.5,55.9c0,2.3-1.6,3.3-3.1,3.3c-1.7,0-3-1.2-3-3.2c0-2.1,1.4-3.3,3.1-3.3C141.3,52.7,142.5,54,142.5,55.9z M137.5,56
			c0,1.4,0.8,2.4,1.9,2.4c1.1,0,1.9-1,1.9-2.4c0-1.1-0.5-2.4-1.9-2.4C138.1,53.6,137.5,54.8,137.5,56z"/>
		<path d="M143.8,52.9c0.4-0.1,1.3-0.1,2-0.1c1.1,0,2.8,0.2,2.8,1.6c0,0.8-0.6,1.3-1.3,1.4v0c0.9,0.1,1.6,0.6,1.6,1.6
			c0,1.7-2.1,1.9-3.3,1.9c-0.7,0-1.4-0.1-1.8-0.1V52.9z M144.9,58.4c0.3,0,0.6,0.1,0.9,0.1c0.8,0,1.9-0.2,1.9-1.1s-0.9-1.1-2-1.1
			h-0.8V58.4z M144.9,55.5h0.9c0.8,0,1.7-0.2,1.7-1c0-0.6-0.5-0.9-1.7-0.9c-0.4,0-0.6,0-0.9,0.1V55.5z"/>
		<path d="M151.3,52.8v2.7c0,1,0,1.6-0.1,2.5l0,0c0.4-0.8,0.6-1.2,1-1.9l2-3.3h1.3v6.3h-1.1v-2.7c0-1,0-1.6,0.1-2.6h0
			c-0.4,0.8-0.7,1.3-1,2c-0.6,1-1.3,2.2-2,3.3h-1.3v-6.3H151.3z"/>
		<path d="M161.5,52.8v0.9h-2v5.4h-1.1v-5.4h-2v-0.9H161.5z"/>
		<path d="M163.5,52.8V55c0.3-0.1,0.7-0.1,1-0.1c1.4,0,2.9,0.4,2.9,2.1c0,0.7-0.3,1.1-0.7,1.4c-0.7,0.6-1.8,0.7-2.7,0.7
			c-0.6,0-1.2,0-1.7-0.1v-6.3H163.5z M163.5,58.3c0.2,0,0.5,0.1,0.8,0.1c0.9,0,2-0.3,2-1.3c0-1.1-1.1-1.3-2-1.3
			c-0.3,0-0.6,0-0.8,0.1V58.3z"/>
	</g>
	<g>
		<path d="M210,65.8c0.6-0.4,1.3-0.6,2.1-0.6c1.4,0,2.4,0.7,2.4,2c0,1-0.7,1.8-1.7,2v0c1.1,0.1,2,0.9,2,2c0,1.7-1.5,2.4-2.9,2.4
			c-0.7,0-1.5-0.2-2.1-0.5l0.3-0.8c0.4,0.3,1.2,0.5,1.8,0.5c1.2,0,1.9-0.6,1.9-1.5c0-1.2-1.2-1.6-2.2-1.6h-0.5v-0.8h0.5
			c1.1,0,1.9-0.7,1.9-1.5c0-0.8-0.6-1.3-1.5-1.3c-0.6,0-1.2,0.3-1.7,0.5L210,65.8z"/>
		<path d="M219.1,73.4l-0.1-0.7h0c-0.3,0.5-0.9,0.9-1.8,0.9c-1.2,0-1.8-0.8-1.8-1.7c0-1.4,1.2-2.2,3.5-2.2v-0.1
			c0-0.5-0.1-1.3-1.3-1.3c-0.5,0-1.1,0.2-1.5,0.4l-0.2-0.7c0.5-0.3,1.2-0.5,1.9-0.5c1.8,0,2.2,1.2,2.2,2.4V72c0,0.5,0,1,0.1,1.4
			H219.1z M219,70.5c-1.2,0-2.5,0.2-2.5,1.3c0,0.7,0.5,1,1,1c0.8,0,1.2-0.5,1.4-1c0-0.1,0.1-0.2,0.1-0.3V70.5z"/>
		<path d="M222.4,67.6v2.5h0.3l2.2-2.5h1.3l-2.5,2.6c0.9,0.1,1.5,0.7,2,1.8c0.2,0.4,0.4,0.9,0.6,1.4h-1.1c-0.2-0.3-0.4-0.7-0.5-1.2
			c-0.4-0.9-0.9-1.4-1.9-1.4h-0.2v2.6h-1v-5.8H222.4z"/>
		<path d="M230.2,73.4l-0.1-0.7h0c-0.3,0.5-0.9,0.9-1.8,0.9c-1.2,0-1.8-0.8-1.8-1.7c0-1.4,1.2-2.2,3.5-2.2v-0.1
			c0-0.5-0.1-1.3-1.3-1.3c-0.5,0-1.1,0.2-1.5,0.4l-0.2-0.7c0.5-0.3,1.2-0.5,1.9-0.5c1.8,0,2.2,1.2,2.2,2.4V72c0,0.5,0,1,0.1,1.4
			H230.2z M230,70.5c-1.2,0-2.5,0.2-2.5,1.3c0,0.7,0.5,1,1,1c0.8,0,1.2-0.5,1.4-1c0-0.1,0.1-0.2,0.1-0.3V70.5z"/>
		<path d="M232.9,70.1h0.5c0.9,0,1.5-0.4,1.5-0.9c0-0.5-0.5-0.8-1.1-0.8c-0.5,0-1,0.2-1.4,0.4l-0.3-0.6c0.6-0.4,1.3-0.5,1.9-0.5
			c0.9,0,2,0.4,2,1.5c0,0.7-0.7,1.2-1.3,1.3v0c0.9,0.1,1.6,0.6,1.6,1.5c0,1.3-1.3,1.7-2.5,1.7c-0.7,0-1.4-0.2-1.9-0.5l0.3-0.7
			c0.4,0.2,1,0.4,1.5,0.4c0.9,0,1.4-0.4,1.4-1c0-0.8-0.8-1-1.7-1h-0.5V70.1z"/>
		<path d="M238.3,67.6v2c0.2,0,0.6-0.1,0.9-0.1c1.2,0,2.5,0.5,2.5,1.9c0,0.6-0.2,1-0.6,1.3c-0.6,0.5-1.6,0.7-2.3,0.7
			c-0.6,0-1.1,0-1.6-0.1v-5.8H238.3z M238.3,72.7c0.2,0,0.4,0,0.7,0c0.8,0,1.7-0.3,1.7-1.2c0-0.9-0.8-1.2-1.6-1.2
			c-0.3,0-0.6,0-0.8,0.1V72.7z M243.5,67.6v5.8h-1v-5.8H243.5z"/>
	</g>
	<g>
		<path d="M186.1,138.7h3.8c-0.1-1.6-1.1-2.8-2.8-2.8c-0.6,0-1.2,0.2-1.7,0.4l-0.3-0.8c0.6-0.3,1.3-0.5,2-0.5c2.5,0,3.8,1.8,3.8,4.2
			c0,2.7-1.8,4.2-3.9,4.2c-0.8,0-1.5-0.2-2.1-0.4l0.2-0.8c0.5,0.2,1.1,0.4,1.7,0.4c1.8,0,2.9-1.3,2.9-3h-3.8V138.7z"/>
		<path d="M196.3,137.4v5.8h-1v-5h-2v1.5c0,1.6-0.2,2.7-0.9,3.2c-0.3,0.2-0.6,0.4-1.2,0.4l-0.1-0.8c0.2,0,0.4-0.1,0.6-0.2
			c0.5-0.4,0.6-1.2,0.6-2.5v-2.3H196.3z"/>
		<path d="M198.4,140.5c0,1.4,0.9,2,2,2c0.8,0,1.2-0.1,1.6-0.3l0.2,0.8c-0.4,0.2-1,0.4-1.9,0.4c-1.8,0-2.9-1.2-2.9-2.9
			s1-3.1,2.7-3.1c1.9,0,2.4,1.7,2.4,2.7c0,0.2,0,0.4,0,0.5H198.4z M201.4,139.8c0-0.7-0.3-1.7-1.5-1.7c-1.1,0-1.5,1-1.6,1.7H201.4z"
			/>
		<path d="M203.5,137.4h1.3l1.1,2.9c0.1,0.4,0.4,1.1,0.5,1.6h0c0.1-0.4,0.5-1.4,0.7-2l0.9-2.5h1.3l0.4,5.8h-1l-0.1-2.8
			c0-0.6-0.1-1.4-0.1-2.1h0c-0.2,0.5-0.3,1-0.6,1.9l-1.1,2.9H206l-1-2.9c-0.2-0.6-0.4-1.4-0.6-1.9h0c0,0.7-0.1,1.5-0.1,2.1l-0.1,2.7
			h-1L203.5,137.4z"/>
		<path d="M211.4,140.5c0,1.4,0.9,2,2,2c0.8,0,1.2-0.1,1.6-0.3l0.2,0.8c-0.4,0.2-1,0.4-1.9,0.4c-1.8,0-2.9-1.2-2.9-2.9
			s1-3.1,2.7-3.1c1.9,0,2.4,1.7,2.4,2.7c0,0.2,0,0.4,0,0.5H211.4z M214.5,139.8c0-0.7-0.3-1.7-1.5-1.7c-1.1,0-1.5,1-1.6,1.7H214.5z"
			/>
		<path d="M217.6,137.4v2.3h2.8v-2.3h1v5.8h-1v-2.6h-2.8v2.6h-1v-5.8H217.6z"/>
		<path d="M226.7,137.4v0.8h-1.8v5h-1v-5H222v-0.8H226.7z"/>
		<path d="M228.3,137.4v2c0.2,0,0.6-0.1,0.9-0.1c1.2,0,2.5,0.5,2.5,1.9c0,0.6-0.2,1-0.6,1.3c-0.6,0.5-1.6,0.7-2.3,0.7
			c-0.6,0-1.1,0-1.6-0.1v-5.8H228.3z M228.3,142.5c0.2,0,0.4,0,0.7,0c0.8,0,1.7-0.3,1.7-1.2c0-0.9-0.8-1.2-1.6-1.2
			c-0.3,0-0.6,0-0.8,0.1V142.5z M233.6,137.4v5.8h-1v-5.8H233.6z"/>
		<path d="M238.5,139.9h0.5c0.9,0,1.5-0.4,1.5-0.9c0-0.5-0.5-0.8-1.1-0.8c-0.5,0-1,0.2-1.4,0.4l-0.3-0.6c0.6-0.4,1.3-0.5,1.9-0.5
			c0.9,0,2,0.4,2,1.5c0,0.7-0.7,1.2-1.3,1.3v0c0.9,0.1,1.6,0.6,1.6,1.5c0,1.3-1.3,1.7-2.5,1.7c-0.7,0-1.4-0.2-1.9-0.5l0.3-0.7
			c0.4,0.2,1,0.4,1.5,0.4c0.9,0,1.4-0.4,1.4-1c0-0.8-0.8-1-1.7-1h-0.5V139.9z"/>
		<path d="M246.1,143.2l-0.1-0.7h0c-0.3,0.5-0.9,0.9-1.8,0.9c-1.2,0-1.8-0.8-1.8-1.7c0-1.4,1.2-2.2,3.5-2.2v-0.1
			c0-0.5-0.1-1.3-1.3-1.3c-0.5,0-1.1,0.2-1.5,0.4l-0.2-0.7c0.5-0.3,1.2-0.5,1.9-0.5c1.8,0,2.2,1.2,2.2,2.4v2.2c0,0.5,0,1,0.1,1.4
			H246.1z M246,140.3c-1.2,0-2.5,0.2-2.5,1.3c0,0.7,0.5,1,1,1c0.8,0,1.2-0.5,1.4-1c0-0.1,0.1-0.2,0.1-0.3V140.3z"/>
		<path d="M249.4,137.4v2.5h0.3l2.2-2.5h1.3l-2.5,2.6c0.9,0.1,1.5,0.7,2,1.8c0.2,0.4,0.4,0.9,0.6,1.4h-1.1c-0.2-0.3-0.4-0.7-0.5-1.2
			c-0.4-0.9-0.9-1.4-1.9-1.4h-0.2v2.6h-1v-5.8H249.4z"/>
		<path d="M257.2,143.2l-0.1-0.7h0c-0.3,0.5-0.9,0.9-1.8,0.9c-1.2,0-1.8-0.8-1.8-1.7c0-1.4,1.2-2.2,3.5-2.2v-0.1
			c0-0.5-0.1-1.3-1.3-1.3c-0.5,0-1.1,0.2-1.5,0.4l-0.2-0.7c0.5-0.3,1.2-0.5,1.9-0.5c1.8,0,2.2,1.2,2.2,2.4v2.2c0,0.5,0,1,0.1,1.4
			H257.2z M257,140.3c-1.2,0-2.5,0.2-2.5,1.3c0,0.7,0.5,1,1,1c0.8,0,1.2-0.5,1.4-1c0-0.1,0.1-0.2,0.1-0.3V140.3z"/>
		<path d="M259.9,139.9h0.5c0.9,0,1.5-0.4,1.5-0.9c0-0.5-0.5-0.8-1.1-0.8c-0.5,0-1,0.2-1.4,0.4l-0.3-0.6c0.6-0.4,1.3-0.5,1.9-0.5
			c0.9,0,2,0.4,2,1.5c0,0.7-0.7,1.2-1.3,1.3v0c0.9,0.1,1.6,0.6,1.6,1.5c0,1.3-1.3,1.7-2.5,1.7c-0.7,0-1.4-0.2-1.9-0.5l0.3-0.7
			c0.4,0.2,1,0.4,1.5,0.4c0.9,0,1.4-0.4,1.4-1c0-0.8-0.8-1-1.7-1h-0.5V139.9z"/>
		<path d="M267.5,143.2l-0.1-0.7h0c-0.3,0.5-0.9,0.9-1.8,0.9c-1.2,0-1.8-0.8-1.8-1.7c0-1.4,1.2-2.2,3.5-2.2v-0.1
			c0-0.5-0.1-1.3-1.3-1.3c-0.5,0-1.1,0.2-1.5,0.4l-0.2-0.7c0.5-0.3,1.2-0.5,1.9-0.5c1.8,0,2.2,1.2,2.2,2.4v2.2c0,0.5,0,1,0.1,1.4
			H267.5z M267.4,140.3c-1.2,0-2.5,0.2-2.5,1.3c0,0.7,0.5,1,1,1c0.8,0,1.2-0.5,1.4-1c0-0.1,0.1-0.2,0.1-0.3V140.3z"/>
	</g>
	<g>
		<path d="M86.1,187.1c-0.6-1-1.1-1.9-1.5-2.9c-0.4-1-0.6-2-0.6-3.2c0-1,0.2-2.1,0.5-3.1s0.9-2,1.5-2.9h0.8c-0.6,1-1.1,2-1.3,2.9
			c-0.3,1-0.4,2-0.4,3.1c0,1.1,0.1,2.1,0.4,3.1c0.3,1,0.7,2,1.3,3H86.1z"/>
		<path d="M88.2,180.8h0.5c1,0,1.6-0.4,1.6-1c0-0.6-0.5-0.9-1.2-0.9c-0.5,0-1.1,0.2-1.5,0.4l-0.3-0.7c0.6-0.4,1.4-0.6,2.1-0.6
			c1,0,2.1,0.4,2.1,1.7c0,0.8-0.7,1.3-1.4,1.4v0c0.9,0.1,1.7,0.7,1.7,1.6c0,1.4-1.4,1.9-2.7,1.9c-0.7,0-1.5-0.2-2-0.5l0.3-0.8
			c0.5,0.2,1.1,0.4,1.7,0.4c0.9,0,1.5-0.5,1.5-1.1c0-0.8-0.9-1.1-1.8-1.1h-0.6V180.8z"/>
		<path d="M96.6,184.5l-0.1-0.8h0c-0.4,0.5-1,0.9-1.9,0.9c-1.3,0-1.9-0.9-1.9-1.8c0-1.5,1.4-2.4,3.8-2.3v-0.1c0-0.5-0.1-1.5-1.4-1.5
			c-0.6,0-1.2,0.2-1.6,0.5l-0.3-0.8c0.5-0.3,1.3-0.6,2.1-0.6c1.9,0,2.4,1.3,2.4,2.6v2.4c0,0.5,0,1.1,0.1,1.5H96.6z M96.4,181.3
			c-1.2,0-2.7,0.2-2.7,1.4c0,0.7,0.5,1.1,1.1,1.1c0.8,0,1.3-0.5,1.5-1.1c0-0.1,0.1-0.2,0.1-0.4V181.3z"/>
		<path d="M104,176.1c-0.3,0.1-0.9,0.2-1.3,0.3c-1,0.2-1.8,0.5-2.2,1.2c-0.4,0.6-0.6,1.4-0.7,2.1h0c0.4-0.9,1.3-1.4,2.2-1.4
			c1.5,0,2.7,1.1,2.7,3.1c0,2.1-1.1,3.3-2.9,3.3c-2.2,0-2.9-2.1-2.9-4.2c0-1.4,0.3-2.6,1-3.5c0.6-0.9,1.5-1.3,2.7-1.5
			c0.5-0.1,1.1-0.2,1.6-0.3L104,176.1z M101.8,179.1c-0.7,0-1.2,0.4-1.4,0.9c-0.2,0.4-0.3,0.8-0.3,1.3c0,1,0.5,2.5,1.8,2.5
			c1.3,0,1.7-1.2,1.7-2.4C103.5,180.4,103.1,179.1,101.8,179.1z"/>
		<path d="M110.8,178.2v6.3h-1.1v-5.4h-2.2v1.6c0,1.8-0.2,3-1,3.5c-0.3,0.2-0.7,0.4-1.2,0.4l-0.1-0.9c0.2,0,0.5-0.1,0.6-0.3
			c0.6-0.4,0.7-1.3,0.7-2.7v-2.5H110.8z"/>
		<path d="M118.2,181.3c0,2.3-1.6,3.3-3.1,3.3c-1.7,0-3-1.2-3-3.2c0-2.1,1.4-3.3,3.1-3.3C117,178.1,118.2,179.4,118.2,181.3z
			 M113.2,181.4c0,1.4,0.8,2.4,1.9,2.4c1.1,0,1.9-1,1.9-2.4c0-1.1-0.5-2.4-1.9-2.4C113.8,178.9,113.2,180.2,113.2,181.4z"/>
		<path d="M120.7,178.2v2.7h0.3l2.4-2.7h1.4l-2.7,2.8c1,0.1,1.6,0.8,2.1,1.9c0.2,0.4,0.4,1,0.7,1.5h-1.2c-0.2-0.3-0.4-0.8-0.6-1.3
			c-0.4-1-1-1.5-2.1-1.5h-0.2v2.8h-1.1v-6.3H120.7z"/>
		<path d="M126.7,178.2v2.7c0,1,0,1.6-0.1,2.5l0,0c0.4-0.8,0.6-1.2,1-1.9l2-3.3h1.3v6.3h-1.1v-2.7c0-1,0-1.6,0.1-2.6h0
			c-0.4,0.8-0.7,1.3-1,2c-0.6,1-1.3,2.2-2,3.3h-1.3v-6.3H126.7z"/>
		<path d="M132.8,180.3c0-0.8,0-1.5-0.1-2.1h1l0.1,1.1h0c0.5-0.8,1.2-1.2,2.2-1.2c1.5,0,2.7,1.3,2.7,3.2c0,2.3-1.4,3.4-2.9,3.4
			c-0.8,0-1.6-0.4-1.9-1h0v3.4h-1.1V180.3z M133.9,181.9c0,0.2,0,0.3,0.1,0.5c0.2,0.8,0.9,1.3,1.7,1.3c1.2,0,1.9-1,1.9-2.4
			c0-1.3-0.7-2.3-1.9-2.3c-0.8,0-1.5,0.6-1.7,1.4c0,0.1-0.1,0.3-0.1,0.5V181.9z"/>
		<path d="M145.7,181.3c0,2.3-1.6,3.3-3.1,3.3c-1.7,0-3-1.2-3-3.2c0-2.1,1.4-3.3,3.1-3.3C144.5,178.1,145.7,179.4,145.7,181.3z
			 M140.7,181.4c0,1.4,0.8,2.4,1.9,2.4c1.1,0,1.9-1,1.9-2.4c0-1.1-0.5-2.4-1.9-2.4C141.3,178.9,140.7,180.2,140.7,181.4z"/>
		<path d="M147,178.3c0.4-0.1,1.3-0.1,2-0.1c1.1,0,2.8,0.2,2.8,1.6c0,0.8-0.6,1.3-1.3,1.4v0c0.9,0.1,1.6,0.7,1.6,1.6
			c0,1.7-2.1,1.9-3.3,1.9c-0.7,0-1.4-0.1-1.8-0.1V178.3z M148.1,183.7c0.3,0,0.6,0.1,0.9,0.1c0.8,0,1.9-0.2,1.9-1.1s-0.9-1.1-2-1.1
			h-0.8V183.7z M148.1,180.8h0.9c0.8,0,1.7-0.2,1.7-1c0-0.6-0.5-0.9-1.7-0.9c-0.4,0-0.6,0-0.9,0.1V180.8z"/>
		<path d="M156.9,184.5l-0.1-0.8h0c-0.4,0.5-1,0.9-1.9,0.9c-1.3,0-1.9-0.9-1.9-1.8c0-1.5,1.4-2.4,3.8-2.3v-0.1
			c0-0.5-0.1-1.5-1.4-1.5c-0.6,0-1.2,0.2-1.6,0.5l-0.3-0.8c0.5-0.3,1.3-0.6,2.1-0.6c1.9,0,2.4,1.3,2.4,2.6v2.4c0,0.5,0,1.1,0.1,1.5
			H156.9z M156.8,181.3c-1.2,0-2.7,0.2-2.7,1.4c0,0.7,0.5,1.1,1.1,1.1c0.8,0,1.3-0.5,1.5-1.1c0-0.1,0.1-0.2,0.1-0.4V181.3z"/>
		<path d="M160.7,178.2v2.5h3v-2.5h1.1v6.3h-1.1v-2.8h-3v2.8h-1.1v-6.3H160.7z"/>
		<path d="M172.3,181.3c0,2.3-1.6,3.3-3.1,3.3c-1.7,0-3-1.2-3-3.2c0-2.1,1.4-3.3,3.1-3.3C171,178.1,172.3,179.4,172.3,181.3z
			 M167.3,181.4c0,1.4,0.8,2.4,1.9,2.4c1.1,0,1.9-1,1.9-2.4c0-1.1-0.5-2.4-1.9-2.4C167.9,178.9,167.3,180.2,167.3,181.4z"/>
		<path d="M172.5,187.1c0.6-1,1.1-2,1.3-2.9c0.3-1,0.4-2,0.4-3.1c0-1.1-0.1-2.1-0.4-3.1c-0.3-1-0.7-2-1.3-3h0.8
			c0.3,0.5,0.6,1,0.8,1.4c0.3,0.5,0.5,1,0.6,1.5c0.2,0.5,0.3,1,0.4,1.5c0.1,0.5,0.1,1.1,0.1,1.6c0,1-0.2,2.1-0.5,3.1s-0.9,2-1.5,2.9
			H172.5z"/>
	</g>
</g>
<g id="Layer_2" class="st10">
	
		<image style="display:inline;overflow:visible;" width="354" height="217" xlink:href="2A2AC6E4.jpg"  transform="matrix(1 0 0 1 0.1954 0.4408)">
	</image>
</g>
</svg>
