<svg xmlns="http://www.w3.org/2000/svg" viewBox="0 0 477.3 264.1"><title>OJ103614615</title><g id="Shapes"><path id="path34" d="M122,215.7c0-10.2,14.2-18.5,31.6-18.5s31.6,8.3,31.6,18.5-14.1,18.5-31.6,18.5S122,226,122,215.7" fill="none" stroke="#000" stroke-linecap="round" stroke-linejoin="round" stroke-width="0.67"/><path id="path48" d="M262.5,57.9c0-14.5,17-26.3,38.1-26.3s38.1,11.8,38.1,26.3-17,26.3-38.1,26.3-38.1-11.8-38.1-26.3" fill="none" stroke="#000" stroke-linecap="round" stroke-linejoin="round" stroke-width="0.67"/><path id="path64" d="M384.4,234.2c0-10.6,16.6-19.3,37-19.3s37,8.6,37,19.3-16.6,19.3-37,19.3-37-8.6-37-19.3" fill="none" stroke="#000" stroke-linecap="round" stroke-linejoin="round" stroke-width="0.67"/><path id="path78" d="M13,45.6c0-11.1,13.1-20.2,29.2-20.2s29.2,9,29.2,20.2S58.3,65.8,42.2,65.8,13,56.7,13,45.6" fill="none" stroke="#000" stroke-linecap="round" stroke-linejoin="round" stroke-width="0.67"/><path id="path92" d="M382.7,33.4c0-11.3,18.8-20.5,42-20.5s42,9.2,42,20.5-18.8,20.5-42,20.5-42-9.2-42-20.5" fill="none" stroke="#000" stroke-linecap="round" stroke-linejoin="round" stroke-width="0.67"/><path id="path108" d="M2,176.7c0-11.1,14.32-20.2,32.06-20.2s32.07,9,32.07,20.2S51.8,196.9,34.06,196.9,2,187.8,2,176.7" fill="none" stroke="#000" stroke-linecap="round" stroke-linejoin="round" stroke-width="0.7"/><path id="path122" d="M290.1,141.8c0-9.9,15.6-18,34.9-18s34.9,8,34.9,18-15.6,18-34.9,18-34.9-8-34.9-18" fill="none" stroke="#000" stroke-linecap="round" stroke-linejoin="round" stroke-width="0.67"/><path id="path150" d="M399.7,106.9c0-12.6,13-22.8,28.9-22.8s28.9,10.2,28.9,22.8-12.9,22.8-28.9,22.8-28.9-10.2-28.9-22.8" fill="none" stroke="#000" stroke-linecap="round" stroke-linejoin="round" stroke-width="0.67"/><path id="path166" d="M252,244.8c0-10.5,16-19,35.8-19s35.8,8.5,35.8,19-16,19-35.8,19-35.8-8.5-35.8-19" fill="none" stroke="#000" stroke-linecap="round" stroke-linejoin="round" stroke-width="0.67"/><path id="path175" d="M88.3,34.1c0-11.7,18.2-21.2,40.6-21.2s40.7,9.5,40.7,21.2-18.2,21.2-40.7,21.2S88.3,45.8,88.3,34.1" fill="none" stroke="#000" stroke-linecap="round" stroke-linejoin="round" stroke-width="0.67"/><g id="shape52-83"><path id="path198" d="M178.19,142.89l-24.3,54.5" fill="none" stroke="#000" stroke-linecap="round" stroke-linejoin="round" stroke-width="0.33"/></g><g id="shape58-89"><path id="path208" d="M416.08,214l-84.7-140.6" fill="none" stroke="#000" stroke-linecap="round" stroke-linejoin="round" stroke-width="0.33"/></g><path id="path220" d="M1.88,242.35c0-11,20.1-20,45.06-20s45.06,9,45.06,20-20.11,20-45.06,20-45.06-8.9-45.06-20" fill="none" stroke="#000" stroke-linecap="round" stroke-linejoin="round" stroke-width="0.74"/><g id="shape63-98"><path id="path227" d="M232.09,98.07,267,73" fill="none" stroke="#000" stroke-linecap="round" stroke-linejoin="round" stroke-width="0.33"/></g><g id="shape65-101"><path id="path232" d="M337.27,64l62.4,43.1" fill="none" stroke="#000" stroke-linecap="round" stroke-linejoin="round" stroke-width="0.33"/></g><g id="shape67-104"><path id="path237" d="M328.08,38.92l54.8-8" fill="none" stroke="#000" stroke-linecap="round" stroke-linejoin="round" stroke-width="0.33"/></g><g id="shape70-107"><path id="path242" d="M91.31,101.81l72.78,19.55" fill="none" stroke="#000" stroke-linecap="round" stroke-linejoin="round" stroke-width="0.33"/></g><g id="shape73-110"><path id="path247" d="M71,115.41l60.37,87.45" fill="none" stroke="#000" stroke-linecap="round" stroke-linejoin="round" stroke-width="0.33"/></g><g id="shape76-113"><path id="path252" d="M176.06,228.86,252,245" fill="none" stroke="#000" stroke-linecap="round" stroke-linejoin="round" stroke-width="0.33"/></g><g id="shape77-116"><path id="path257" d="M212.33,150.4l55.9,78.5" fill="none" stroke="#000" stroke-linecap="round" stroke-linejoin="round" stroke-width="0.33"/></g><g id="shape78-119"><path id="path262" d="M290.28,141.38l-46.5-20" fill="none" stroke="#000" stroke-linecap="round" stroke-linejoin="round" stroke-width="0.33"/></g><g id="shape79-122"><path id="path267" d="M122.32,216l-61-28.6" fill="none" stroke="#000" stroke-linecap="round" stroke-linejoin="round" stroke-width="0.33"/></g><g id="shape80-125"><path id="path272" d="M131.39,228.89,91.75,240" fill="none" stroke="#000" stroke-linecap="round" stroke-linejoin="round" stroke-width="0.33"/></g><g id="shape81-128"><path id="path277" d="M175.8,98,67.9,56" fill="none" stroke="#000" stroke-linecap="round" stroke-linejoin="round" stroke-width="0.33"/></g><g id="shape82-131"><path id="path282" d="M304.61,84.14l4.7,40" fill="none" stroke="#000" stroke-linecap="round" stroke-linejoin="round" stroke-width="0.33"/></g><g id="shape94-134"><path id="path287" d="M303.16,109.49h-.3v-1.3c0-.1.1,0,.1,0h.2v.1l.1,1.1h0c0,.1,0,.1-.1.1Z" fill="#fff"/></g><g id="shape96-136"><path id="path292" d="M268.33,32.75,273.92,38" fill="none" stroke="#000" stroke-linecap="round" stroke-linejoin="round" stroke-width="0.33"/></g><g id="shape97-139"><path id="path297" d="M169.77,37.55l92.3,16.1" fill="none" stroke="#000" stroke-linecap="round" stroke-linejoin="round" stroke-width="0.33"/></g><path id="path78-2" data-name="path78" d="M2.88,98.2C2.88,87.1,22.78,78,47.25,78c24.62,0,44.38,9,44.38,20.2s-19.91,20.2-44.38,20.2S2.88,109.3,2.88,98.2" fill="none" stroke="#000" stroke-linecap="round" stroke-linejoin="round" stroke-width="0.83"/><path id="path175-2" data-name="path175" d="M195.7,22.3c0-10.51,17.4-19.2,38.8-19.2s38.8,8.57,38.8,19.2-17.4,19.2-38.8,19.2-38.8-8.57-38.8-19.2" fill="none" stroke="#000" stroke-linecap="round" stroke-linejoin="round" stroke-width="0.74"/><path id="path78-3" data-name="path78" d="M164.8,120.4c0-16.5,17.5-30,38.9-30,21.6,0,38.9,13.4,38.9,30s-17.5,30-38.9,30c-21.4-.2-38.9-13.5-38.9-30" fill="none" stroke="#000" stroke-linecap="round" stroke-linejoin="round" stroke-width="0.67"/></g><g id="Text"><text transform="translate(15.57 47.4)" font-size="10" font-family="SegoePrint, Segoe Print">Возвраты</text><text transform="translate(9.12 97.45)" font-size="11" font-family="SegoePrint, Segoe Print">Выставление<tspan x="18.17" y="13.2">счетов</tspan></text><text transform="translate(6.34 178.48)" font-size="9" font-family="SegoePrint, Segoe Print">Лояльность</text><text transform="translate(133.54 213.47)" font-size="9" font-family="SegoePrint, Segoe Print"><tspan letter-spacing="-0.02em">У</tspan><tspan x="6.01" y="0">четные</tspan><tspan x="5.17" y="10.8">записи</tspan></text><text transform="translate(271.77 237.3)" font-size="9" font-family="SegoePrint, Segoe Print"><tspan letter-spacing="0.01em">Ц</tspan><tspan x="8.02" y="0">ентр</tspan><tspan x="-8.7" y="10.8">обработки</tspan><tspan x="-0.97" y="21.6">вызовов</tspan></text><text transform="translate(299.76 139.98)" font-size="9" font-family="SegoePrint, Segoe Print"><tspan letter-spacing="-0.02em">С</tspan><tspan x="6.12" y="0">торонние</tspan><tspan x="15.35" y="10.8">лица</tspan></text><text transform="translate(209.32 16.97)" font-size="8" font-family="SegoePrint, Segoe Print"><tspan letter-spacing="-0.03em">С</tspan><tspan x="5.36" y="0">овместн</tspan><tspan x="42.12" y="0" letter-spacing="0.01em">о</tspan><tspan x="46.74" y="0">е</tspan><tspan x="-3.98" y="10">использование</tspan><tspan x="13.79" y="20">дрона</tspan></text><text transform="translate(4.66 243.03)" font-size="9" font-family="SegoePrint, Segoe Print"><tspan letter-spacing="-0.02em">П</tspan><tspan x="6.71" y="0">ользовательская</tspan><tspan x="27.35" y="10.8">оценка</tspan></text><text transform="translate(393.44 236.6)" font-size="9" font-family="SegoePrint, Segoe Print">Анализ E<tspan x="43.23" y="0" letter-spacing="-0.04em">T</tspan><tspan x="48.92" y="0">A</tspan></text><text transform="translate(174.52 124.3)" font-size="11" font-family="SegoePrint, Segoe Print">Доставка</text><text transform="translate(98.14 34.33)" font-size="9" font-family="SegoePrint, Segoe Print">Ви<tspan x="12.38" y="0" letter-spacing="0.03em">д</tspan><tspan x="17.38" y="0">еонаблюд</tspan><tspan x="20.32" y="10.8">ение</tspan></text><text transform="translate(275.17 56.88)" font-size="9" font-family="SegoePrint, Segoe Print"><tspan letter-spacing="-0.03em">У</tspan><tspan x="5.92" y="0">правление </tspan><tspan x="6.76" y="10.8">дронами</tspan></text><text transform="translate(400.07 30.86)" font-size="9" font-family="SegoePrint, Segoe Print"><tspan letter-spacing="-0.01em">П</tspan><tspan x="6.8" y="0">рогнозной </tspan><tspan x="10.81" y="10.8">анализ</tspan></text><text transform="translate(409.11 104.48)" font-size="9" font-family="SegoePrint, Segoe Print"><tspan letter-spacing="-0.03em">Р</tspan><tspan x="6.1" y="0">емонт </tspan><tspan x="3.82" y="10.8">дронов</tspan></text></g></svg>