<svg xmlns="http://www.w3.org/2000/svg" viewBox="0 0 457.04 220.02"><title>OJ103614597</title><g id="Shapes"><rect x="1.75" y="141.37" width="176.99" height="49.51" fill="#fff"/><path d="M178.23,141.87v48.51H2.25V141.87h176m1-1H1.25v50.51h178Z"/><line x1="40.33" y1="141.47" x2="40.33" y2="116.21" fill="none" stroke="#000" stroke-miterlimit="10"/><circle cx="40.33" cy="111.4" r="4.81" fill="none" stroke="#000" stroke-miterlimit="10"/><line x1="140.15" y1="141.47" x2="140.15" y2="116.21" fill="none" stroke="#000" stroke-miterlimit="10"/><circle cx="140.15" cy="111.4" r="4.81" fill="none" stroke="#000" stroke-miterlimit="10"/><rect x="1.75" y="0.5" width="77.17" height="53.12" fill="#fff"/><path d="M78.42,1V53.12H2.25V1H78.42m1-1H1.25V54.12H79.42Z"/><line x1="40.33" y1="53.68" x2="40.33" y2="94.61" fill="none" stroke="#000" stroke-miterlimit="10"/><polygon points="35.35 93.15 40.33 101.78 45.32 93.15 35.35 93.15"/><rect x="101.56" y="0.5" width="77.17" height="53.12" fill="#fff"/><path d="M178.23,1V53.12H102.07V1h76.16m1-1H101.07V54.12h78.16Z"/><line x1="140.15" y1="53.68" x2="140.15" y2="94.61" fill="none" stroke="#000" stroke-miterlimit="10"/><polygon points="135.16 93.15 140.15 101.78 145.14 93.15 135.16 93.15"/><line x1="292.14" y1="141.47" x2="292.14" y2="116.21" fill="none" stroke="#000" stroke-miterlimit="10"/><circle cx="292.14" cy="111.4" r="4.81" fill="none" stroke="#000" stroke-miterlimit="10"/><line x1="397.95" y1="141.47" x2="397.95" y2="116.21" fill="none" stroke="#000" stroke-miterlimit="10"/><circle cx="398.08" cy="111.4" r="4.81" fill="none" stroke="#000" stroke-miterlimit="10"/><rect x="253.55" y="0.5" width="77.17" height="53.12" fill="#fff"/><path d="M330.22,1V53.12H254.05V1h76.17m1-1H253.05V54.12h78.17Z"/><line x1="292.14" y1="53.68" x2="292.14" y2="94.61" fill="none" stroke="#000" stroke-miterlimit="10"/><polygon points="287.15 93.15 292.14 101.78 297.12 93.15 287.15 93.15"/><rect x="379.37" y="0.5" width="77.17" height="53.12" fill="#fff"/><path d="M456,1V53.12H379.87V1H456m1-1H378.87V54.12H457Z"/><line x1="397.95" y1="53.68" x2="397.95" y2="94.61" fill="none" stroke="#000" stroke-miterlimit="10"/><polygon points="392.97 93.15 397.95 101.78 402.94 93.15 392.97 93.15"/><rect x="253.55" y="139.56" width="77.17" height="53.12" fill="#fff"/><path d="M330.22,140.06v52.12H254.05V140.06h76.17m1-1H253.05v54.12h78.17Z"/><rect x="379.37" y="139.56" width="77.17" height="53.12" fill="#fff"/><path d="M456,140.06v52.12H379.87V140.06H456m1-1H378.87v54.12H457Z"/></g><g id="Text"><text transform="translate(117.17 21.22)" font-size="14.5" font-family="SegoeUI, Segoe UI">Клиент<tspan x="-6.38" y="17.4">версии 2</tspan></text><text transform="translate(17.14 21.22)" font-size="14.5" font-family="SegoeUI, Segoe UI">Клиент<tspan x="-6.38" y="17.4">версии 1</tspan></text><text transform="translate(51.47 114.41)" font-size="11" font-family="SegoeUI, Segoe UI">Версия 1</text><text transform="translate(65.13 169.24)" font-size="14.5" font-family="SegoeUI, Segoe UI">Служба</text><text transform="translate(3.18 216.68)" font-size="11" font-family="SegoeUI-Italic, Segoe UI" font-style="italic">Служба поддерживает две версии</text><text transform="translate(153.28 115.61)" font-size="11" font-family="SegoeUI, Segoe UI">Версия 2</text><text transform="translate(394.98 21.22)" font-size="14.5" font-family="SegoeUI, Segoe UI">Клиент<tspan x="-6.38" y="17.4">версии 2</tspan></text><text transform="translate(269.95 21.22)" font-size="14.5" font-family="SegoeUI, Segoe UI">Клиент<tspan x="-6.38" y="17.4">версии 1</tspan></text><text transform="translate(306.53 114.41)" font-size="11" font-family="SegoeUI, Segoe UI">Версия 1</text><text transform="translate(281.73 216.68)" font-size="10" font-family="SegoeUI-Italic, Segoe UI" font-style="italic">Параллельное разве<tspan x="93.13" y="0" letter-spacing="-0.02em">р</tspan><tspan x="98.34" y="0">тывание</tspan></text><text transform="translate(408.51 115.61)" font-size="11" font-family="SegoeUI, Segoe UI">Версия 2</text><text transform="translate(268.39 162.54)" font-size="14.4" font-family="SegoeUI, Segoe UI">Служба <tspan x="-4.42" y="17.28">версии 1</tspan></text><text transform="translate(392.89 162.54)" font-size="14.4" font-family="SegoeUI, Segoe UI">Служба <tspan x="-4.42" y="17.28">версии 2</tspan></text></g></svg>