<svg xmlns="http://www.w3.org/2000/svg" viewBox="0 0 751 266.87"><defs><style>.cls-1{fill:none;stroke:#afafaf;stroke-miterlimit:10;stroke-width:6px;}.cls-2{fill:#afafaf;}.cls-3{fill:#3fa0ec;}.cls-4{font-size:18px;}.cls-4,.cls-6{fill:#fff;font-family:ArialMT, Arial;}.cls-5{letter-spacing:0.01em;}.cls-6{font-size:18.04px;}.cls-7{letter-spacing:0.02em;}.cls-8{letter-spacing:0.01em;}.cls-9{letter-spacing:-0.01em;}.cls-10{letter-spacing:-0.02em;}.cls-11{letter-spacing:-0.03em;}.cls-12{letter-spacing:-0.01em;}.cls-13{letter-spacing:-0.03em;}.cls-14{letter-spacing:-0.02em;}.cls-15{letter-spacing:0.02em;}.cls-16{letter-spacing:-0.01em;}</style></defs><title>OJ103514635</title><g id="Shapes"><line class="cls-1" x1="102" y1="152" x2="132.24" y2="152"/><polygon class="cls-2" points="130.05 159.48 143 152 130.05 144.52 130.05 159.48"/><line class="cls-1" x1="105" y1="56.86" x2="132.24" y2="56.86"/><polygon class="cls-2" points="130.05 64.34 143 56.86 130.05 49.38 130.05 64.34"/><line class="cls-1" x1="606" y1="104.87" x2="626.23" y2="104.88"/><polygon class="cls-2" points="624.04 112.35 637 104.88 624.05 97.39 624.04 112.35"/><line class="cls-1" x1="446" y1="169.82" x2="626.24" y2="169.22"/><polygon class="cls-2" points="624.07 176.71 637 169.19 624.02 161.75 624.07 176.71"/><line class="cls-1" x1="451" y1="134.18" x2="467.22" y2="134.18"/><polygon class="cls-2" points="465.03 141.66 477.99 134.18 465.03 126.7 465.03 141.66"/><line class="cls-1" x1="446" y1="39.05" x2="626.24" y2="39.64"/><polygon class="cls-2" points="624.02 47.11 637 39.68 624.07 32.15 624.02 47.11"/><line class="cls-1" x1="451" y1="74.68" x2="467.22" y2="74.68"/><polygon class="cls-2" points="465.03 82.16 477.99 74.68 465.03 67.2 465.03 82.16"/><rect class="cls-3" x="142.5" y="118.64" width="182" height="67" rx="8" ry="8"/><rect class="cls-3" x="328.5" y="118.36" width="123" height="67" rx="8" ry="8"/><rect class="cls-3" x="328.5" y="23.36" width="123" height="67" rx="8" ry="8"/><rect class="cls-3" x="142.5" y="23.36" width="182" height="67" rx="8" ry="8"/><rect class="cls-3" x="637" width="114" height="209" rx="8" ry="8"/><rect class="cls-3" x="0.25" width="105" height="209" rx="8" ry="8"/><rect class="cls-3" y="217.87" width="751" height="49" rx="8" ry="8"/><rect class="cls-3" x="478.75" y="52.5" width="134" height="104" rx="8" ry="8"/></g><g id="txt"><text class="cls-4" transform="translate(320.72 246.32)">Ор<tspan class="cls-5" x="24.01" y="0">к</tspan><tspan x="32.09" y="0">естрация</tspan></text><text class="cls-6" transform="translate(504.67 90.08)">Хранение <tspan x="-21.12" y="20">аналитических </tspan><tspan x="9.85" y="40">данных</tspan></text><text class="cls-6" transform="translate(652.43 88.96)">Аналити<tspan class="cls-7" x="70.97" y="0">к</tspan><tspan x="79.26" y="0">а </tspan><tspan x="-1.68" y="20">и </tspan><tspan class="cls-8" x="13.41" y="20">с</tspan><tspan class="cls-9" x="22.63" y="20">о</tspan><tspan class="cls-10" x="32.46" y="20">з</tspan><tspan x="40.34" y="20">дание </tspan><tspan class="cls-10" x="12.44" y="40">о</tspan><tspan x="22.08" y="40">тч</tspan><tspan class="cls-11" x="39.74" y="40">е</tspan><tspan class="cls-12" x="49.17" y="40">т</tspan><tspan x="57.23" y="40">ов</tspan></text><text class="cls-4" transform="translate(351.81 49.81)">Па<tspan class="cls-5" x="22.95" y="0">к</tspan><tspan class="cls-13" x="31.03" y="0">е</tspan><tspan x="40.44" y="0">тная </tspan><tspan x="-4.21" y="21.6">обраб</tspan><tspan class="cls-14" x="46.45" y="21.6">о</tspan><tspan x="56.06" y="21.6">т</tspan><tspan class="cls-15" x="64.31" y="21.6">к</tspan><tspan x="72.58" y="21.6">а</tspan></text><text class="cls-4" transform="translate(347.9 145.12)">П<tspan class="cls-14" x="12.94" y="0">о</tspan><tspan class="cls-16" x="22.55" y="0">т</tspan><tspan x="30.59" y="0">о</tspan><tspan class="cls-5" x="40.61" y="0">к</tspan><tspan x="48.68" y="0">о</tspan><tspan class="cls-16" x="58.69" y="0">в</tspan><tspan x="68.05" y="0">ая </tspan><tspan x="0.51" y="21.6">обраб</tspan><tspan class="cls-14" x="51.16" y="21.6">о</tspan><tspan x="60.78" y="21.6">т</tspan><tspan class="cls-15" x="69.02" y="21.6">к</tspan><tspan x="77.29" y="21.6">а</tspan></text><text class="cls-4" transform="translate(156.23 138.72)">Прием <tspan class="cls-5" x="60.39" y="0">с</tspan><tspan x="69.59" y="0">ооб</tspan><tspan class="cls-16" x="99.92" y="0">щ</tspan><tspan x="114.53" y="0">ение </tspan><tspan x="37.84" y="19">в р</tspan><tspan class="cls-16" x="62.42" y="19">е</tspan><tspan x="72.22" y="19">жиме </tspan><tspan x="-4.23" y="38">реально</tspan><tspan class="cls-14" x="65.63" y="38">г</tspan><tspan x="71.8" y="38">о времени</tspan></text><text class="cls-4" transform="translate(152.48 60.81)">Хранили<tspan class="cls-16" x="72.58" y="0">щ</tspan><tspan x="87.19" y="0">е данных</tspan></text><text class="cls-4" transform="translate(9.3 97.45)">Ис<tspan class="cls-16" x="21.94" y="0">т</tspan><tspan class="cls-14" x="29.98" y="0">о</tspan><tspan x="39.59" y="0">чники </tspan><tspan x="12.28" y="21.6">данных</tspan></text></g></svg>