<svg xmlns="http://www.w3.org/2000/svg" viewBox="0 0 412.95 352.76"><defs><style>.cls-1{fill:none;stroke:#afafaf;stroke-miterlimit:10;stroke-width:6px;}.cls-2{fill:#afafaf;}.cls-3{fill:#3fa0ec;}.cls-14,.cls-4{fill:#2a3282;}.cls-10,.cls-5{fill:#fff;}.cls-6{isolation:isolate;}.cls-17,.cls-6{font-size:15px;fill:#0070c0;}.cls-10,.cls-14,.cls-17,.cls-6{font-family:ArialMT, Arial;}.cls-7{letter-spacing:0.01em;}.cls-8{letter-spacing:-0.04em;}.cls-9{letter-spacing:0.02em;}.cls-10{font-size:14.5px;}.cls-10,.cls-13{letter-spacing:-0.02em;}.cls-11{letter-spacing:-0.03em;}.cls-12{letter-spacing:-0.01em;}.cls-14{font-size:18px;}.cls-15{letter-spacing:-0.02em;}.cls-16{letter-spacing:-0.03em;}.cls-18{letter-spacing:-0.01em;}.cls-19{letter-spacing:-0.02em;}</style></defs><title>OJ103514622</title><g id="Shapes"><line class="cls-1" x1="126.7" y1="247.92" x2="291.94" y2="247.92"/><polygon class="cls-2" points="128.89 255.4 115.94 247.92 128.89 240.44 128.89 255.4"/><line class="cls-1" x1="332.05" y1="69.71" x2="332.05" y2="183.95"/><polygon class="cls-2" points="324.57 181.76 332.05 194.71 339.53 181.76 324.57 181.76"/><rect class="cls-3" y="211.53" width="115.75" height="71.66" rx="8" ry="8"/><line class="cls-1" x1="115.93" y1="52.36" x2="281.17" y2="52.36"/><polygon class="cls-2" points="278.99 59.84 291.94 52.36 278.99 44.88 278.99 59.84"/><rect class="cls-3" y="16.53" width="115.75" height="71.66" rx="8" ry="8"/><path class="cls-4" d="M292.11,72.38V88c0,7.26,14.53,15.34,33.64,16.7h12.64C357.51,103.35,372,96.9,372,89.36V15.87C372,7.79,354,0,331.91,0s-39.84,7.26-39.84,15.63V72.38Z" transform="translate(0 0.01)"/><ellipse class="cls-5" cx="332.05" cy="15.53" rx="31.25" ry="9.91"/><path class="cls-4" d="M292.11,267.38V283c0,7.26,14.53,15.34,33.64,16.7h12.64c19.12-1.35,33.64-7.8,33.64-15.34V210.87c0-8.08-18-15.88-40.12-15.88s-39.84,7.26-39.84,15.63v56.76Z" transform="translate(0 0.01)"/><ellipse class="cls-5" cx="332.05" cy="210.53" rx="31.25" ry="9.91"/></g><g id="txt"><text class="cls-6" transform="translate(176.1 46.13)">События</text><text class="cls-6" transform="translate(232.01 149.13)">П<tspan class="cls-7" x="10.78" y="0">у</tspan><tspan class="cls-8" x="18.45" y="0">б</tspan><tspan x="26.37" y="0">ли</tspan><tspan class="cls-9" x="43.5" y="0">к</tspan><tspan x="50.39" y="0">ация</tspan></text><text class="cls-10" transform="translate(294.06 52.1)">Хранили<tspan class="cls-11" x="56.44" y="0">щ</tspan><tspan x="67.91" y="0">е </tspan><tspan class="cls-12"><tspan x="10.34" y="21.3">с</tspan><tspan class="cls-13" x="17.46" y="21.3">обытий</tspan></tspan></text><text class="cls-14" transform="translate(25.57 239.81)"><tspan class="cls-7">М</tspan><tspan class="cls-15" x="15.2" y="0">о</tspan><tspan x="24.81" y="0">д</tspan><tspan class="cls-16" x="35.31" y="0">е</tspan><tspan x="44.73" y="0">ль </tspan><tspan x="-6.1" y="21.3">запро</tspan><tspan class="cls-7" x="41.93" y="21.3">с</tspan><tspan x="51.13" y="21.3">ов</tspan></text><text class="cls-14" transform="translate(25.57 46.02)"><tspan class="cls-7">М</tspan><tspan class="cls-15" x="15.2" y="0">о</tspan><tspan x="24.81" y="0">д</tspan><tspan class="cls-16" x="35.31" y="0">е</tspan><tspan x="44.73" y="0">ль </tspan><tspan class="cls-7" x="1.85" y="21.3">к</tspan><tspan x="9.92" y="21.3">оманд</tspan></text><text class="cls-17" transform="translate(253.39 321.5)"><tspan class="cls-7">М</tspan><tspan class="cls-15" x="12.66" y="0">а</tspan><tspan class="cls-18" x="20.68" y="0">т</tspan><tspan x="27.38" y="0">ериали</tspan><tspan class="cls-18" x="77.92" y="0">з</tspan><tspan x="84.62" y="0">о</tspan><tspan class="cls-18" x="92.97" y="0">в</tspan><tspan x="100.77" y="0">анное </tspan><tspan x="18.43" y="18">пр</tspan><tspan class="cls-15" x="34.9" y="18">е</tspan><tspan x="42.91" y="18">дс</tspan><tspan class="cls-18" x="59.16" y="18">т</tspan><tspan x="65.86" y="18">а</tspan><tspan class="cls-19" x="74.21" y="18">в</tspan><tspan x="81.83" y="18">ление</tspan></text><text class="cls-6" transform="translate(182.04 240.13)">Ч<tspan class="cls-18" x="10" y="0">т</tspan><tspan x="16.7" y="0">ение</tspan></text></g></svg>