<svg xmlns="http://www.w3.org/2000/svg" viewBox="0 0 451.89 313.17"><defs><style>.cls-1{fill:none;stroke:#afafaf;stroke-miterlimit:10;stroke-width:6px;}.cls-2{fill:#afafaf;}.cls-3{fill:#3fa0ec;}.cls-4{fill:#8fb6cc;}.cls-5{fill:#2a3282;}.cls-14,.cls-6,.cls-8{fill:#fff;}.cls-10,.cls-11,.cls-7,.cls-8,.cls-9{isolation:isolate;}.cls-7{font-size:14.87px;fill:#213d47;}.cls-11,.cls-14,.cls-18,.cls-7,.cls-8,.cls-9{font-family:ArialMT, Arial;}.cls-14,.cls-8{font-size:18px;}.cls-11,.cls-18,.cls-9{font-size:17px;fill:#0070c0;}.cls-11{letter-spacing:-0.03em;}.cls-12{letter-spacing:-0.04em;}.cls-13{letter-spacing:-0.02em;}.cls-15{letter-spacing:0.01em;}.cls-16{letter-spacing:-0.02em;}.cls-17{letter-spacing:-0.03em;}.cls-18{letter-spacing:-0.01em;}.cls-19{letter-spacing:-0.04em;}.cls-20{letter-spacing:-0.03em;}.cls-21{letter-spacing:-0.02em;}.cls-22{letter-spacing:-0.03em;}.cls-23{letter-spacing:-0.03em;}.cls-24{letter-spacing:-0.04em;}.cls-25{letter-spacing:-0.04em;}</style></defs><title>OJ103514692</title><g id="Shapes"><line class="cls-1" x1="89.46" y1="232.67" x2="345" y2="228.83"/><polygon class="cls-2" points="91.76 240.11 78.7 232.83 91.54 225.16 91.76 240.11"/><line class="cls-1" x1="366" y1="71.19" x2="366" y2="185.43"/><polygon class="cls-2" points="358.52 183.24 366 196.19 373.48 183.24 358.52 183.24"/><rect class="cls-3" x="124.06" y="195" width="115.75" height="71.66" rx="8" ry="8"/><line class="cls-1" x1="76" y1="37.83" x2="331.54" y2="33.99"/><polygon class="cls-2" points="329.46 41.5 342.3 33.83 329.24 26.54 329.46 41.5"/><path class="cls-4" d="M68,4.19a4,4,0,0,1,4,4v250a4,4,0,0,1-4,4H8a4,4,0,0,1-4-4V8.19a4,4,0,0,1,4-4H68m0-4H8a8,8,0,0,0-8,8v250a8,8,0,0,0,8,8H68a8,8,0,0,0,8-8V8.19A8,8,0,0,0,68,.19Z"/><rect class="cls-3" x="124.06" width="115.75" height="71.66" rx="8" ry="8"/><path class="cls-5" d="M340.16,49V59.19c0,4.76,9.53,10.06,22.07,11h8.29c12.54-.89,22.07-5.11,22.07-10.06V11.93c0-5.3-11.84-10.42-26.32-10.42s-26.13,4.76-26.13,10.25V49Z"/><ellipse class="cls-6" cx="366.36" cy="11.67" rx="20.5" ry="6.5"/><path class="cls-5" d="M340.16,244v10.23c0,4.76,9.53,10.06,22.07,11h8.29c12.54-.89,22.07-5.11,22.07-10.06v-48.2c0-5.3-11.84-10.42-26.32-10.42s-26.13,4.76-26.13,10.25V244Z"/><ellipse class="cls-6" cx="366.36" cy="206.67" rx="20.5" ry="6.5"/><rect class="cls-3" x="312.39" y="102.1" width="107.94" height="49.19" rx="8" ry="8"/></g><g id="txt"><text class="cls-7" transform="translate(8.22 131.65) scale(1.21 1)">Клиент</text><text class="cls-8" transform="translate(329.24 130.64)">Событие</text><text class="cls-9" transform="translate(258.71 20.61)">Запись</text><g class="cls-10"><text class="cls-11" transform="translate(260.48 213.61)">Ч<tspan class="cls-12" x="10.82" y="0">т</tspan><tspan x="17.91" y="0">ение</tspan></text></g><text class="cls-9" transform="translate(258.71 180.11)">Обно<tspan class="cls-13" x="41.8" y="0">в</tspan><tspan x="50.44" y="0">ление</tspan></text><text class="cls-14" transform="translate(148.95 29.39)"><tspan class="cls-15">М</tspan><tspan class="cls-16" x="15.2" y="0">о</tspan><tspan x="24.81" y="0">д</tspan><tspan class="cls-17" x="35.31" y="0">е</tspan><tspan x="44.73" y="0">ль </tspan><tspan class="cls-15" x="1.85" y="21.6">к</tspan><tspan x="9.92" y="21.6">оманд</tspan></text><text class="cls-14" transform="translate(149.95 223.97)"><tspan class="cls-15">М</tspan><tspan class="cls-16" x="15.2" y="0">о</tspan><tspan x="24.81" y="0">д</tspan><tspan class="cls-17" x="35.31" y="0">е</tspan><tspan x="44.73" y="0">ль </tspan><tspan x="-6.1" y="21.6">запро</tspan><tspan class="cls-15" x="41.93" y="21.6">с</tspan><tspan x="51.13" y="21.6">ов</tspan></text><text class="cls-18" transform="translate(285.57 287.25)">М<tspan class="cls-19" x="14.01" y="0">а</tspan><tspan class="cls-20" x="22.75" y="0">т</tspan><tspan class="cls-21" x="30.01" y="0">ериали</tspan><tspan class="cls-22" x="85.25" y="0">з</tspan><tspan class="cls-21" x="92.51" y="0">о</tspan><tspan class="cls-23" x="101.62" y="0">в</tspan><tspan class="cls-21" x="110.12" y="0">анное </tspan><tspan class="cls-21"><tspan x="20.21" y="20.4">пр</tspan><tspan class="cls-24" x="38.19" y="20.4">е</tspan><tspan x="46.93" y="20.4">дс</tspan><tspan class="cls-20" x="64.67" y="20.4">т</tspan><tspan x="71.92" y="20.4">а</tspan><tspan class="cls-25" x="81.04" y="20.4">в</tspan><tspan x="89.34" y="20.4">ление</tspan></tspan></text></g></svg>