<svg xmlns="http://www.w3.org/2000/svg" viewBox="0 0 678 212.1"><defs><style>.cls-1{fill:none;stroke:#afafaf;stroke-miterlimit:10;stroke-width:6px;}.cls-2{fill:#afafaf;}.cls-3{fill:#3fa0ec;}.cls-4,.cls-9{isolation:isolate;fill:#fff;font-family:ArialMT, Arial;}.cls-4{font-size:18px;}.cls-5{letter-spacing:-0.02em;}.cls-6{letter-spacing:-0.01em;}.cls-7{letter-spacing:-0.03em;}.cls-8{letter-spacing:0.01em;}.cls-9{font-size:17.98px;}.cls-10{letter-spacing:-0.01em;}.cls-11{letter-spacing:0.01em;}</style></defs><title>OJ103514666</title><g id="Shapes"><line class="cls-1" x1="191.53" y1="105.95" x2="244.77" y2="105.95"/><polygon class="cls-2" points="242.58 113.43 255.53 105.95 242.58 98.47 242.58 113.43"/><rect class="cls-3" x="486" width="192" height="60.1" rx="8" ry="8"/><rect class="cls-3" x="486" y="76" width="192" height="60.1" rx="8" ry="8"/><rect class="cls-3" x="486" y="152" width="192" height="60.1" rx="8" ry="8"/><line class="cls-1" x1="422.53" y1="105.95" x2="475.77" y2="105.95"/><polygon class="cls-2" points="473.58 113.42 486.53 105.94 473.58 98.47 473.58 113.42"/><line class="cls-1" x1="422.53" y1="105.95" x2="478.44" y2="42.05"/><polygon class="cls-2" points="482.63 48.62 485.53 33.95 471.37 38.77 482.63 48.62"/><line class="cls-1" x1="422.53" y1="105.95" x2="478.66" y2="173.66"/><polygon class="cls-2" points="471.51 176.75 485.53 181.95 483.02 167.2 471.51 176.75"/><rect class="cls-3" y="76" width="192" height="60.1" rx="8" ry="8"/><rect class="cls-3" x="255.23" y="86.05" width="167.53" height="40" rx="8" ry="8"/></g><g id="txt"><text class="cls-4" transform="translate(528.62 26)">П<tspan class="cls-5" x="12.94" y="0">о</tspan><tspan x="22.55" y="0">тр</tspan><tspan class="cls-6" x="40.81" y="0">е</tspan><tspan x="50.62" y="0">би</tspan><tspan class="cls-6" x="70.98" y="0">т</tspan><tspan class="cls-7" x="79.02" y="0">е</tspan><tspan x="88.44" y="0">ли </tspan><tspan class="cls-8" x="21.59" y="21.6">с</tspan><tspan x="30.79" y="21.6">обытий</tspan></text><text class="cls-4" transform="translate(528.62 102)">П<tspan class="cls-5" x="12.94" y="0">о</tspan><tspan x="22.55" y="0">тр</tspan><tspan class="cls-6" x="40.81" y="0">е</tspan><tspan x="50.62" y="0">би</tspan><tspan class="cls-6" x="70.98" y="0">т</tspan><tspan class="cls-7" x="79.02" y="0">е</tspan><tspan x="88.44" y="0">ли </tspan><tspan class="cls-8" x="21.59" y="21.6">с</tspan><tspan x="30.79" y="21.6">обытий</tspan></text><text class="cls-4" transform="translate(528.62 178)">П<tspan class="cls-5" x="12.94" y="0">о</tspan><tspan x="22.55" y="0">тр</tspan><tspan class="cls-6" x="40.81" y="0">е</tspan><tspan x="50.62" y="0">би</tspan><tspan class="cls-6" x="70.98" y="0">т</tspan><tspan class="cls-7" x="79.02" y="0">е</tspan><tspan x="88.44" y="0">ли </tspan><tspan class="cls-8" x="21.59" y="21.6">с</tspan><tspan x="30.79" y="21.6">обытий</tspan></text><text class="cls-9" transform="translate(42.77 103.01)">Пос<tspan class="cls-10" x="31.91" y="0">т</tspan><tspan x="39.95" y="0">авщики </tspan><tspan class="cls-11" x="18.25" y="21.58">с</tspan><tspan x="27.44" y="21.58">обытий</tspan></text><text class="cls-4" transform="translate(273.36 110)">Прием <tspan class="cls-8" x="60.39" y="0">с</tspan><tspan x="69.59" y="0">обытий</tspan></text></g></svg>