<svg xmlns="http://www.w3.org/2000/svg" viewBox="0 0 728 385.19"><defs><style>.cls-1{fill:#3fa0ec;}.cls-2{fill:#8fb6cc;}.cls-10,.cls-11,.cls-12,.cls-14,.cls-3{fill:none;}.cls-3{stroke:#afafaf;stroke-width:6px;}.cls-10,.cls-11,.cls-12,.cls-14,.cls-3,.cls-6,.cls-7,.cls-8,.cls-9{stroke-miterlimit:10;}.cls-4{fill:#afafaf;}.cls-5{fill:#217da5;}.cls-6{fill:red;}.cls-6,.cls-7,.cls-8,.cls-9{stroke:#fff;}.cls-7{fill:#f9c943;}.cls-8{fill:#39b54a;}.cls-9{fill:#88bee2;}.cls-10,.cls-11,.cls-12{stroke:#0070c0;stroke-width:2px;}.cls-11{stroke-dasharray:5.91 5.91;}.cls-12{stroke-dasharray:5.88 5.88;}.cls-13,.cls-23{fill:#0070c0;}.cls-14{stroke:#8e8e8e;stroke-width:3px;}.cls-15{fill:#8e8e8e;}.cls-16,.cls-17,.cls-23,.cls-30,.cls-33{isolation:isolate;}.cls-16{font-size:19.34px;fill:#213d47;}.cls-16,.cls-17,.cls-20,.cls-23,.cls-25,.cls-26,.cls-30,.cls-33,.cls-34,.cls-39{font-family:ArialMT, Arial;}.cls-17{font-size:18.77px;}.cls-17,.cls-20,.cls-25,.cls-26,.cls-33,.cls-34{fill:#fff;}.cls-18{letter-spacing:0.01em;}.cls-19{letter-spacing:-0.02em;}.cls-20{font-size:14px;}.cls-21{letter-spacing:-0.01em;}.cls-22{letter-spacing:-0.03em;}.cls-23,.cls-25{font-size:18.04px;}.cls-24{letter-spacing:0.01em;}.cls-26{font-size:16px;letter-spacing:-0.11em;}.cls-27{letter-spacing:-0.03em;}.cls-28{letter-spacing:-0.02em;}.cls-29{letter-spacing:-0.05em;}.cls-30,.cls-39{font-size:15px;fill:#383838;}.cls-31{letter-spacing:-0.04em;}.cls-32{letter-spacing:-0.02em;}.cls-33{font-size:15.58px;}.cls-34{font-size:15.61px;}.cls-34,.cls-38{letter-spacing:-0.03em;}.cls-35{letter-spacing:-0.04em;}.cls-36{letter-spacing:-0.05em;}.cls-37{letter-spacing:-0.02em;}.cls-40{letter-spacing:0.01em;}</style></defs><title>OJ103514673</title><g id="Shapes"><rect class="cls-1" x="623" y="105.14" width="105" height="57" rx="8" ry="8"/><path class="cls-2" d="M68,42a4,4,0,0,1,4,4V376a4,4,0,0,1-4,4H8a4,4,0,0,1-4-4V46a4,4,0,0,1,4-4H68m0-4H8a8,8,0,0,0-8,8V376a8,8,0,0,0,8,8H68a8,8,0,0,0,8-8V46A8,8,0,0,0,68,38Z"/><rect class="cls-1" x="116" y="332.15" width="73.04" height="52.03" rx="8" ry="8"/><line class="cls-3" x1="76" y1="171" x2="234.24" y2="171"/><polygon class="cls-4" points="232.05 178.48 245 171 232.05 163.52 232.05 178.48"/><rect class="cls-5" x="359.68" y="36.31" width="214" height="60" rx="8" ry="8"/><polygon class="cls-6" points="411.28 42.23 383.48 42.23 369.58 66.31 383.48 90.38 411.28 90.38 425.18 66.31 411.28 42.23"/><rect class="cls-5" x="359.68" y="103.64" width="214" height="60" rx="8" ry="8"/><polygon class="cls-7" points="411.28 109.56 383.48 109.56 369.58 133.64 383.48 157.72 411.28 157.72 425.18 133.64 411.28 109.56"/><rect class="cls-5" x="359.68" y="170.97" width="214" height="60" rx="8" ry="8"/><polygon class="cls-8" points="411.28 176.9 383.48 176.9 369.58 200.97 383.48 225.05 411.28 225.05 425.18 200.97 411.28 176.9"/><rect class="cls-5" x="359.68" y="238.31" width="214" height="60" rx="8" ry="8"/><polygon class="cls-9" points="411.28 244.23 383.48 244.23 369.58 268.31 383.48 292.38 411.28 292.38 425.18 268.31 411.28 244.23"/><polyline class="cls-10" points="596.68 304 596.68 307 593.68 307"/><line class="cls-11" x1="587.77" y1="307" x2="342.63" y2="307"/><polyline class="cls-10" points="339.68 307 336.68 307 336.68 304"/><line class="cls-12" x1="336.68" y1="298.12" x2="336.68" y2="6.94"/><polyline class="cls-10" points="336.68 4 336.68 1 339.68 1"/><line class="cls-11" x1="345.59" y1="1" x2="590.73" y2="1"/><polyline class="cls-10" points="593.68 1 596.68 1 596.68 4"/><line class="cls-12" x1="596.68" y1="9.88" x2="596.68" y2="301.06"/><rect class="cls-10" x="486.68" y="339.44" width="110" height="44.75"/><line class="cls-10" x1="449.01" y1="362" x2="476.34" y2="361.9"/><polygon class="cls-13" points="474.9 366.89 483.52 361.87 474.86 356.92 474.9 366.89"/><line class="cls-10" x1="541.68" y1="331.82" x2="541.68" y2="310"/><polygon class="cls-13" points="546.67 330.37 541.68 339 536.7 330.37 546.67 330.37"/><line class="cls-10" x1="391.68" y1="339" x2="391.68" y2="317.18"/><polygon class="cls-13" points="396.67 318.63 391.68 310 386.69 318.63 396.67 318.63"/><rect class="cls-10" x="336.68" y="339.44" width="110" height="44.75"/><line class="cls-14" x1="310" y1="171" x2="354.52" y2="262.83"/><polygon class="cls-15" points="348.84 263.79 358 270 358.8 258.96 348.84 263.79"/><line class="cls-3" x1="574" y1="134" x2="612.24" y2="134"/><polygon class="cls-4" points="610.05 141.48 623 134 610.05 126.52 610.05 141.48"/><line class="cls-14" x1="310" y1="171" x2="354.69" y2="73.24"/><polygon class="cls-15" points="359.05 77.02 358 66 348.98 72.42 359.05 77.02"/><line class="cls-14" x1="310" y1="171" x2="353.41" y2="141.48"/><polygon class="cls-15" points="355.19 146.97 360 137 348.96 137.81 355.19 146.97"/><line class="cls-14" x1="310" y1="171" x2="353.17" y2="196.9"/><polygon class="cls-15" points="348.93 200.81 360 201 354.63 191.32 348.93 200.81"/><rect class="cls-1" x="245.36" y="38" width="65" height="260" rx="8" ry="8"/><rect class="cls-1" x="219.5" y="332.15" width="98.72" height="52.03" rx="8" ry="8"/><line class="cls-3" x1="86.76" y1="358.17" x2="116" y2="358.17"/><polygon class="cls-4" points="88.95 365.65 76 358.17 88.95 350.69 88.95 365.65"/><line class="cls-3" x1="199.76" y1="358.17" x2="219" y2="358.17"/><polygon class="cls-4" points="201.95 365.65 189 358.17 201.95 350.69 201.95 365.65"/><line class="cls-3" x1="76" y1="69.49" x2="95.24" y2="69.49"/><polygon class="cls-4" points="93.05 76.97 106 69.49 93.05 62.01 93.05 76.97"/><line class="cls-3" x1="215" y1="69.49" x2="234.24" y2="69.49"/><polygon class="cls-4" points="232.05 76.97 245 69.49 232.05 62.01 232.05 76.97"/><rect class="cls-1" x="105.68" y="37.66" width="110" height="63.66" rx="8" ry="8"/></g><g id="Layer_2" data-name="Layer 2"><text class="cls-16" transform="translate(8.55 208.99) scale(0.93 1)">Клиент</text><text class="cls-17" transform="translate(454.22 70.43) scale(0.96 1)">Сл<tspan class="cls-18" x="24.51" y="0">уж</tspan><tspan class="cls-19" x="46.87" y="0">б</tspan><tspan x="57.19" y="0">а</tspan></text><text class="cls-17" transform="translate(454.22 137.76) scale(0.96 1)">Сл<tspan class="cls-18" x="24.51" y="0">уж</tspan><tspan class="cls-19" x="46.87" y="0">б</tspan><tspan x="57.19" y="0">а</tspan></text><text class="cls-17" transform="translate(454.22 205.09) scale(0.96 1)">Сл<tspan class="cls-18" x="24.51" y="0">уж</tspan><tspan class="cls-19" x="46.87" y="0">б</tspan><tspan x="57.19" y="0">а</tspan></text><text class="cls-17" transform="translate(454.22 272.43) scale(0.96 1)">Сл<tspan class="cls-18" x="24.51" y="0">уж</tspan><tspan class="cls-19" x="46.87" y="0">б</tspan><tspan x="57.19" y="0">а</tspan></text><text class="cls-20" transform="translate(124.51 64.37)">Пос<tspan class="cls-21" x="24.85" y="0">т</tspan><tspan x="31.1" y="0">авщик </tspan><tspan class="cls-22" x="-12.88" y="16.8">у</tspan><tspan x="-6.34" y="16.8">дос</tspan><tspan class="cls-21" x="16.61" y="16.8">т</tspan><tspan x="22.87" y="16.8">о</tspan><tspan class="cls-21" x="30.66" y="16.8">в</tspan><tspan x="37.94" y="16.8">ерений</tspan></text><text class="cls-23" transform="translate(408.98 26.42)">Микросл<tspan class="cls-24" x="72.61" y="0">уж</tspan><tspan x="94.1" y="0">бы</tspan></text><text class="cls-25" transform="translate(253.71 151.58)">Шлюз <tspan x="9.89" y="21.65">API</tspan></text><text class="cls-26" transform="translate(638.8 127.33)">У<tspan class="cls-27" x="8.43" y="0">даленная </tspan><tspan class="cls-27"><tspan x="12.54" y="19.2">сл</tspan><tspan class="cls-28" x="28.92" y="19.2">уж</tspan><tspan class="cls-29" x="47.02" y="19.2">б</tspan><tspan x="55.34" y="19.2">а</tspan></tspan></text><text class="cls-30" transform="translate(349.99 365.11)"><tspan class="cls-31">У</tspan><tspan x="8.85" y="0">пра</tspan><tspan class="cls-32" x="33.66" y="0">в</tspan><tspan x="41.29" y="0">ление</tspan></text><text class="cls-33" transform="translate(136.15 361.59) scale(0.97 1)">CDN</text><text class="cls-34" transform="translate(225.72 356.26)">С<tspan class="cls-35" x="10.8" y="0">т</tspan><tspan class="cls-36" x="17.31" y="0">а</tspan><tspan x="25.18" y="0">тичес</tspan><tspan class="cls-37" x="63.33" y="0">к</tspan><tspan x="69.86" y="0">ое </tspan><tspan class="cls-37"><tspan x="0.46" y="18.73">с</tspan><tspan class="cls-36" x="7.98" y="18.73">о</tspan><tspan class="cls-38" x="15.85" y="18.73">держимое</tspan></tspan></text><text class="cls-39" transform="translate(493.63 357.95)">Обна<tspan class="cls-21" x="36.88" y="0">р</tspan><tspan class="cls-40" x="45.06" y="0">у</tspan><tspan x="52.73" y="0">жение </tspan><tspan x="26.7" y="18">сл</tspan><tspan class="cls-40" x="42.95" y="18">уж</tspan><tspan x="60.82" y="18">б</tspan></text></g></svg>