<svg xmlns="http://www.w3.org/2000/svg" viewBox="0 0 786 353.13"><defs><style>.cls-1,.cls-3{fill:none;stroke:#afafaf;stroke-width:6px;}.cls-1{stroke-miterlimit:10;}.cls-2{fill:#afafaf;}.cls-3{stroke-linejoin:bevel;}.cls-4{fill:#3fa0ec;}.cls-5{fill:#8fb6cc;}.cls-6,.cls-7{isolation:isolate;}.cls-6,.cls-7,.cls-9{font-size:16px;font-family:ArialMT, Arial;}.cls-6{fill:#213d47;}.cls-7,.cls-9{fill:#fff;}.cls-8{letter-spacing:-0.04em;}.cls-10{letter-spacing:-0.04em;}.cls-11{letter-spacing:-0.01em;}.cls-12{letter-spacing:0.01em;}.cls-13{letter-spacing:-0.02em;}.cls-14{letter-spacing:-0.08em;}.cls-15{letter-spacing:-0.02em;}</style></defs><title>OJ103514636</title><g id="Shapes"><line class="cls-1" x1="613.76" y1="209.38" x2="691" y2="209.38"/><polygon class="cls-2" points="615.95 216.86 603 209.38 615.95 201.9 615.95 216.86"/><line class="cls-1" x1="590" y1="36.38" x2="680.24" y2="36.38"/><polygon class="cls-2" points="678.05 43.86 691 36.38 678.05 28.9 678.05 43.86"/><line class="cls-1" x1="589" y1="109.38" x2="680.24" y2="110.31"/><polygon class="cls-2" points="678 117.77 691 110.38 678.1 102.81 678 117.77"/><line class="cls-3" x1="589" y1="272.87" x2="681.23" y2="272.7"/><polygon class="cls-2" points="679.05 280.18 692 272.68 679.04 265.22 679.05 280.18"/><line class="cls-1" x1="613.76" y1="143.38" x2="691" y2="143.38"/><polygon class="cls-2" points="615.95 150.86 603 143.38 615.95 135.9 615.95 150.86"/><line class="cls-1" x1="312" y1="272.38" x2="456.24" y2="272.38"/><polygon class="cls-2" points="454.05 279.86 467 272.38 454.05 264.9 454.05 279.86"/><rect class="cls-4" x="179.5" y="0.38" width="133" height="352.75" rx="8" ry="8"/><rect class="cls-4" x="466.75" width="136" height="186" rx="8" ry="8"/><rect class="cls-4" x="466.75" y="193.78" width="136" height="158" rx="8" ry="8"/><rect class="cls-4" x="326.75" y="242.73" width="115.75" height="60.1" rx="8" ry="8"/><rect class="cls-4" x="627" y="121.38" width="49.75" height="109" rx="8" ry="8"/><line class="cls-1" x1="312" y1="72.38" x2="456.24" y2="73.32"/><polygon class="cls-2" points="454.01 80.79 467 73.38 454.09 65.83 454.01 80.79"/><rect class="cls-4" x="691" width="95" height="73" rx="8" ry="8"/><rect class="cls-4" x="691" y="81.78" width="95" height="270" rx="8" ry="8"/><rect class="cls-4" x="100.25" y="83.88" width="55" height="185.75" rx="8" ry="8"/><line class="cls-1" x1="155" y1="176.76" x2="168.24" y2="176.76"/><polygon class="cls-2" points="166.05 184.24 179 176.76 166.05 169.28 166.05 184.24"/><path class="cls-5" d="M68,4.38a4,4,0,0,1,4,4v335a4,4,0,0,1-4,4H8a4,4,0,0,1-4-4V8.38a4,4,0,0,1,4-4H68m0-4H8a8,8,0,0,0-8,8v335a8,8,0,0,0,8,8H68a8,8,0,0,0,8-8V8.38A8,8,0,0,0,68,.38Z"/><line class="cls-1" x1="76" y1="176.76" x2="89.24" y2="176.76"/><polygon class="cls-2" points="87.05 184.24 100 176.76 87.05 169.28 87.05 184.24"/></g><g id="txt"><text class="cls-6" transform="translate(9.89 179.85)">Клиент</text><text class="cls-7" transform="translate(112.3 180.71) scale(0.97 1)"><tspan class="cls-8">W</tspan><tspan x="14.51" y="0">AF</tspan></text><text class="cls-7" transform="translate(635.72 179.71)">Кэш</text><text class="cls-9" transform="translate(215.27 168.28)"><tspan class="cls-10">У</tspan><tspan x="9.45" y="0">ро</tspan><tspan class="cls-11" x="27.24" y="0">в</tspan><tspan x="35.56" y="0">ень </tspan><tspan class="cls-11" x="-30.47" y="18">ве</tspan><tspan x="-13.43" y="18">б-при</tspan><tspan class="cls-12" x="27.56" y="18">л</tspan><tspan class="cls-11" x="37.07" y="18">о</tspan><tspan x="45.79" y="18">жений</tspan></text><text class="cls-7" transform="translate(358.41 265.26)">О<tspan class="cls-13" x="12.45" y="0">б</tspan><tspan x="21.26" y="0">мен </tspan><tspan class="cls-12" x="-24.48" y="18">с</tspan><tspan x="-16.3" y="18">ооб</tspan><tspan class="cls-11" x="10.66" y="18">щ</tspan><tspan x="23.64" y="18">ениями</tspan></text><text class="cls-9" transform="translate(473.53 84.78)">Пром<tspan class="cls-11" x="40.3" y="0">е</tspan><tspan class="cls-12" x="49.02" y="0">ж</tspan><tspan x="59.9" y="0">у</tspan><tspan class="cls-11" x="67.9" y="0">т</tspan><tspan class="cls-13" x="75.05" y="0">о</tspan><tspan x="83.59" y="0">чный </tspan><tspan class="cls-11" x="23.93" y="18">у</tspan><tspan x="31.75" y="18">ро</tspan><tspan class="cls-11" x="49.54" y="18">в</tspan><tspan x="57.86" y="18">ень 1</tspan></text><text class="cls-9" transform="translate(473.53 265.43)">Пром<tspan class="cls-11" x="40.3" y="0">е</tspan><tspan class="cls-12" x="49.02" y="0">ж</tspan><tspan x="59.9" y="0">у</tspan><tspan class="cls-11" x="67.9" y="0">т</tspan><tspan class="cls-13" x="75.05" y="0">о</tspan><tspan x="83.59" y="0">чный </tspan><tspan class="cls-11" x="23.93" y="18">у</tspan><tspan x="31.75" y="18">ро</tspan><tspan class="cls-11" x="49.54" y="18">в</tspan><tspan x="57.86" y="18">ень 2</tspan></text><text class="cls-9" transform="translate(698.19 28.16)"><tspan class="cls-14">У</tspan><tspan x="8.91" y="0">даленная </tspan><tspan x="13.26" y="18">сл</tspan><tspan class="cls-12" x="30.6" y="18">уж</tspan><tspan class="cls-15" x="49.66" y="18">б</tspan><tspan x="58.46" y="18">а</tspan></text><text class="cls-9" transform="translate(707.68 218.95)"><tspan class="cls-10">У</tspan><tspan x="9.45" y="0">ро</tspan><tspan class="cls-11" x="27.24" y="0">в</tspan><tspan x="35.56" y="0">ень </tspan><tspan x="3.11" y="18">данных</tspan></text></g></svg>