<svg xmlns="http://www.w3.org/2000/svg" viewBox="0 0 800.84 325.43"><defs><style>.cls-1,.cls-3{fill:none;stroke:#afafaf;stroke-width:6px;}.cls-1{stroke-miterlimit:10;}.cls-2{fill:#afafaf;}.cls-3{stroke-linejoin:bevel;}.cls-4{fill:#3fa0ec;}.cls-5{fill:#8fb6cc;}.cls-11,.cls-6,.cls-9{isolation:isolate;}.cls-6,.cls-9{font-size:18px;}.cls-11,.cls-12,.cls-13,.cls-6{fill:#fff;}.cls-11,.cls-12,.cls-13,.cls-6,.cls-9{font-family:ArialMT, Arial;}.cls-7{letter-spacing:-0.03em;}.cls-8{letter-spacing:-0.02em;}.cls-9{fill:#213d47;}.cls-10{letter-spacing:-0.01em;}.cls-11{font-size:17.97px;}.cls-12{font-size:14px;}.cls-13{font-size:18.04px;}.cls-14{letter-spacing:-0.01em;}.cls-15{letter-spacing:-0.08em;}.cls-16{letter-spacing:0.01em;}.cls-17{letter-spacing:-0.02em;}</style></defs><title>OJ103514640</title><g id="Shapes"><line class="cls-1" x1="621.76" y1="155.93" x2="707" y2="155.93"/><polygon class="cls-2" points="623.95 163.41 611 155.93 623.95 148.45 623.95 163.41"/><line class="cls-1" x1="381.76" y1="293.85" x2="710" y2="293.85"/><polygon class="cls-2" points="383.95 301.33 371 293.85 383.95 286.37 383.95 301.33"/><line class="cls-1" x1="609" y1="174.93" x2="696.24" y2="174.93"/><polygon class="cls-2" points="694.05 182.41 707 174.93 694.05 167.45 694.05 182.41"/><line class="cls-1" x1="381.76" y1="88.43" x2="713.01" y2="88.43"/><polygon class="cls-2" points="383.95 95.91 370.99 88.42 383.95 80.95 383.95 95.91"/><line class="cls-1" x1="371" y1="68.93" x2="696.24" y2="68.93"/><polygon class="cls-2" points="694.05 76.41 707 68.92 694.05 61.45 694.05 76.41"/><line class="cls-3" x1="370.99" y1="24.46" x2="698.24" y2="24.46"/><polygon class="cls-2" points="696.05 31.94 709.01 24.46 696.05 16.98 696.05 31.94"/><line class="cls-1" x1="208" y1="65.41" x2="221.24" y2="65.41"/><polygon class="cls-2" points="219.05 72.89 232 65.41 219.05 57.94 219.05 72.89"/><rect class="cls-4" x="531.55" y="104.93" width="79" height="145.04" rx="8" ry="8"/><path class="cls-5" d="M68,5.72a4,4,0,0,1,4,4v306a4,4,0,0,1-4,4H8a4,4,0,0,1-4-4V9.72a4,4,0,0,1,4-4H68m0-4H8a8,8,0,0,0-8,8v306a8,8,0,0,0,8,8H68a8,8,0,0,0,8-8V9.72A8,8,0,0,0,68,1.72Z"/><line class="cls-1" x1="74" y1="65.41" x2="88.24" y2="65.41"/><polygon class="cls-2" points="86.05 72.89 99 65.41 86.05 57.94 86.05 72.89"/><line class="cls-1" x1="371" y1="214.95" x2="391.24" y2="214.95"/><polygon class="cls-2" points="389.05 222.43 402 214.95 389.05 207.47 389.05 222.43"/><rect class="cls-4" x="707" width="93" height="48.93" rx="8" ry="8"/><rect class="cls-4" x="707" y="265.43" width="93" height="60" rx="8" ry="8"/><rect class="cls-4" x="707" y="55.18" width="93" height="204" rx="8" ry="8"/><rect class="cls-4" x="402.18" y="184.97" width="102.64" height="60" rx="8" ry="8"/><rect class="cls-4" x="231.45" y="1.59" width="140" height="257.34" rx="8" ry="8"/><rect class="cls-4" x="231.45" y="263.85" width="140" height="60" rx="8" ry="8"/><rect class="cls-4" x="98.73" y="33.59" width="110" height="63.66" rx="8" ry="8"/><line class="cls-1" x1="505" y1="214.97" x2="521.24" y2="214.97"/><polygon class="cls-2" points="519.05 222.45 532 214.97 519.05 207.49 519.05 222.45"/><line class="cls-1" x1="86.76" y1="293.85" x2="231" y2="293.85"/><polygon class="cls-2" points="88.95 301.33 76 293.85 88.95 286.37 88.95 301.33"/><rect class="cls-4" x="640" y="75.93" width="51.75" height="92" rx="8" ry="8"/></g><g id="Layer_2" data-name="Layer 2"><text class="cls-6" transform="translate(536.13 174.93)"><tspan class="cls-7">Р</tspan><tspan x="11.41" y="0">аб</tspan><tspan class="cls-8" x="31.73" y="0">о</tspan><tspan x="41.34" y="0">чий</tspan></text><text class="cls-9" transform="translate(8.6 160.85)">Клиент</text><text class="cls-6" transform="translate(731.9 160.85)">Б<tspan class="cls-10" x="11.81" y="0">а</tspan><tspan x="21.62" y="0">за </tspan><tspan x="-8.72" y="21.6">данных</tspan></text><text class="cls-6" transform="translate(417.66 218.92)">Очер<tspan class="cls-8" x="43.4" y="0">е</tspan><tspan x="53.02" y="0">дь</tspan></text><text class="cls-11" transform="translate(283.06 297.79) scale(0.97 1)">CDN</text><text class="cls-6" transform="translate(649.71 125.88)">Кэш</text><text class="cls-12" transform="translate(118.5 60.37)">Пос<tspan class="cls-10" x="24.85" y="0">т</tspan><tspan x="31.1" y="0">авщик </tspan><tspan class="cls-7" x="-12.88" y="16.8">у</tspan><tspan x="-6.34" y="16.8">дос</tspan><tspan class="cls-10" x="16.61" y="16.8">т</tspan><tspan x="22.87" y="16.8">о</tspan><tspan class="cls-10" x="30.66" y="16.8">в</tspan><tspan x="37.94" y="16.8">ерений</tspan></text><text class="cls-13" transform="translate(236.77 129.85)">В<tspan class="cls-14" x="12.03" y="0">е</tspan><tspan x="21.86" y="0">б-ин</tspan><tspan class="cls-14" x="58.24" y="0">т</tspan><tspan x="66.3" y="0">ерфейс</tspan></text><text class="cls-12" transform="translate(719.07 19.34)"><tspan class="cls-15">У</tspan><tspan x="7.8" y="0">даленная </tspan><tspan x="11.6" y="16.8">сл</tspan><tspan class="cls-16" x="26.77" y="16.8">уж</tspan><tspan class="cls-17" x="43.45" y="16.8">б</tspan><tspan x="51.15" y="16.8">а</tspan></text><text class="cls-12" transform="translate(713.33 290.31)">С<tspan class="cls-10" x="10.11" y="0">т</tspan><tspan class="cls-8" x="16.37" y="0">а</tspan><tspan x="23.84" y="0">тичес</tspan><tspan class="cls-16" x="60.16" y="0">к</tspan><tspan x="66.44" y="0">ое </tspan><tspan class="cls-16" x="0.63" y="16.8">с</tspan><tspan class="cls-8" x="7.78" y="16.8">о</tspan><tspan x="15.26" y="16.8">держимое</tspan></text></g></svg>